<svg width="64" height="64" viewBox="0 0 64 64" fill="none" xmlns="http://www.w3.org/2000/svg">
<g clip-path="url(#clip0_631_397)">
<path d="M45.8092 30.1595L44.4618 32.4931C43.7177 33.782 42.0696 34.2236 40.7808 33.4795L37.9596 31.8506C36.2218 33.5391 34.0722 34.806 31.6748 35.484V38.7369C31.6748 40.2251 30.4685 41.4316 28.9801 41.4316H26.2853C24.7971 41.4316 23.5906 40.2252 23.5906 38.7369V35.484C21.1933 34.806 19.0436 33.5392 17.3059 31.8506L14.4846 33.4795C13.1957 34.2236 11.5476 33.782 10.8036 32.4931L9.45622 30.1595C8.7121 28.8706 9.15372 27.2225 10.4425 26.4784L13.2602 24.8515C12.9677 23.6896 12.8116 22.4736 12.8116 21.221C12.8116 19.9684 12.9677 18.7524 13.2602 17.5905L10.4425 15.9637C9.1536 15.2196 8.7121 13.5715 9.45622 12.2826L10.8036 9.949C11.5477 8.66012 13.1958 8.2185 14.4846 8.96262L17.3059 10.5915C19.0436 8.903 21.1932 7.63612 23.5906 6.95812V3.70525C23.5906 2.217 24.797 1.0105 26.2853 1.0105H28.9801C30.4683 1.0105 31.6748 2.21687 31.6748 3.70525V6.95812C34.0721 7.63612 36.2218 8.90287 37.9596 10.5915L40.7808 8.96262C42.0697 8.2185 43.7178 8.66012 44.4618 9.949L45.8092 12.2826C46.5533 13.5715 46.1117 15.2196 44.823 15.9637L42.0052 17.5906C42.2977 18.7525 42.4538 19.9685 42.4538 21.2211C42.4538 22.4737 42.2977 23.6897 42.0052 24.8516L44.823 26.4785C46.1119 27.2225 46.5533 28.8706 45.8092 30.1595Z" fill="#B6E152"/>
<path d="M37.0644 21.2209C37.0644 26.4298 32.8418 30.6526 27.6328 30.6526C22.4238 30.6526 18.2012 26.4299 18.2012 21.2209C18.2012 16.0119 22.4238 11.7893 27.6328 11.7893C32.8418 11.7893 37.0644 16.0121 37.0644 21.2209Z" fill="#92B703"/>
<path d="M61.3925 55.3943L60.4622 56.9668C59.9484 57.8353 58.8104 58.1328 57.9205 57.6314L55.971 56.533C54.7715 57.6704 53.2878 58.5222 51.6332 58.979V61.1739C51.6332 62.1768 50.8 62.9897 49.7724 62.9897H47.9118C46.8842 62.9897 46.0512 62.1767 46.0512 61.1739V58.979C44.3965 58.5222 42.9128 57.6703 41.7133 56.533L39.7638 57.6314C38.8738 58.1328 37.7359 57.8353 37.2222 56.9668L36.2918 55.3943C35.778 54.5259 36.0829 53.4154 36.9729 52.9139L38.919 51.8174C38.717 51.0345 38.6087 50.2155 38.6087 49.3715C38.6087 48.5275 38.717 47.7083 38.919 46.9257L36.9729 45.8292C36.0829 45.3278 35.778 44.2173 36.2918 43.3488L37.2222 41.7763C37.7359 40.9079 38.8739 40.6103 39.7638 41.1117L41.7133 42.21C42.9128 41.0727 44.3965 40.2209 46.0512 39.764V37.5692C46.0512 36.5663 46.8843 35.7534 47.9118 35.7534H49.7724C50.8 35.7534 51.6332 36.5664 51.6332 37.5692V39.764C53.2878 40.2209 54.7715 41.0728 55.971 42.21L57.9205 41.1117C58.8105 40.6103 59.9484 40.9078 60.4622 41.7763L61.3925 43.3488C61.9063 44.2173 61.6014 45.3278 60.7114 45.8292L58.7653 46.9257C58.9673 47.7085 59.0757 48.5275 59.0757 49.3715C59.0757 50.2155 58.9673 51.0348 58.7653 51.8174L60.7114 52.9139C61.6014 53.4153 61.9063 54.5258 61.3925 55.3943Z" fill="#73A4BC"/>
<path d="M53.9622 49.3715C53.9622 52.1992 51.6699 54.4915 48.8422 54.4915C46.0144 54.4915 43.7222 52.1992 43.7222 49.3715C43.7222 46.5437 46.0144 44.2515 48.8422 44.2515C51.6699 44.2515 53.9622 46.5438 53.9622 49.3715Z" fill="#56889B"/>
<path d="M23.4653 56.6655L22.6907 57.9748C22.263 58.6979 21.3155 58.9456 20.5745 58.5281L18.9513 57.6135C17.9526 58.5604 16.7172 59.2696 15.3396 59.6501V61.4775C15.3396 62.3125 14.646 62.9894 13.7903 62.9894H12.241C11.3853 62.9894 10.6917 62.3125 10.6917 61.4775V59.6501C9.31408 59.2696 8.07858 58.5605 7.07996 57.6135L5.45683 58.5281C4.71596 58.9456 3.76833 58.6979 3.34058 57.9748L2.56596 56.6655C2.13821 55.9424 2.39196 55.0178 3.13308 54.6003L4.75358 53.6873C4.58546 53.0355 4.49521 52.3535 4.49521 51.6508C4.49521 50.948 4.58546 50.266 4.75358 49.6143L3.13308 48.7013C2.39221 48.2838 2.13821 47.3591 2.56596 46.636L3.34058 45.3268C3.76833 44.6036 4.71583 44.356 5.45683 44.7734L7.07996 45.688C8.07871 44.7411 9.31408 44.0319 10.6917 43.6515V41.8241C10.6917 40.9891 11.3853 40.3123 12.241 40.3123H13.7902C14.6458 40.3123 15.3395 40.9891 15.3395 41.8241V43.6515C16.7171 44.032 17.9526 44.7411 18.9512 45.688L20.5743 44.7734C21.3152 44.3559 22.2628 44.6036 22.6906 45.3268L23.4652 46.636C23.893 47.3591 23.6392 48.2838 22.8981 48.7013L21.2776 49.6143C21.4457 50.266 21.536 50.948 21.536 51.6508C21.536 52.3535 21.4457 53.0355 21.2776 53.6873L22.8981 54.6003C23.6392 55.0178 23.8932 55.9425 23.4653 56.6655Z" fill="#C6C6C6"/>
<path d="M17.0712 51.6508C17.0712 53.8908 15.2553 55.7067 13.0153 55.7067C10.7753 55.7067 8.95947 53.8908 8.95947 51.6508C8.95947 49.4108 10.7753 47.595 13.0153 47.595C15.2553 47.595 17.0712 49.4108 17.0712 51.6508Z" fill="#969696"/>
<path d="M54.4112 46.8064C54.7834 47.6136 54.9722 48.4766 54.9722 49.3715C54.9722 52.7519 52.2221 55.502 48.8418 55.502C45.4616 55.502 42.7114 52.7519 42.7114 49.3715C42.7114 45.9911 45.4616 43.241 48.8418 43.241C49.6726 43.241 50.4787 43.4046 51.2374 43.727C51.7511 43.9453 51.9904 44.5385 51.7722 45.0522C51.5539 45.566 50.9608 45.8056 50.4469 45.587C49.9396 45.3713 49.3994 45.262 48.8418 45.262C46.5759 45.262 44.7324 47.1056 44.7324 49.3715C44.7324 51.6374 46.5759 53.481 48.8418 53.481C51.1077 53.481 52.9512 51.6374 52.9512 49.3715C52.9512 48.771 52.8249 48.1929 52.5759 47.6529C52.3422 47.146 52.5636 46.5457 53.0703 46.312C53.5773 46.0784 54.1774 46.2997 54.4112 46.8064ZM62.5568 53.7658C62.7523 54.4955 62.6473 55.2565 62.2616 55.9087L61.3313 57.4813C60.5407 58.8177 58.7882 59.2801 57.4241 58.5116L56.1011 57.7663C55.0767 58.6134 53.9018 59.2774 52.6433 59.7204V61.1736C52.6433 62.732 51.3553 64 49.7722 64H47.9116C46.3284 64 45.0404 62.7321 45.0404 61.1736V59.7204C43.7819 59.2774 42.6069 58.6134 41.5827 57.7663L40.2597 58.5116C38.8961 59.2802 37.1431 58.8176 36.3523 57.4811L35.4219 55.9087C35.0362 55.2565 34.9312 54.4955 35.1267 53.7658C35.3243 53.0276 35.8037 52.4125 36.4766 52.0335L37.7721 51.3036C37.6563 50.6666 37.5978 50.0196 37.5978 49.3715C37.5978 48.7232 37.6563 48.0763 37.7721 47.4394L36.4766 46.7094C35.8038 46.3304 35.3244 45.7153 35.1268 44.9775C34.9313 44.2476 35.0362 43.4865 35.4219 42.8343L36.3523 41.2617C37.1428 39.925 38.8954 39.4628 40.2596 40.2314L41.5826 40.9767C42.6069 40.1296 43.7822 39.4655 45.0403 39.0226V37.5692C45.0403 36.0109 46.3283 34.7429 47.9114 34.7429H49.7721C51.3552 34.7429 52.6432 36.0107 52.6432 37.5692V39.0226C53.9014 39.4655 55.0767 40.1296 56.1009 40.9767L57.4239 40.2314C58.7878 39.463 60.5407 39.9253 61.3313 41.2619L62.2616 42.8341C62.6474 43.4865 62.7523 44.2476 62.5568 44.9775C62.3592 45.7155 61.8796 46.3305 61.2069 46.7094L59.9116 47.4394C60.0273 48.0763 60.0858 48.7232 60.0858 49.3715C60.0858 50.0196 60.0273 50.6666 59.9116 51.3036L61.2069 52.0335C61.8798 52.4125 62.3592 53.0278 62.5568 53.7658ZM60.6046 54.2887C60.5487 54.08 60.4103 53.9044 60.2149 53.7943L58.2688 52.6978C57.8699 52.473 57.6719 52.0082 57.7863 51.565C57.9711 50.849 58.0647 50.1109 58.0647 49.3715C58.0647 48.6319 57.9711 47.8939 57.7863 47.1781C57.6719 46.7349 57.8698 46.27 58.2687 46.0452L60.2148 44.9486C60.4103 44.8385 60.5487 44.663 60.6046 44.4543C60.6583 44.2537 60.6291 44.0438 60.5221 43.863L59.5918 42.2907C59.3566 41.8931 58.8293 41.7593 58.4159 41.9919L56.4664 43.0902C56.0802 43.308 55.5969 43.2484 55.2751 42.9431C54.1797 41.9046 52.8272 41.142 51.3637 40.7379C50.9256 40.617 50.6221 40.2184 50.6221 39.7639V37.569C50.6221 37.1249 50.2408 36.7636 49.7721 36.7636H47.9114C47.4427 36.7636 47.0614 37.1249 47.0614 37.569V39.7639C47.0614 40.2184 46.7581 40.617 46.3198 40.7379C44.8563 41.142 43.5037 41.9045 42.4084 42.9431C42.0867 43.2481 41.6034 43.308 41.2171 43.0902L39.2676 41.9919C38.8543 41.7589 38.3269 41.8931 38.0917 42.2906L37.1613 43.8631C37.0544 44.0436 37.0252 44.2536 37.0789 44.4543C37.1348 44.663 37.2732 44.8385 37.4686 44.9486L39.4147 46.0452C39.8136 46.27 40.0114 46.7349 39.8971 47.1781C39.7123 47.894 39.6187 48.6319 39.6187 49.3715C39.6187 50.1109 39.7123 50.849 39.8971 51.565C40.0114 52.0082 39.8134 52.473 39.4146 52.6978L37.4684 53.7943C37.2731 53.9044 37.1347 54.08 37.0788 54.2887C37.0252 54.4893 37.0543 54.6991 37.1612 54.8797L38.0916 56.4523C38.3268 56.85 38.8542 56.9837 39.2674 56.7511L41.2168 55.6527C41.3721 55.5652 41.5429 55.5226 41.7127 55.5226C41.9654 55.5226 42.2157 55.6172 42.4082 55.7999C43.5034 56.8382 44.8559 57.6009 46.3197 58.0051C46.7577 58.1261 47.0612 58.5246 47.0612 58.9791V61.1739C47.0612 61.618 47.4424 61.9793 47.9112 61.9793H49.7718C50.2406 61.9793 50.6218 61.618 50.6218 61.1739V58.9791C50.6218 58.5246 50.9252 58.1261 51.3633 58.0051C52.8271 57.6009 54.1796 56.8382 55.2748 55.7999C55.5966 55.4949 56.0798 55.4349 56.4662 55.6527L58.4157 56.7511C58.8289 56.984 59.3564 56.8497 59.5916 56.4524L60.5219 54.8797C60.6292 54.6991 60.6582 54.4893 60.6046 54.2887ZM17.0719 50.6403C16.5138 50.6403 16.0614 51.0925 16.0614 51.6507C16.0614 53.33 14.6953 54.6963 13.0163 54.6963C11.3373 54.6963 9.97093 53.33 9.97093 51.6507C9.97093 49.9715 11.3371 48.6053 13.0163 48.6053C13.5259 48.6053 14.0297 48.7332 14.4732 48.9755C14.9629 49.2432 15.5769 49.0628 15.8444 48.573C16.1119 48.0831 15.9316 47.4694 15.4418 47.2018C14.7019 46.7976 13.8632 46.5841 13.0163 46.5841C10.2228 46.5841 7.95006 48.8569 7.95006 51.6506C7.95006 54.4444 10.2228 56.7171 13.0163 56.7171C15.8098 56.7171 18.0826 54.4444 18.0826 51.6506C18.0824 51.0926 17.6301 50.6403 17.0719 50.6403ZM24.5989 55.2659C24.7736 55.9179 24.6799 56.5976 24.3354 57.1801L23.5608 58.4895C22.8558 59.681 21.2939 60.0934 20.0788 59.4086L19.0778 58.8446C18.2621 59.5024 17.3376 60.025 16.3503 60.3865V61.4776C16.3503 62.8684 15.2021 64 13.7906 64H12.2417C10.8303 64 9.68193 62.8685 9.68193 61.4776V60.3865C8.69468 60.0249 7.77018 59.5022 6.95443 58.8446L5.95343 59.4086C4.73818 60.0935 3.17606 59.6809 2.47143 58.4894L1.69681 57.1802C1.35218 56.5976 1.25868 55.9179 1.43331 55.2659C1.60981 54.607 2.03743 54.0581 2.63756 53.7199L3.61206 53.171C3.52768 52.6691 3.48518 52.1605 3.48518 51.6509C3.48518 51.1413 3.52781 50.6325 3.61206 50.1307L2.63768 49.5819C2.03756 49.2436 1.60981 48.6947 1.43331 48.0359C1.25868 47.3839 1.35231 46.7041 1.69681 46.1216L2.47143 44.8122C3.17606 43.6207 4.73831 43.2085 5.95331 43.8931L6.95431 44.4571C7.77018 43.7993 8.69443 43.2767 9.68181 42.9154V41.8241C9.68181 40.4334 10.8301 39.3018 12.2416 39.3018H13.7908C15.2022 39.3018 16.3506 40.4332 16.3506 41.8241V42.9154C17.3378 43.2769 18.2622 43.7994 19.0781 44.4571L20.0791 43.8931C21.2941 43.2081 22.8563 43.6209 23.5611 44.8124L24.3356 46.1215C24.6802 46.7041 24.7738 47.3839 24.5992 48.0359C24.4227 48.6947 23.9951 49.2436 23.3949 49.5819L22.4206 50.1307C22.5049 50.6327 22.5474 51.1414 22.5474 51.6509C22.5474 52.1604 22.5048 52.6693 22.4206 53.171L23.3949 53.7199C23.9947 54.058 24.4224 54.607 24.5989 55.2659ZM22.6467 55.7887C22.6121 55.6592 22.5253 55.55 22.4026 55.4808L20.7822 54.5679C20.3833 54.3431 20.1853 53.8784 20.2997 53.4351C20.4499 52.8527 20.5261 52.2525 20.5261 51.651C20.5261 51.0494 20.4499 50.4491 20.2997 49.8669C20.1853 49.4236 20.3833 48.9589 20.7822 48.7341L22.4026 47.8213C22.5253 47.752 22.6121 47.6427 22.6467 47.5132C22.6698 47.4264 22.6799 47.2931 22.5959 47.151L21.8213 45.8419C21.6746 45.5935 21.3308 45.5079 21.0708 45.6543L19.4477 46.5689C19.0613 46.7866 18.5782 46.727 18.2563 46.4217C17.3643 45.5761 16.2629 44.955 15.0709 44.626C14.6328 44.5051 14.3293 44.1065 14.3293 43.652V41.8246C14.3293 41.5481 14.0877 41.3232 13.7907 41.3232H12.2417C11.9446 41.3232 11.7031 41.5481 11.7031 41.8246V43.652C11.7031 44.1065 11.3997 44.5051 10.9614 44.626C9.76943 44.955 8.66793 45.5761 7.77593 46.4217C7.45418 46.7269 6.97118 46.7868 6.58456 46.5689L4.96143 45.6543C4.70156 45.5079 4.35781 45.5936 4.21093 45.8418L3.43631 47.1511C3.35218 47.2933 3.36218 47.4265 3.38556 47.5132C3.42018 47.6427 3.50693 47.752 3.62968 47.8213L5.25006 48.7341C5.64906 48.9589 5.84693 49.4238 5.73256 49.867C5.58231 50.4489 5.50618 51.0491 5.50618 51.651C5.50618 52.2529 5.58231 52.8531 5.73256 53.435C5.84693 53.8783 5.64906 54.3431 5.25006 54.5679L3.62956 55.4808C3.50681 55.55 3.42006 55.6592 3.38543 55.7887C3.36231 55.8756 3.35218 56.0089 3.43618 56.151L4.21068 57.4601C4.35756 57.7085 4.70131 57.7941 4.96118 57.6479L6.58431 56.7332C6.73956 56.6457 6.91043 56.6031 7.08018 56.6031C7.33293 56.6031 7.58318 56.6978 7.77568 56.8804C8.66756 57.726 9.76906 58.3471 10.9612 58.6763C11.3992 58.7972 11.7027 59.1958 11.7027 59.6502V61.4776C11.7027 61.7541 11.9443 61.979 12.2413 61.979H13.7906C14.0877 61.979 14.3292 61.7541 14.3292 61.4776V59.6502C14.3292 59.1958 14.6326 58.7972 15.0707 58.6763C16.2628 58.3471 17.3643 57.726 18.2562 56.8804C18.5781 56.5754 19.0611 56.5156 19.4476 56.7332L21.0707 57.6479C21.3304 57.7944 21.6743 57.7085 21.8212 57.4604L22.5958 56.151C22.6801 56.0088 22.6699 55.8755 22.6467 55.7887ZM34.8811 15.1023C34.4189 15.4151 34.2981 16.0434 34.6111 16.5055C35.5551 17.8995 36.0539 19.5301 36.0539 21.221C36.0539 25.8644 32.2763 29.642 27.6332 29.642C22.9901 29.642 19.2124 25.8644 19.2124 21.221C19.2124 19.5463 19.7026 17.9287 20.6298 16.5434C22.1987 14.1995 24.8168 12.8 27.6331 12.8C29.2676 12.8 30.8521 13.2686 32.2157 14.1549C32.6834 14.4591 33.3096 14.3262 33.6136 13.8585C33.9178 13.3904 33.7849 12.7647 33.3171 12.4605C31.6251 11.3604 29.6594 10.779 27.6331 10.779C24.1409 10.779 20.8952 12.5138 18.9502 15.4192C17.7994 17.1384 17.1912 19.1446 17.1912 21.2211C17.1912 26.9789 21.8753 31.6632 27.6331 31.6632C33.3908 31.6632 38.0749 26.9789 38.0749 21.2211C38.0749 19.1245 37.4558 17.1023 36.2844 15.3725C35.9716 14.9103 35.3432 14.7894 34.8811 15.1023ZM38.0991 33.098C36.5191 34.4902 34.6709 35.559 32.6854 36.2284V38.7369C32.6854 40.7799 31.0233 42.4421 28.9803 42.4421H26.2857C24.2427 42.4421 22.5806 40.7799 22.5806 38.7369V36.2285C20.5951 35.559 18.7471 34.4904 17.1669 33.0981L14.9906 34.3546C14.1333 34.8495 13.1349 34.9809 12.1791 34.7249C11.2231 34.4688 10.4241 33.8555 9.92918 32.9985L8.58181 30.6649C7.56031 28.8954 8.16881 26.6249 9.93806 25.6035L12.1117 24.3485C11.9059 23.3221 11.8019 22.2734 11.8019 21.2213C11.8019 20.1691 11.9059 19.1204 12.1117 18.094L9.93806 16.839C8.16881 15.8175 7.56031 13.547 8.58181 11.7776L9.92918 9.444C10.4241 8.587 11.2231 7.97375 12.1791 7.71763C13.1353 7.46163 14.1337 7.59313 14.9908 8.08788L17.1671 9.34437C18.7469 7.95212 20.5952 6.88338 22.5807 6.214V3.70525C22.5807 1.66225 24.2428 0 26.2858 0H28.9804C31.0234 0 32.6856 1.66225 32.6856 3.70525V6.21362C34.6711 6.88312 36.5191 7.95175 38.0992 9.344L40.2756 8.0875C41.1326 7.5925 42.1311 7.46112 43.0871 7.71725C44.0431 7.97337 44.8421 8.58663 45.3369 9.44363L46.6842 11.7773C47.1791 12.6343 47.3104 13.6329 47.0543 14.589C46.7982 15.545 46.1852 16.3438 45.3279 16.8388L43.1543 18.0938C43.3601 19.12 43.4641 20.1688 43.4641 21.221C43.4641 22.2733 43.3601 23.322 43.1543 24.3482L45.3279 25.6033C46.1849 26.0981 46.7981 26.8971 47.0543 27.853C47.3104 28.8091 47.1789 29.8076 46.6842 30.6646L45.3368 32.9982C44.8421 33.8552 44.0431 34.4685 43.0871 34.7246C42.1309 34.9809 41.1326 34.8493 40.2754 34.3544L38.0991 33.098ZM38.4649 30.9755L41.2861 32.6044C41.6757 32.8294 42.1297 32.8894 42.5641 32.7726C42.9986 32.6562 43.3617 32.3775 43.5866 31.9879L44.9339 29.6542C45.1588 29.2646 45.2187 28.8106 45.1022 28.3762C44.9858 27.9417 44.7071 27.5786 44.3174 27.3536L41.4997 25.7267C41.1086 25.5009 40.9147 25.043 41.0251 24.6049C41.3024 23.5033 41.4431 22.3649 41.4431 21.2211C41.4431 20.0774 41.3024 18.939 41.0251 17.8374C40.9147 17.3994 41.1086 16.9414 41.4997 16.7155L44.3174 15.0886C44.7071 14.8636 44.9857 14.5005 45.1022 14.066C45.2186 13.6315 45.1588 13.1775 44.9339 12.788L43.5866 10.4544C43.3617 10.0648 42.9984 9.78613 42.5639 9.66963C42.1294 9.55325 41.6754 9.613 41.2859 9.83788L38.4649 11.4665C38.0734 11.6927 37.5796 11.6311 37.2556 11.3161C35.6131 9.72 33.5883 8.5495 31.4002 7.9305C30.9651 7.8075 30.6647 7.41038 30.6647 6.95813V3.70525C30.6647 2.7765 29.9092 2.021 28.9804 2.021H26.2858C25.3572 2.021 24.6016 2.7765 24.6016 3.70525V6.95825C24.6016 7.41038 24.3012 7.80762 23.8661 7.93062C21.6779 8.54963 19.6531 9.72025 18.0107 11.3162C17.6866 11.6312 17.1928 11.6929 16.8013 11.4666L13.9802 9.83775C13.5907 9.61275 13.1366 9.55288 12.7022 9.6695C12.2677 9.78588 11.9044 10.0646 11.6796 10.4543L10.3322 12.7879C9.86793 13.5921 10.1443 14.6243 10.9487 15.0885L13.7663 16.7153C14.1574 16.9411 14.3513 17.399 14.2409 17.8371C13.9636 18.9389 13.8228 20.0774 13.8228 21.2209C13.8228 22.3644 13.9634 23.503 14.2409 24.6046C14.3513 25.0426 14.1574 25.5006 13.7663 25.7265L10.9487 27.3533C10.1444 27.8175 9.86793 28.8496 10.3323 29.6539L11.6796 31.9875C11.9044 32.3771 12.2677 32.6558 12.7022 32.7723C13.1367 32.8889 13.5907 32.829 13.9802 32.604L16.8013 30.9751C16.9589 30.884 17.1332 30.8398 17.3062 30.8398C17.5629 30.8398 17.8171 30.9374 18.0107 31.1255C19.6532 32.7216 21.6779 33.8921 23.8661 34.5111C24.3012 34.6341 24.6016 35.0312 24.6016 35.4835V38.7368C24.6016 39.6655 25.3571 40.421 26.2858 40.421H28.9804C29.9091 40.421 30.6647 39.6655 30.6647 38.7368V35.4837C30.6647 35.0316 30.9651 34.6344 31.4002 34.5114C33.5883 33.8924 35.6132 32.7217 37.2556 31.1257C37.5797 30.811 38.0734 30.7494 38.4649 30.9755ZM32.6856 19.8736C32.6856 19.3154 32.2331 18.8631 31.6751 18.8631H23.5911C23.0329 18.8631 22.5806 19.3154 22.5806 19.8736C22.5806 20.4319 23.0331 20.8841 23.5911 20.8841H31.6751C32.2331 20.8843 32.6856 20.4319 32.6856 19.8736ZM26.2857 22.9053C25.7276 22.9053 25.2752 23.3575 25.2752 23.9158C25.2752 24.474 25.7277 24.9263 26.2857 24.9263H28.9803C29.5384 24.9263 29.9908 24.474 29.9908 23.9158C29.9908 23.3575 29.5383 22.9053 28.9803 22.9053H26.2857Z" fill="black"/>
</g>
<defs>
<clipPath id="clip0_631_397">
<rect width="64" height="64" fill="white"/>
</clipPath>
</defs>
</svg>
