<svg width="43" height="43" viewBox="0 0 43 43" fill="none" xmlns="http://www.w3.org/2000/svg">
<path d="M19.7433 32.9844C19.2586 32.9844 18.8657 33.3773 18.8657 33.862V34.2549C18.8657 34.7395 19.2586 35.1324 19.7433 35.1324C20.2279 35.1324 20.6208 34.7395 20.6208 34.2549V33.862C20.6208 33.3773 20.2279 32.9844 19.7433 32.9844Z" fill="white"/>
<path d="M41.3999 26.3171L38.7634 24.1457C38.8961 23.2722 38.9633 22.3847 38.9633 21.5C38.9633 20.6153 38.8961 19.7276 38.7633 18.8542L41.3999 16.6827C42.2424 15.9888 42.4577 14.7997 41.9121 13.8557L38.3263 7.64501C37.9312 6.95861 37.1942 6.53222 36.4028 6.53222C36.1348 6.53222 35.8715 6.58034 35.6215 6.67457L32.421 7.87337C31.0314 6.75755 29.4943 5.86874 27.8396 5.2245L27.2784 1.85824C27.0997 0.781559 26.178 0 25.0865 0H17.9135C16.8221 0 15.9002 0.781643 15.7219 1.85765L15.1605 5.22442C13.5058 5.86883 11.9685 6.75755 10.5789 7.87345L7.38205 6.67609C7.13018 6.58051 6.86638 6.53205 6.5978 6.53205C5.80717 6.53205 5.07004 6.95819 4.67431 7.64409L1.088 13.8556C0.54219 14.7999 0.757526 15.989 1.60006 16.6828L4.23666 18.8542C4.10397 19.7277 4.03678 20.6153 4.03678 21.5C4.03678 22.3847 4.10397 23.2723 4.23666 24.1458L1.60006 26.3173C0.757526 27.0111 0.542274 28.2002 1.08784 29.1442L4.67422 35.3559C5.07029 36.0421 5.80734 36.4685 6.5978 36.4685C6.86697 36.4685 7.13127 36.4197 7.37835 36.3254L10.5787 35.1265C11.9684 36.2424 13.5056 37.1313 15.1602 37.7755L15.7214 41.1412C15.8996 42.2183 16.8215 43 17.9136 43H25.0865C26.1776 43 27.0994 42.2186 27.2782 41.1424L27.8395 37.7756C29.4944 37.1312 31.0315 36.2424 32.4211 35.1265L35.6184 36.3242C35.8703 36.4197 36.1342 36.4681 36.4025 36.4681C37.1929 36.4681 37.9298 36.042 38.3257 35.3561L41.9121 29.1444C42.4577 28.1999 42.2424 27.011 41.3999 26.3171ZM25.0865 41.2449H20.6207V37.0938C20.6207 36.6091 20.2278 36.2162 19.7431 36.2162C19.2584 36.2162 18.8656 36.6091 18.8656 37.0938V41.2449H17.9483V31.6205C19.091 32.0273 20.305 32.2398 21.5483 32.2404C21.5485 32.2404 21.5538 32.2404 21.5542 32.2404C22.8015 32.2404 24.017 32.0281 25.1594 31.621V41.2384H25.1595C25.1356 41.2421 25.1113 41.2449 25.0865 41.2449ZM21.5539 30.4853H21.5491C16.5971 30.4829 12.5684 26.4519 12.5685 21.4998C12.5686 18.618 13.9269 15.9725 16.1931 14.2986V20.7006C16.1931 21.0089 16.3549 21.2946 16.6191 21.4531L21.1023 24.1429C21.3802 24.3095 21.7274 24.3095 22.0053 24.1429L26.4885 21.4531C26.7528 21.2945 26.9145 21.0089 26.9145 20.7006V14.2986C29.1807 15.9725 30.5392 18.6181 30.5391 21.5C30.5391 23.8959 29.6032 26.1512 27.9041 27.8504C26.205 29.5496 23.9497 30.4853 21.5539 30.4853ZM40.3922 28.2666L36.8056 34.4785C36.6943 34.6714 36.4594 34.766 36.2371 34.6818L32.561 33.3047C32.2622 33.1929 31.9265 33.2518 31.6838 33.4587C30.2624 34.6704 28.6582 35.6078 26.9144 36.248V30.8076C27.7194 30.3414 28.4692 29.7673 29.145 29.0914C31.1757 27.0607 32.294 24.3647 32.294 21.5C32.2941 17.4484 30.0492 13.7876 26.4352 11.9464C26.1632 11.8078 25.8387 11.8206 25.5784 11.9801C25.3181 12.1397 25.1594 12.4231 25.1594 12.7283V20.2039L21.5537 22.3672L17.9481 20.2039V12.7283C17.9481 12.4231 17.7894 12.1397 17.5291 11.9801C17.2689 11.8206 16.9443 11.808 16.6722 11.9464C13.0584 13.7875 10.8135 17.4483 10.8133 21.4998C10.8132 24.4177 11.9541 27.1397 14.0255 29.1642C14.6854 29.8092 15.4137 30.3593 16.193 30.8091V36.2878C14.4077 35.647 12.7669 34.6956 11.316 33.4589C11.1545 33.3213 10.9521 33.2492 10.7465 33.2492C10.6431 33.2492 10.5388 33.2674 10.4389 33.3049L6.75787 34.6839C6.70639 34.7035 6.65247 34.7135 6.59788 34.7135C6.43252 34.7135 6.2779 34.6236 6.19434 34.4787L2.6077 28.2665C2.49306 28.0683 2.53867 27.8183 2.71587 27.6723L5.74359 25.1785C5.98933 24.976 6.10624 24.6565 6.04888 24.3434C5.87839 23.4095 5.7918 22.453 5.7918 21.5C5.7918 20.5471 5.8783 19.5905 6.04905 18.6568C6.10624 18.3436 5.9895 18.024 5.74368 17.8217L2.71596 15.3281C2.53858 15.1819 2.49306 14.932 2.60787 14.7335L6.19442 8.52147C6.30553 8.32881 6.53951 8.23349 6.76291 8.31832L10.4391 9.69532C10.7376 9.80702 11.0735 9.74823 11.3162 9.54138C12.779 8.29446 14.4345 7.3373 16.2368 6.69633C16.5371 6.5895 16.756 6.32831 16.8083 6.01387L17.4532 2.14563C17.4907 1.91938 17.6843 1.75519 17.9136 1.75519H25.0865C25.3158 1.75519 25.5095 1.91938 25.5472 2.14622L26.1921 6.01395C26.2445 6.32839 26.4634 6.58975 26.7637 6.69641C28.5659 7.3373 30.2213 8.29438 31.684 9.5413C31.9267 9.74815 32.2625 9.80711 32.5611 9.69524L36.2392 8.31748C36.2922 8.29749 36.3472 8.28741 36.4029 8.28741C36.5684 8.28741 36.7225 8.37677 36.8059 8.52164L40.3925 14.7337C40.5072 14.932 40.4616 15.1819 40.2843 15.328L37.2565 17.8217C37.0108 18.0241 36.8939 18.3436 36.9513 18.6568C37.1217 19.5905 37.2083 20.5472 37.2083 21.5001C37.2083 22.453 37.1218 23.4095 36.9511 24.3432C36.8939 24.6563 37.0106 24.976 37.2565 25.1783L40.2842 27.6719C40.4615 27.8179 40.507 28.068 40.3922 28.2666Z" fill="white"/>
</svg>
