<svg width="1440" height="900" viewBox="0 0 1440 900" fill="none" xmlns="http://www.w3.org/2000/svg">
<g clip-path="url(#clip0_684_287)">
<circle cx="85.2224" cy="95.2224" r="83.6597" transform="rotate(-1.08049 85.2224 95.2224)" fill="#381B63"/>
<circle cx="100.222" cy="815.222" r="83.6597" transform="rotate(-1.08049 100.222 815.222)" fill="#381B63"/>
<circle cx="217.494" cy="836.494" r="18.1549" transform="rotate(-1.08049 217.494 836.494)" fill="#381B63"/>
<circle cx="28.0743" cy="735.074" r="12.8345" transform="rotate(-1.08049 28.0743 735.074)" fill="#381B63"/>
<circle cx="125.035" cy="203.035" r="20.6489" transform="rotate(-1.08049 125.035 203.035)" fill="#DAA058"/>
<circle cx="153.502" cy="172.502" r="7.36458" transform="rotate(-1.08049 153.502 172.502)" fill="#DAA058"/>
<circle cx="1416.69" cy="41.6872" r="16.3812" transform="rotate(-1.08049 1416.69 41.6872)" fill="#381B63"/>
<ellipse cx="1396.5" cy="20.0801" rx="10.3154" ry="9.88738" transform="rotate(-1.08049 1396.5 20.0801)" fill="#DAA058"/>
<circle cx="1393.01" cy="861.007" r="5.89721" transform="rotate(-1.08049 1393.01 861.007)" fill="#DAA058"/>
<circle cx="1414.27" cy="873.191" r="13.028" transform="rotate(-1.08049 1414.27 873.191)" fill="#DAA058"/>
</g>
<defs>
<clipPath id="clip0_684_287">
<rect width="1440" height="900" fill="white"/>
</clipPath>
</defs>
</svg>
