<svg width="901" height="333" viewBox="0 0 901 333" fill="none" xmlns="http://www.w3.org/2000/svg">
<g filter="url(#filter0_b_613_286)">
<path d="M406.32 164.28V205.8C406.32 214.2 404.2 221.4 399.96 227.4C395.8 233.4 390.6 237.92 384.36 240.96C378.2 243.92 372.2 245.4 366.36 245.4C358.68 245.4 351.76 243.84 345.6 240.72C339.52 237.52 334.76 233.16 331.32 227.64C327.96 222.04 326.28 215.76 326.28 208.8V159.96L313.08 156.48L316.92 148.68H359.4V155.4L348 164.28V204.48C348 213.04 350.2 219.72 354.6 224.52C359 229.24 365.64 231.6 374.52 231.6C377.88 231.6 381.2 230.6 384.48 228.6C387.76 226.52 390.48 223.52 392.64 219.6C394.8 215.68 395.88 211.04 395.88 205.68V161.88L381.96 156.48L385.8 148.68H417.72V155.4L406.32 164.28ZM464.933 244.2C461.653 244.2 458.693 243.36 456.053 241.68V260.88L474.293 265.68L470.453 273.48H424.973V266.76L435.652 257.76V200.04L424.973 193.32V186.6L449.933 176.04L454.613 190.08L469.613 178.08C472.173 177.44 475.093 177.12 478.373 177.12C483.253 177.12 487.653 178.52 491.573 181.32C495.573 184.04 498.653 187.8 500.813 192.6C503.053 197.4 504.173 202.72 504.173 208.56C504.173 214.88 502.133 220.8 498.053 226.32C493.973 231.76 488.853 236.12 482.693 239.4C476.613 242.6 470.733 244.2 465.053 244.2H464.933ZM470.693 193.8C468.053 193.8 465.533 194.12 463.133 194.76C460.813 195.4 458.413 196.56 455.933 198.24V217.2C455.933 220.96 457.293 224.12 460.013 226.68C462.813 229.16 466.773 230.4 471.893 230.4C475.333 230.4 477.933 229.04 479.693 226.32C481.533 223.6 482.453 219.6 482.453 214.32C482.453 208.32 481.453 203.4 479.453 199.56C477.453 195.72 474.573 193.8 470.813 193.8H470.693ZM574.944 189.96C576.304 192.52 576.984 195.24 576.984 198.12C576.984 203 574.904 207.72 570.744 212.28C566.664 216.76 561.584 220.16 555.504 222.48C553.424 224.88 552.384 227.28 552.384 229.68C552.384 230.8 553.264 231.92 555.024 233.04C556.784 234.08 559.544 235.44 563.304 237.12C568.824 239.52 573.064 241.72 576.024 243.72C578.984 245.8 580.464 248.2 580.464 250.92C580.464 253.48 578.864 256.64 575.664 260.4C572.464 264.24 568.464 267.56 563.664 270.36C558.944 273.24 554.344 274.68 549.864 274.68C544.984 274.68 539.184 273.92 532.464 272.4C525.744 270.88 520.144 269.36 515.664 267.84V246.36H523.224C527.144 251.64 531.104 255.64 535.104 258.36C539.184 261.16 543.784 262.56 548.904 262.56C551.544 262.56 553.744 261.96 555.504 260.76C557.344 259.64 558.264 258.44 558.264 257.16C558.264 255.32 557.184 253.68 555.024 252.24C552.944 250.88 549.704 249.2 545.304 247.2C540.584 245.12 537.024 243.28 534.624 241.68C532.224 240 531.024 238.08 531.024 235.92C531.024 234 532.464 232.04 535.344 230.04C538.304 228.04 541.824 226.28 545.904 224.76C544.304 224.92 543.104 225 542.304 225C537.424 225 532.944 224.04 528.864 222.12C524.864 220.2 521.704 217.64 519.384 214.44C517.064 211.16 515.904 207.68 515.904 204C515.904 199.44 517.584 195.08 520.944 190.92C524.304 186.76 528.664 183.44 534.024 180.96C539.384 178.4 544.864 177.12 550.464 177.12C556.864 177.12 562.504 178.72 567.384 181.92H587.184L587.304 189.96H574.944ZM549.384 211.32C551.944 211.32 553.904 210.72 555.264 209.52C556.704 208.24 557.424 206.36 557.424 203.88C557.424 199.96 556.144 196.88 553.584 194.64C551.104 192.32 547.784 191.16 543.624 191.16C538.344 191.16 535.704 193.52 535.704 198.24C535.704 202.08 536.944 205.24 539.424 207.72C541.984 210.12 545.304 211.32 549.384 211.32ZM632.622 194.16C629.742 194.16 626.862 195.44 623.982 198V230.4L642.222 235.2L638.382 243H592.902V236.28L603.582 227.28V200.04L592.902 193.32V186.6L617.862 176.04L622.422 189.36L633.342 178.08C635.022 177.44 636.982 177.12 639.222 177.12C643.382 177.12 646.942 178.08 649.902 180C652.942 181.92 655.062 184.56 656.262 187.92L644.742 202.32H637.182C637.102 199.44 636.702 197.4 635.982 196.2C635.262 194.92 634.142 194.28 632.622 194.28V194.16ZM728.47 243H701.11V232.56L687.55 243.24C685.95 243.88 683.95 244.2 681.55 244.2C673.87 244.2 668.31 242.32 664.87 238.56C661.51 234.8 659.83 230.28 659.83 225C659.83 221.88 660.79 218.84 662.71 215.88C664.63 212.84 667.39 210.04 670.99 207.48H701.11V205.44C701.11 201.04 699.91 197.8 697.51 195.72C695.11 193.64 691.91 192.6 687.91 192.6C682.31 192.6 674.99 194.8 665.95 199.2L662.35 192.36L679.03 178.92C683.11 177.72 687.87 177.12 693.31 177.12C702.27 177.12 709.19 179.16 714.07 183.24C719.03 187.32 721.51 193.24 721.51 201V231L732.31 235.2L728.47 243ZM687.67 228.12C691.75 228.12 696.23 226.44 701.11 223.08V215.4H681.79C681.15 216.36 680.67 217.28 680.35 218.16C680.11 218.96 679.99 219.88 679.99 220.92C679.99 222.92 680.67 224.6 682.03 225.96C683.47 227.32 685.35 228 687.67 228V228.12ZM815.372 243H788.132V234.12L776.612 243.24C774.052 243.88 771.092 244.2 767.732 244.2C762.452 244.2 757.692 242.84 753.452 240.12C749.292 237.32 746.012 233.52 743.612 228.72C741.292 223.92 740.132 218.6 740.132 212.76C740.132 206.44 742.172 200.56 746.252 195.12C750.332 189.6 755.412 185.24 761.492 182.04C767.652 178.76 773.572 177.12 779.252 177.12C782.452 177.12 785.412 177.92 788.132 179.52V161.64L777.452 154.56V147.84L800.972 138.24H808.532V231.6L819.332 235.2L815.372 243ZM775.052 228.12C779.772 228.12 784.132 226.96 788.132 224.64V201.72C787.652 198.6 786.052 196.04 783.332 194.04C780.612 192.04 776.932 191.04 772.292 191.04C765.252 191.04 761.732 196.4 761.732 207.12C761.732 213.2 762.852 218.24 765.092 222.24C767.412 226.16 770.732 228.12 775.052 228.12ZM866.908 177.12C875.308 177.12 881.788 180.32 886.348 186.72C890.988 193.12 893.228 202 893.068 213.36H849.868C850.668 218.24 852.388 222.16 855.028 225.12C857.668 228 861.108 229.44 865.348 229.44C870.948 229.44 878.988 226.64 889.468 221.04L893.068 227.88L874.828 242.4C870.108 243.6 864.628 244.2 858.388 244.2C852.548 244.2 847.268 242.84 842.548 240.12C837.908 237.32 834.268 233.52 831.628 228.72C829.068 223.92 827.788 218.6 827.788 212.76C827.788 206.44 829.828 200.56 833.908 195.12C837.988 189.6 843.068 185.24 849.148 182.04C855.308 178.76 861.228 177.12 866.908 177.12ZM860.308 191.04C856.788 191.04 854.148 192.24 852.388 194.64C850.628 196.96 849.668 200.56 849.508 205.44H872.428C871.788 200.48 870.588 196.84 868.828 194.52C867.148 192.2 864.268 191.04 860.188 191.04H860.308Z" fill="url(#paint0_linear_613_286)"/>
</g>
<g filter="url(#filter1_d_613_286)">
<path d="M163 88.5C164.833 87.6667 169 85.9 171 85.5L179.5 84L188.5 85.5L192.5 84H200C201.6 84 204.667 85 206 85.5L216.5 90.5C219 89.8333 224.3 88.5 225.5 88.5C226.7 88.5 234.333 89.8333 238 90.5L255.5 99.5C258.333 100.167 264.6 101.6 267 102C270 102.5 274 106 275.5 106C276.7 106 283 111.667 286 114.5L294.5 125.5L297.5 129.5L304.5 133.5L310 137.5L313.5 142.5V154L317.5 160.5L323.5 164.5L327 170L329.5 175.5L331 181.5L335 190L337 200V205.5L335 217L337 221.5V229.5L335 241L333 247.5L329.5 249.5L327 254.5L321 261L317.5 264L310 269H304.5H300.5L297.5 267V273.5L294.5 280.5L289 289L282.5 293.5L277 296L270.5 298L262 300H255.5H248.5H244H239L232.5 298L235 314.5V320L230.5 323.5L226 320C223.167 317 217.3 310.7 216.5 309.5C215.5 308 207 290.5 206 289C205.2 287.8 199.667 280.167 197 276.5L186 264H177.5C174.833 265 169 267 167 267H160C157.5 267.333 151.7 267.8 148.5 267C145.3 266.2 140.833 264.667 139 264L130.5 259L122.5 254.5L118 251.5L113.5 247.5L110 241V235.5L107.5 232V226.5H99C96.1667 225.833 90.1 224.4 88.5 224C86.9 223.6 82.8333 221.167 81 220L71 215L64 209.5L58 203.5L53.5 194H51L46 189V183.5L48.5 177.5L53.5 171L51 163L56 154.5L61 147L66 141L71 134.5L77.5 128.5L81 124L85 118.5L92.5 116L96.5 110L103 106H113.5L126 96L144.5 88.5H163Z" fill="#E6ADB3" stroke="black"/>
<path d="M117 106H114L126.5 95.5L144 88.5H163L171 85L180.5 84L188.5 86L194 84L204.5 85L217 90.5L226 88.5L238.5 90.5L254 98.5L270 102.5L276.5 106.5L283.5 111.5L290 119L288.5 139.5H279C271.167 135.667 264 119 260 119C256 119 245 120.333 240 121C238 124.5 234 131.9 234 133.5C234 135.5 238 144.5 240 147C242 149.5 249.5 155 252 155.5C254.5 156 260.5 162 265 164C268.6 165.6 268.167 176.667 267.5 182L256 189C252.667 190.5 245.3 193.8 242.5 195C239 196.5 223.5 200.5 222.5 200.5C221.7 200.5 211.167 201.5 206 202C199.333 201.667 185.6 200.9 184 200.5C182.4 200.1 172 196.667 167 195L147 176.5L157.5 167L164 152L154.5 136V123.5L137 119L117 106Z" fill="#FF79CD"/>
<path d="M252 155.5C254.5 156 260.5 162 265 164C268.6 165.6 268.167 176.667 267.5 182L256 189C252.667 190.5 245.3 193.8 242.5 195C239 196.5 223.5 200.5 222.5 200.5C221.7 200.5 211.167 201.5 206 202C199.333 201.667 185.6 200.9 184 200.5C182.4 200.1 172 196.667 167 195L147 176.5L157.5 167L164 152L154.5 136V123.5L137 119L117 106H114L126.5 95.5L144 88.5H163M252 155.5C249.5 155 242 149.5 240 147M252 155.5V164L254 170C252.667 172.167 249.7 176.5 248.5 176.5C247.3 176.5 242.333 180.167 240 182L226 185.5M240 147C238 144.5 234 135.5 234 133.5C234 131.9 238 124.5 240 121C245 120.333 256 119 260 119C264 119 271.167 135.667 279 139.5H288.5L290 119L283.5 111.5L276.5 106.5L270 102.5L254 98.5L238.5 90.5L226 88.5L217 90.5M240 147L226 144L210.5 136L203 123.5L188.5 116L178.5 119C177.167 121.167 174.5 125.8 174.5 127C174.5 128.5 175.5 133.5 177 133.5C178.2 133.5 183.833 135.167 186.5 136L194 139.5L198.5 144L186.5 150.5V152L180.5 164L177 168.5L167 172C168.333 172.5 171 174.1 171 176.5C171 179.5 183 182.5 186.5 183.5C190 184.5 203 186 204.5 185.5C206 185 214 184.5 215.5 182C216.7 180 225.333 174.5 229.5 172V168.5C230.833 167 232.4 164 228 164C222.5 164 220.5 161 215.5 161C210.5 161 206 158 203 161M217 90.5L204.5 85L194 84L188.5 86L180.5 84L171 85L163 88.5M217 90.5L226 98.5L240 104.5L238.5 108.5C234.333 111.333 226 117.4 226 119C226 120.6 223.667 122.667 222.5 123.5H208L192.5 116L190 111.5M163 88.5L167 90.5L177 94H190L204.5 95.5L210.5 98.5V104.5L208 108.5L200 111.5H190M177 108.5L188.5 111.5H190M177 108.5L168.5 106H161.5M177 108.5L190 111.5M149 108.5L160 106H161.5M149 108.5L150.5 111.5M149 108.5L161.5 106M203 161C200.6 163.4 199 165 198.5 165.5L203 161Z" stroke="black" stroke-width="0.5"/>
<path d="M289 139.5L290.5 119.5L297.5 129.5L303.75 133.5L310 137.5L313.5 142.5V154L317 161L323.5 165L328.5 173.5L331 181.5L335 189.5L336.5 200.5V206.5L335 217L336.5 222V229.5L335 240.5L333 247.5L329.5 249.5L327 255L322 260L315.5 265.5L310 269H300.5L297 266.5L295.5 262L289.5 258L288 254V246L280.5 239.5C279.5 240.5 275.5 243 273.5 243C271.5 243 265 243.5 264 243C263 242.5 257.5 242.5 257.5 242C257.5 241.6 251.167 236.833 248 234.5C247 233.5 244.4 231.2 242 230C239 228.5 236.5 230 234.5 230C232.5 230 228.5 228.5 227 228C225.8 227.6 224.167 225.5 223.5 224.5L220.5 221L219 215C218.5 213.333 217.5 209.8 217.5 209V204.5L222 201.5L227 200L234.5 198L240 196L248 192.5L252.5 190.5L257.5 188.5L263 185L267.5 182L268.5 180V169.5L265 164L257.5 159L252.5 156L247 152.5L240 147L234.5 136V132.5L240 121L260.5 119.5L268.5 128L279 139.5H289Z" fill="#7785F5"/>
<path d="M265 164L257.5 159L252.5 156L247 152.5L240 147L234.5 136V132.5L240 121L260.5 119.5L268.5 128L279 139.5H289L290.5 119.5L297.5 129.5L303.75 133.5M265 164L271 161L273 152.5C272.167 150.333 270.1 145.9 268.5 145.5C266.9 145.1 257.167 141.333 252.5 139.5L247 130.5M265 164L268.5 169.5V180L267.5 182L263 185L257.5 188.5L252.5 190.5L248 192.5L240 196L234.5 198L227 200L222 201.5L217.5 204.5C217.5 205.667 217.5 208.2 217.5 209C217.5 209.8 218.5 213.333 219 215L220.5 221L223.5 224.5C224.167 225.5 225.8 227.6 227 228C228.5 228.5 232.5 230 234.5 230C236.5 230 239 228.5 242 230C244.4 231.2 247 233.5 248 234.5C251.167 236.833 257.5 241.6 257.5 242C257.5 242.5 263 242.5 264 243C265 243.5 271.5 243 273.5 243C275.5 243 279.5 240.5 280.5 239.5M280.5 239.5C281.3 238.7 284.167 235.833 285.5 234.5L293 232L300.5 228C300.5 226.333 300.5 222.8 300.5 222C300.5 221 298.5 215 297 215C295.8 215 293.833 212.667 293 211.5C291.667 211.5 288.3 211.5 285.5 211.5C282 211.5 275.5 213 274.5 214C273.5 215 266 216.5 265 218C264.2 219.2 262.333 220.5 261.5 221H254.5L250 216.5C247.667 214.5 243.2 210.2 244 209C244.8 207.8 250 203.5 252.5 201.5M280.5 239.5L288 246V254L289.5 258L295.5 262L297 266.5L300.5 269H310L315.5 265.5L322 260L327 255L329.5 249.5L333 247.5L335 240.5L336.5 229.5V222L335 217L336.5 206.5V200.5L335 189.5L331 181.5L328.5 173.5L323.5 165L317 161M317 161L311 173.5L300.5 176.5C298.167 178.167 294.2 182.2 297 185M317 161L313.5 154V142.5L310 137.5L303.75 133.5M297 185C300.5 188.5 309.5 194 312 197M297 185L312 197M312 197C314.5 200 319.5 204 320 206.5M320 206.5C320.5 209 320 215 320 218C320 220.4 320 228.333 320 232M320 206.5V232M320 232L314.5 246L305.5 254M303.75 133.5L299 142.5L295 145.5L289 151C288.5 152.667 287.5 156.3 287.5 157.5C287.5 158.7 289.5 162.333 290.5 164C289.5 165.333 287.5 168.3 287.5 169.5C287.5 171 286 174.5 285 175.5C284 176.5 279 178 279 181.5C279 185 277.5 184.5 277 187C276.5 189.5 277 190.5 277 192.5C277 194.5 277 196 277 197C277 197.8 281 200.333 283 201.5H293" stroke="black" stroke-width="0.5"/>
<path d="M136.5 118.5L116.5 106H113.5H103L97 110L93 116L84 118.5L78.5 128L73 132.5L66 141L58 152L50.5 163L53.5 172.5L48.5 177.5L46 182V191L50.5 195H53.5L59.5 206L66 211.5L75 215.75L81.5 220L86 222.5L91.5 225L97 226L107.5 228V231L110 236L116.5 231C120.333 231.167 128 231.4 128 231C128 230.6 132 223.5 134 220L136.5 206L131.5 195L121 191H107.5L100 182L113.5 176.5C117.5 178.333 126 182 128 182C130 182 140.833 178.333 146 176.5L157 166L163.5 152L154 136.5V123L136.5 118.5Z" fill="#FFDF6B"/>
<path d="M163.5 152L154 136.5V123L136.5 118.5L116.5 106H113.5H103L97 110L93 116L84 118.5L78.5 128L73 132.5L66 141M163.5 152L157 166L146 176.5C140.833 178.333 130 182 128 182C126 182 117.5 178.333 113.5 176.5L100 182L107.5 191H121L131.5 195L136.5 206L134 220C132 223.5 128 230.6 128 231C128 231.4 120.333 231.167 116.5 231L110 236L107.5 231V228L97 226M163.5 152L151 153.5L131.5 162H121L118 152L128 139.5L123 132.5L110.5 129.5L95 132.5M97 226L106 223.188L115 220.375M97 226L115 220.375M97 226L91.5 225L86 222.5L81.5 220L75 215.75M113.5 211.5L115 220.375M75 215.75V206M75 215.75L66 211.5L59.5 206L53.5 195H50.5L46 191V182L48.5 177.5L53.5 172.5L50.5 163L58 152L66 141M75 206C77.6667 204.167 83.6 200.5 86 200.5C88.4 200.5 98.3333 200.5 103 200.5L122 206M75 206L69 203V195L75 182V172.5M66 141L73 148.5L86 152L97 148.5L103 152L97 166L86 172.5" stroke="black" stroke-width="0.5"/>
<path d="M186 264H178L169 267H159H152H146.5L139.5 264.5L133 260.5L126.5 257L119 252.5L114 248L110 241V236L116.5 231H128L134 220L136.5 206L131.5 195L121 191H108L100 182L113.5 176.5L127.5 182L146.5 176.5L154.5 184L166.5 195L175.25 197.75L184 200.5L202 202H206L212 201.5L222.5 200.5L217.5 204.5V209L220.5 221L225.5 227.5L233 230L234 232V234V237C233.833 237.333 233.4 238.1 233 238.5C232.6 238.9 229.5 240 228 240.5L221.5 243.5C218.333 243.5 211.8 243.4 211 243C210.2 242.6 205.667 239.5 203.5 238L190.5 227.5L184 220L180 212.5L171 209H160L154.5 212.5L152 222.5L156.5 231C160 231.667 167.2 232.9 168 232.5C169 232 178.5 232.5 180 232.5C181.2 232.5 184.5 234.833 186 236L190.5 243L197 250.5V257L192 264H186Z" fill="#FDAF75"/>
<path d="M119 252.5L126.5 257L133 260.5L139.5 264.5L146.5 267H152H159H169L178 264H186H192L197 257V250.5L190.5 243L186 236C184.5 234.833 181.2 232.5 180 232.5C178.5 232.5 169 232 168 232.5C167.2 232.9 160 231.667 156.5 231L152 222.5L154.5 212.5L160 209H171L180 212.5L184 220L190.5 227.5L203.5 238C205.667 239.5 210.2 242.6 211 243C211.8 243.4 218.333 243.5 221.5 243.5L228 240.5C229.5 240 232.6 238.9 233 238.5C233.4 238.1 233.833 237.333 234 237V234V232L233 230L225.5 227.5L220.5 221L217.5 209V204.5L222.5 200.5L212 201.5L206 202H202L184 200.5L175.25 197.75M119 252.5L114 248L110 241V236L116.5 231H128L134 220L136.5 206L131.5 195L121 191H108L100 182L113.5 176.5L127.5 182L146.5 176.5L154.5 184M119 252.5L123.5 251.5L126.5 250.5V245C126.5 243.5 126.8 240.5 128 240.5C129.2 240.5 134.167 239.167 136.5 238.5L148.5 237M154.5 184L155 189L152 194.5C149.333 195.5 143.9 197.3 143.5 196.5C143.1 195.7 140.333 192.5 139 191C137.167 190.5 133.3 189.4 132.5 189C131.7 188.6 126.833 187.5 124.5 187L111 185M154.5 184L166.5 195L175.25 197.75M148.5 237L160 238.5L166.5 243L177 247.5L182.5 251.5V257L173 258.5H162L148.5 252.5L142 248M148.5 237L143.5 232.5L142 227.5V220L141.559 212.5M145 206L141.5 211.5L141.559 212.5M145 206L154.5 200.5M145 206L141.559 212.5M175.25 197.75V204.5L181.5 206.5C181.667 206.5 182.4 206.5 184 206.5C185.6 206.5 191.333 208.167 194 209L201.5 210C203.333 211.167 207.4 213.7 209 214.5C210.6 215.3 212.667 217.5 213.5 218.5C213 219.833 212.3 222.8 213.5 224C215 225.5 217.5 230 217.5 231C217.5 231.8 213.833 233.333 212 234L206 231L203.5 225.5L200 220L194 214.5" stroke="black" stroke-width="0.5"/>
<path d="M235 320.5L231 323.5L225 319.5L216.5 309.5L205.5 289L201 281.5L192.5 271.5L186 264H191.5L197 257V250.5L190.5 243L186 236L181 233L174 232H167L156.5 230.5L152 222.5L154.5 212.5L160 209H171L179.5 212.5L184 220L190.5 227C194.667 230.833 203.6 238.8 206 240C208.4 241.2 210.667 242.5 211.5 243L213.218 243.09L221 243.5L224.864 241.844L231.5 239L234 237V234.5V232L233 230.5L236.5 230H239L243 230.5L248 235L255 240L257.5 243L266 243.5H272L274.75 242.5L277.5 241.5L280.5 240L288 246V250V254L289.5 258L295.5 262L297 266.5L297.5 267V273.5L295.5 278L293.5 282.5L290 287.5L286.5 290.5L280.5 294.5C278.833 295.167 275.4 296.5 275 296.5C274.917 296.5 274.631 296.572 274.208 296.693C272.593 297.157 268.981 298.34 267 299L262 300.5H251.5H238L232.5 298L233.5 305.5L235 313.5V320.5Z" fill="#F24A72"/>
<path d="M197 257L191.5 264H186L192.5 271.5L201 281.5L205.5 289L216.5 309.5L225 319.5L231 323.5L235 320.5V313.5L233.5 305.5L232.5 298M197 257V250.5L190.5 243L186 236L181 233L174 232H167L156.5 230.5L152 222.5L154.5 212.5L160 209H171L179.5 212.5L184 220L190.5 227C194.667 230.833 203.6 238.8 206 240C208.4 241.2 210.667 242.5 211.5 243M197 257L205.5 252L203.5 243L192.5 236L188.25 231.5M211.5 243L213.218 247.5M211.5 243L213.218 243.09M231.5 239L234 237M231.5 239L224.864 241.844M231.5 239L289.5 258M234 237C250.667 242 284.8 252.4 288 254M234 237V234.5M234 232L233 230.5L236.5 230H239L243 230.5L248 235M234 232V234.5M234 232L248 235M248 235L255 240M255 240L257.5 243L266 243.5M255 240L234 234.5M266 243.5H272L274.75 242.5M266 243.5L288 250M288 246L280.5 240L277.5 241.5L274.75 242.5M288 246V250M288 246L274.75 242.5M288 254L289.5 258M288 254V250M289.5 258L295.5 262M295.5 262L297 266.5L297.5 267M295.5 262C293.9 262 247.742 248.563 224.864 241.844M297.5 267V273.5M297.5 267C297.1 266.6 241.145 250.894 213.218 243.09M297.5 273.5L295.5 278M297.5 273.5C295.9 273.5 240.645 256.167 213.218 247.5M295.5 278L293.5 282.5M295.5 278L214.936 252M293.5 282.5L290 287.5M293.5 282.5L216.845 257M290 287.5L286.5 290.5M290 287.5L218.755 262M286.5 290.5L280.5 294.5M286.5 290.5L221 267.881M280.5 294.5C278.833 295.167 275.4 296.5 275 296.5C274.917 296.5 274.631 296.572 274.208 296.693M280.5 294.5L223.145 273.5M267 299L262 300.5M267 299L226.2 281.5M267 299C268.981 298.34 272.593 297.157 274.208 296.693M262 300.5H251.5M262 300.5L228.491 287.5M251.5 300.5H238L232.5 298M251.5 300.5L230.209 292M232.5 298L230.209 292M188.25 231.5L184 227L172.5 217.5H163.5L160 220L161 226L167 227H176.5L184 230L188.25 231.5ZM230.209 292L228.491 287.5M228.491 287.5L226.2 281.5M226.2 281.5L224.864 278M224.864 278L274.208 296.693M224.864 278L223.145 273.5M223.145 273.5L221 267.881M221 267.881L218.755 262M218.755 262L216.845 257M216.845 257L214.936 252M214.936 252L213.218 247.5M213.218 243.09L221 243.5L224.864 241.844" stroke="black" stroke-width="0.5"/>
<path d="M108.218 231C-110.54 231 397.62 10.5521 303 133" stroke="#4B1AA7" stroke-width="2"/>
<path d="M152 86.9998C156.816 -185.678 336.004 420.583 232.787 300.781" stroke="#4B1AA7" stroke-width="2"/>
<path d="M258.5 98.5001C263.225 -169.057 -23.6651 380.17 151.5 267.5" stroke="#4B1AA7" stroke-width="2"/>
<path d="M299 130.5C303.725 -137.057 27.0291 396.726 202.194 284.056" stroke="#4B1AA7" stroke-width="2"/>
<path d="M49.5 174C-177.507 -36.9236 533.122 228.186 322 258.5" stroke="#4B1AA7" stroke-width="2"/>
<circle cx="157" cy="298" r="4.5" fill="white" stroke="#4B18A5"/>
<circle cx="260" cy="242" r="4.5" fill="white" stroke="#4B18A5"/>
<circle cx="224" cy="109" r="4.5" fill="white" stroke="#4B18A5"/>
<circle cx="236" cy="148" r="4.5" fill="white" stroke="#4B18A5"/>
<circle cx="53" cy="216" r="4.5" fill="white" stroke="#4B18A5"/>
<circle cx="105" cy="282" r="4.5" fill="white" stroke="#4B18A5"/>
<circle cx="130" cy="149" r="4.5" fill="white" stroke="#4B18A5"/>
<circle cx="147" cy="115" r="4.5" fill="white" stroke="#4B18A5"/>
<circle cx="197" cy="45" r="4.5" fill="white" stroke="#4B18A5"/>
<circle cx="365" cy="236" r="4.5" fill="white" stroke="#4B18A5"/>
<circle cx="7" cy="106" r="4.5" fill="white" stroke="#4B18A5"/>
<circle cx="168" cy="15" r="4.5" fill="white" stroke="#4B18A5"/>
<circle cx="241" cy="27" r="4.5" fill="white" stroke="#4B18A5"/>
<circle cx="315" cy="101" r="4.5" fill="white" stroke="#4B18A5"/>
<circle cx="258" cy="315" r="4.5" fill="white" stroke="#4B18A5"/>
<circle cx="275" cy="55" r="4.5" fill="white" stroke="#4B18A5"/>
</g>
<defs>
<filter id="filter0_b_613_286" x="309.08" y="134.24" width="588.228" height="144.44" filterUnits="userSpaceOnUse" color-interpolation-filters="sRGB">
<feFlood flood-opacity="0" result="BackgroundImageFix"/>
<feGaussianBlur in="BackgroundImage" stdDeviation="2"/>
<feComposite in2="SourceAlpha" operator="in" result="effect1_backgroundBlur_613_286"/>
<feBlend mode="normal" in="SourceGraphic" in2="effect1_backgroundBlur_613_286" result="shape"/>
</filter>
<filter id="filter1_d_613_286" x="2" y="10" width="377" height="322.133" filterUnits="userSpaceOnUse" color-interpolation-filters="sRGB">
<feFlood flood-opacity="0" result="BackgroundImageFix"/>
<feColorMatrix in="SourceAlpha" type="matrix" values="0 0 0 0 0 0 0 0 0 0 0 0 0 0 0 0 0 0 127 0" result="hardAlpha"/>
<feOffset dx="5" dy="4"/>
<feGaussianBlur stdDeviation="2"/>
<feComposite in2="hardAlpha" operator="out"/>
<feColorMatrix type="matrix" values="0 0 0 0 0 0 0 0 0 0 0 0 0 0 0 0 0 0 0.25 0"/>
<feBlend mode="normal" in2="BackgroundImageFix" result="effect1_dropShadow_613_286"/>
<feBlend mode="normal" in="SourceGraphic" in2="effect1_dropShadow_613_286" result="shape"/>
</filter>
<linearGradient id="paint0_linear_613_286" x1="364.5" y1="215.5" x2="817.5" y2="243" gradientUnits="userSpaceOnUse">
<stop stop-color="#4167BD"/>
<stop offset="0.363019" stop-color="#1108A6"/>
<stop offset="1" stop-color="#483174"/>
</linearGradient>
</defs>
</svg>
