<svg width="41" height="53" viewBox="0 0 41 53" fill="none" xmlns="http://www.w3.org/2000/svg">
<path d="M40.4877 11.8475L29.1525 0.512124C28.8245 0.184152 28.3798 0 27.9162 0H1.74847C0.782957 0 0 0.782957 0 1.7483V50.7907C0 51.7562 0.782957 52.5392 1.74847 52.5392H39.2515C40.217 52.5392 41 51.7562 41 50.7907V13.0837C41 12.62 40.8157 12.1753 40.4877 11.8475ZM29.6646 5.96947L35.0305 11.3354H29.6646V5.96947ZM3.49695 49.0422V11.8475V3.49677H26.1677V13.0837C26.1677 14.0494 26.9506 14.8321 27.9162 14.8321H37.5031V49.0424L3.49695 49.0422Z" fill="white"/>
<path d="M9.87287 9.06989C10.0131 9.02316 10.3948 8.97252 11.018 8.91799C11.6411 8.85568 12.2059 8.82452 12.7122 8.82452C13.2263 8.82452 13.6236 8.84789 13.904 8.89463C13.9118 8.92578 13.9157 8.96473 13.9157 9.01147C13.9157 9.05042 13.8924 9.14779 13.8456 9.30359C13.8067 9.45938 13.7755 9.56065 13.7521 9.60738C13.6898 9.6697 13.5146 9.71644 13.2263 9.7476L15.4581 16.2092L16.5681 16.3026C16.5681 16.5208 16.5019 16.7545 16.3695 17.0037H13.682L13.647 16.5948C13.8262 16.5013 14.0871 16.4195 14.4299 16.3494L13.8339 14.6785H10.5739L10.0248 16.2092L10.9712 16.3026C10.9712 16.5208 10.905 16.7545 10.7726 17.0037H8.08513L8.05007 16.5948C8.35387 16.4857 8.67715 16.4 9.01989 16.3377L11.2867 9.71255C10.5934 9.63465 10.1066 9.54117 9.82613 9.43212L9.87287 9.06989ZM12.9109 12.0728L12.2916 9.78265C12.2448 9.77486 12.1786 9.77097 12.0929 9.77097L11.462 12.1546L10.7843 13.9307H13.6236L12.9109 12.0728ZM20.1233 13.5334L20.9762 13.5451L21.0347 11.068C21.1437 11.0446 21.2528 11.0329 21.3618 11.0329L21.7474 11.068C21.8409 11.5665 21.8876 12.0222 21.8876 12.4351C21.8876 12.8479 21.8837 13.2257 21.8759 13.5685L24.2012 13.6152C24.2168 13.6931 24.2245 13.806 24.2245 13.954L24.2012 14.3046C23.7026 14.3981 23.2586 14.4448 22.8691 14.4448C22.4874 14.4448 22.1486 14.4409 21.8526 14.4331L21.8058 17.0037C21.7279 17.0193 21.615 17.0271 21.467 17.0271L21.0931 17.0037C20.9996 16.5052 20.9529 16.0456 20.9529 15.6249C20.9529 15.1965 20.9568 14.7953 20.9645 14.4214L18.7094 14.363C18.6861 14.254 18.6744 14.1488 18.6744 14.0475L18.7094 13.6736C19.208 13.5801 19.6792 13.5334 20.1233 13.5334Z" fill="white"/>
<path d="M35 18H7V46H35V18Z" fill="white" fill-opacity="0.01"/>
<path d="M31.2083 23.8333H27.7083" stroke="white" stroke-width="2.33333" stroke-linecap="round" stroke-linejoin="round"/>
<path d="M23.0417 21.5V26.1667" stroke="white" stroke-width="2.33333" stroke-linecap="round" stroke-linejoin="round"/>
<path d="M23.0416 23.8333H10.2083" stroke="white" stroke-width="2.33333" stroke-linecap="round" stroke-linejoin="round"/>
<path d="M14.8749 32H10.2083" stroke="white" stroke-width="2.33333" stroke-linecap="round" stroke-linejoin="round"/>
<path d="M19.5417 29.6667V34.3334" stroke="white" stroke-width="2.33333" stroke-linecap="round" stroke-linejoin="round"/>
<path d="M32.3751 32H19.5417" stroke="white" stroke-width="2.33333" stroke-linecap="round" stroke-linejoin="round"/>
<path d="M31.2083 40.1667H27.7083" stroke="white" stroke-width="2.33333" stroke-linecap="round" stroke-linejoin="round"/>
<path d="M23.0417 37.8333V42.5" stroke="white" stroke-width="2.33333" stroke-linecap="round" stroke-linejoin="round"/>
<path d="M23.0416 40.1667H10.2083" stroke="white" stroke-width="2.33333" stroke-linecap="round" stroke-linejoin="round"/>
</svg>
