<svg width="57" height="65" viewBox="0 0 57 65" fill="none" xmlns="http://www.w3.org/2000/svg">
<path d="M0 8.53125C0 3.81958 3.34946 0 7.48125 0H43.8187C47.9505 0 51.3 3.81956 51.3 8.53125V29.3209C50.1879 28.509 48.9948 27.8289 47.7375 27.2998V8.53125C47.7375 6.06323 45.983 4.0625 43.8187 4.0625H7.48125C5.31699 4.0625 3.5625 6.06323 3.5625 8.53125V49.9688C3.5625 52.4368 5.31699 54.4375 7.48125 54.4375H23.9399C24.4038 55.8712 25.0002 57.2319 25.7121 58.5H7.48125C3.34948 58.5 0 54.6804 0 49.9688V8.53125Z" fill="white"/>
<path d="M5.69995 25.1875C5.69995 21.1489 8.5709 17.875 12.1125 17.875C15.654 17.875 18.5249 21.1489 18.5249 25.1875C18.5249 29.2261 15.654 32.5 12.1125 32.5C8.5709 32.5 5.69995 29.2261 5.69995 25.1875ZM12.1125 21.9375C10.5384 21.9375 9.26245 23.3925 9.26245 25.1875C9.26245 26.9825 10.5384 28.4375 12.1125 28.4375C13.6865 28.4375 14.9625 26.9825 14.9625 25.1875C14.9625 23.3925 13.6865 21.9375 12.1125 21.9375Z" fill="white"/>
<path d="M12.1125 37.375C8.5709 37.375 5.69995 40.6489 5.69995 44.6875C5.69995 48.7261 8.5709 52 12.1125 52C15.654 52 18.5249 48.7261 18.5249 44.6875C18.5249 40.6489 15.654 37.375 12.1125 37.375ZM9.26245 44.6875C9.26245 42.8925 10.5384 41.4375 12.1125 41.4375C13.6865 41.4375 14.9625 42.8925 14.9625 44.6875C14.9625 46.4825 13.6865 47.9375 12.1125 47.9375C10.5384 47.9375 9.26245 46.4825 9.26245 44.6875Z" fill="white"/>
<path d="M21.377 23.1562C21.377 22.0343 22.1745 21.125 23.1582 21.125H43.819C44.8028 21.125 45.6002 22.0343 45.6002 23.1562C45.6002 24.2782 44.8028 25.1875 43.819 25.1875H23.1582C22.1745 25.1875 21.377 24.2782 21.377 23.1562Z" fill="white"/>
<path d="M7.50024 8.27966C6.51642 8.27966 5.71899 9.18918 5.71899 10.3109C5.71899 11.4328 6.51642 12.3422 7.50024 12.3422H43.7902C44.774 12.3422 45.5714 11.4328 45.5714 10.3109C45.5714 9.18918 44.774 8.27966 43.7902 8.27966H7.50024Z" fill="white"/>
<path d="M56.9999 47.125C56.9999 56.997 49.9819 65 41.3249 65C32.6679 65 25.6499 56.997 25.6499 47.125C25.6499 37.253 32.6679 29.25 41.3249 29.25C49.9819 29.25 56.9999 37.253 56.9999 47.125ZM42.7499 35.75C42.7499 34.8525 42.1119 34.125 41.3249 34.125C40.5379 34.125 39.8999 34.8525 39.8999 35.75V45.5H31.3499C30.5629 45.5 29.9249 46.2275 29.9249 47.125C29.9249 48.0225 30.5629 48.75 31.3499 48.75H39.8999V58.5C39.8999 59.3975 40.5379 60.125 41.3249 60.125C42.1119 60.125 42.7499 59.3975 42.7499 58.5V48.75H51.2999C52.0869 48.75 52.7249 48.0225 52.7249 47.125C52.7249 46.2275 52.0869 45.5 51.2999 45.5H42.7499V35.75Z" fill="white"/>
</svg>
