<svg width="73" height="72" viewBox="0 0 73 72" fill="none" xmlns="http://www.w3.org/2000/svg">
<path d="M70.9934 61.4387L66.4539 69.7274C66.408 69.8102 66.3414 69.879 66.2611 69.9269C66.1808 69.9748 66.0896 70 65.9967 70C65.9038 70 65.8126 69.9748 65.7323 69.9269C65.652 69.879 65.5855 69.8102 65.5395 69.7274L61 61.4455V61H71V61.4455L70.9934 61.4387Z" fill="white"/>
<path d="M71 9H61V15H71V9Z" fill="#ED9180"/>
<path d="M71 3.2069V9H61V3.2069C61 2.62159 61.2218 2.06026 61.6166 1.64638C62.0114 1.23251 62.5469 1 63.1053 1H68.8947C69.4531 1 69.9886 1.23251 70.3834 1.64638C70.7782 2.06026 71 2.62159 71 3.2069V3.2069Z" fill="#ED9180"/>
<path d="M71 15H61V61H71V15Z" fill="#C64229"/>
<path d="M52 21H35.5075C35.3729 21 35.2438 20.9465 35.1486 20.8514C35.0535 20.7562 35 20.6271 35 20.4925V4L52 21Z" fill="white"/>
<path d="M53 19.5305V66.8154C53 67.66 52.6611 68.47 52.0579 69.0672C51.4547 69.6645 50.6366 70 49.7835 70H4.21649C3.36343 70 2.5453 69.6645 1.94209 69.0672C1.33888 68.47 1 67.66 1 66.8154V4.18462C1 3.34 1.33888 2.52998 1.94209 1.93275C2.5453 1.33552 3.36343 1 4.21649 1H34.2907C34.431 1.00093 34.5655 1.05562 34.666 1.1526L34.7799 1.26538V18.5154C34.7799 18.6562 34.8364 18.7912 34.9369 18.8907C35.0374 18.9902 35.1738 19.0462 35.316 19.0462H52.7386L52.8526 19.1589C52.9481 19.2595 53.0009 19.3925 53 19.5305V19.5305ZM22.4768 29.3962C22.4768 27.979 22.0523 26.5936 21.2571 25.4153C20.4619 24.2369 19.3316 23.3185 18.0092 22.7762C16.6868 22.2339 15.2317 22.092 13.8278 22.3685C12.4239 22.6449 11.1344 23.3274 10.1223 24.3295C9.11015 25.3316 8.42088 26.6083 8.14163 27.9983C7.86239 29.3882 8.00571 30.8289 8.55347 32.1382C9.10123 33.4475 10.0288 34.5666 11.219 35.354C12.4091 36.1413 13.8083 36.5615 15.2397 36.5615C17.1591 36.5615 18.9999 35.8066 20.3571 34.4628C21.7143 33.1191 22.4768 31.2965 22.4768 29.3962ZM22.4768 53.8115C22.4768 52.3944 22.0523 51.009 21.2571 49.8307C20.4619 48.6523 19.3316 47.7339 18.0092 47.1916C16.6868 46.6493 15.2317 46.5074 13.8278 46.7838C12.4239 47.0603 11.1344 47.7427 10.1223 48.7448C9.11015 49.7469 8.42088 51.0237 8.14163 52.4136C7.86239 53.8036 8.00571 55.2443 8.55347 56.5536C9.10123 57.8629 10.0288 58.982 11.219 59.7693C12.4091 60.5567 13.8083 60.9769 15.2397 60.9769C17.1591 60.9769 18.9999 60.222 20.3571 58.8782C21.7143 57.5345 22.4768 55.7119 22.4768 53.8115Z" fill="white"/>
<path d="M15.4668 24C13.7871 24.0062 12.147 24.4807 10.7535 25.3634C9.36009 26.2462 8.27579 27.4978 7.63754 28.9602C6.99928 30.4225 6.83568 32.0301 7.1674 33.5798C7.49911 35.1296 8.31127 36.5522 9.50132 37.6679C10.6914 38.7836 12.206 39.5424 13.8539 39.8485C15.5018 40.1547 17.2092 39.9945 18.7604 39.3881C20.3117 38.7816 21.6372 37.7563 22.5698 36.4414C23.5023 35.1264 24 33.581 24 32C23.9991 30.9471 23.7776 29.9046 23.348 28.9323C22.9185 27.96 22.2894 27.0771 21.4967 26.334C20.7041 25.5908 19.7635 25.0022 18.7288 24.6017C17.6941 24.2012 16.5856 23.9968 15.4668 24Z" fill="#00E224"/>
<path d="M15.4668 47C13.7871 47.0066 12.147 47.5107 10.7535 48.4487C9.36009 49.3866 8.27579 50.7164 7.63754 52.2702C6.99928 53.8239 6.83568 55.5319 7.1674 57.1786C7.49911 58.8252 8.31127 60.3367 9.50132 61.5221C10.6914 62.7075 12.206 63.5138 13.8539 63.8391C15.5018 64.1644 17.2092 63.9941 18.7604 63.3498C20.3117 62.7055 21.6372 61.616 22.5698 60.2189C23.5023 58.8218 24 57.1798 24 55.5001C23.9991 54.3813 23.7776 53.2736 23.348 52.2406C22.9185 51.2076 22.2894 50.2694 21.4967 49.4798C20.7041 48.6903 19.7635 48.0648 18.7288 47.6393C17.6941 47.2138 16.5856 46.9965 15.4668 47Z" fill="#00E224"/>
<path d="M29 30H41" stroke="#515F76" stroke-width="1.4137" stroke-miterlimit="10" stroke-linecap="round"/>
<path d="M29 35H45" stroke="#515F76" stroke-width="1.4137" stroke-miterlimit="10" stroke-linecap="round"/>
<path d="M29 53H41" stroke="#515F76" stroke-width="1.4137" stroke-miterlimit="10" stroke-linecap="round"/>
<path d="M29 58H46" stroke="#515F76" stroke-width="1.4137" stroke-miterlimit="10" stroke-linecap="round"/>
<path d="M13 32.5L15.5 35L19 31" stroke="#515F76" stroke-width="1.4137" stroke-linecap="round" stroke-linejoin="round"/>
<path d="M13 55.5L15.5 58L19 54" stroke="#515F76" stroke-width="1.4137" stroke-linecap="round" stroke-linejoin="round"/>
<path d="M72 16H69V62H72V16Z" fill="#EEB8A9"/>
<path d="M72 10H69V16H72V10Z" fill="#EEB8A9"/>
<path d="M72 16H62" stroke="#515F76" stroke-width="1.4137" stroke-miterlimit="10"/>
<path d="M69.6144 2H67C67.6032 2.02751 68.1764 2.27587 68.6145 2.69954C69.0527 3.12321 69.3265 3.6938 69.3856 4.30667V10H72V4.30667C71.9409 3.6938 71.6671 3.12321 71.2289 2.69954C70.7908 2.27587 70.2175 2.02751 69.6144 2V2Z" fill="#EEB8A9"/>
<path d="M71.9934 62.1591V62.5964L67.4539 70.7325C67.408 70.8137 67.3414 70.8813 67.2611 70.9283C67.1808 70.9752 67.0896 71 66.9967 71C66.9038 71 66.8126 70.9752 66.7323 70.9283C66.652 70.8813 66.5855 70.8137 66.5395 70.7325L62 62.603V4.12014C62 3.55785 62.2218 3.01858 62.6166 2.62098C63.0114 2.22337 63.5469 2 64.1053 2H69.8947C70.4531 2 70.9886 2.22337 71.3834 2.62098C71.7782 3.01858 72 3.55785 72 4.12014V62.1591H71.9934Z" stroke="#515F76" stroke-width="1.4137" stroke-miterlimit="10"/>
<path d="M62 10H72" stroke="#515F76" stroke-width="1.4137" stroke-miterlimit="10"/>
<path d="M72 62H62" stroke="#515F76" stroke-width="1.4137" stroke-miterlimit="10"/>
<path d="M52.9636 22.9545C53.0121 22.8156 53.0121 22.6658 52.9636 22.5269V22.3409H35.7609C35.4698 22.3347 35 22.2727 35 22V24.4793C35 24.7521 35.4698 24.814 35.7609 24.814H52.9636V25" fill="#C3C7CD"/>
<path d="M53 22H36.5075C36.3729 22 36.2438 21.9465 36.1486 21.8514C36.0535 21.7562 36 21.6271 36 21.4925V5" stroke="#515F76" stroke-width="1.4137" stroke-miterlimit="10"/>
<path d="M34.7732 1.26923L34.6593 1.15481C34.5588 1.05643 34.4243 1.00095 34.284 1H4.21649C3.36343 1 2.5453 1.34038 1.94209 1.94627C1.33888 2.55216 1 3.37392 1 4.23077V67.7692C1 68.6261 1.33888 69.4478 1.94209 70.0537C2.5453 70.6596 3.36343 71 4.21649 71H49.7835C50.6366 71 51.4547 70.6596 52.0579 70.0537C52.6611 69.4478 53 68.6261 53 67.7692V19.799C52.9991 19.6581 52.9438 19.523 52.8459 19.4221L52.7319 19.3077L34.7732 1.26923Z" stroke="#515F76" stroke-width="1.4137" stroke-miterlimit="10"/>
</svg>
