<svg width="64" height="64" viewBox="0 0 64 64" fill="none" xmlns="http://www.w3.org/2000/svg">
<path d="M53.7204 50.2884L50.6957 55.6714C50.6651 55.7251 50.6208 55.7698 50.5673 55.8009C50.5137 55.832 50.453 55.8484 50.3911 55.8484C50.3292 55.8484 50.2684 55.832 50.2149 55.8009C50.1614 55.7698 50.1171 55.7251 50.0864 55.6714L47.0618 50.2927V50.0034H53.7248V50.2927L53.7204 50.2884Z" fill="white"/>
<path d="M53.7206 15.2812H47.0576V19.4895H53.7206V15.2812Z" fill="#ED9180"/>
<path d="M53.7206 11.5988V15.281H47.0576V11.5988C47.0576 11.2268 47.2054 10.87 47.4685 10.6069C47.7315 10.3438 48.0883 10.196 48.4604 10.196H52.3179C52.6899 10.196 53.0467 10.3438 53.3098 10.6069C53.5728 10.87 53.7206 11.2268 53.7206 11.5988Z" fill="#ED9180"/>
<path d="M53.7206 19.4893H47.0576V49.9988H53.7206V19.4893Z" fill="#C64229"/>
<path d="M41.2711 22.1193H29.8739C29.7809 22.1193 29.6917 22.0823 29.6259 22.0166C29.5601 21.9508 29.5232 21.8616 29.5232 21.7686V10.3713L41.2711 22.1193Z" fill="white"/>
<path d="M41.4466 22.4393V53.681C41.4466 54.239 41.2249 54.7742 40.8303 55.1688C40.4357 55.5634 39.9006 55.7851 39.3425 55.7851H9.53429C8.97624 55.7851 8.44105 55.5634 8.04646 55.1688C7.65186 54.7742 7.43018 54.239 7.43018 53.681V12.3002C7.43018 11.7421 7.65186 11.2069 8.04646 10.8123C8.44105 10.4177 8.97624 10.196 9.53429 10.196H29.2077C29.2995 10.1967 29.3875 10.2328 29.4532 10.2969L29.5277 10.3714V21.7686C29.5277 21.8617 29.5647 21.9509 29.6304 22.0166C29.6962 22.0824 29.7854 22.1193 29.8784 22.1193H41.2757L41.3502 22.1939C41.4127 22.2603 41.4472 22.3482 41.4466 22.4393ZM21.4795 28.9577C21.4795 28.0213 21.2018 27.106 20.6816 26.3275C20.1614 25.5489 19.422 24.9421 18.557 24.5838C17.6919 24.2255 16.74 24.1317 15.8216 24.3144C14.9033 24.4971 14.0597 24.948 13.3976 25.6101C12.7355 26.2722 12.2846 27.1157 12.102 28.0341C11.9193 28.9524 12.013 29.9043 12.3714 30.7694C12.7297 31.6345 13.3365 32.3739 14.115 32.8941C14.8936 33.4143 15.8089 33.6919 16.7452 33.6919C18.0008 33.6919 19.205 33.1931 20.0929 32.3053C20.9807 31.4175 21.4795 30.2133 21.4795 28.9577ZM21.4795 45.0892C21.4795 44.1528 21.2018 43.2375 20.6816 42.459C20.1614 41.6804 19.422 41.0736 18.557 40.7153C17.6919 40.357 16.74 40.2632 15.8216 40.4459C14.9033 40.6286 14.0597 41.0795 13.3976 41.7416C12.7355 42.4037 12.2846 43.2472 12.102 44.1656C11.9193 45.0839 12.013 46.0358 12.3714 46.9009C12.7297 47.766 13.3365 48.5054 14.115 49.0256C14.8936 49.5458 15.8089 49.8234 16.7452 49.8234C18.0008 49.8234 19.205 49.3246 20.0929 48.4368C20.9807 47.549 21.4795 46.3448 21.4795 45.0892Z" fill="white"/>
<path d="M16.7233 23.347C15.6145 23.3513 14.5319 23.684 13.612 24.3032C12.6922 24.9224 11.9764 25.8002 11.5551 26.8258C11.1338 27.8515 11.0258 28.979 11.2448 30.0659C11.4637 31.1529 11.9999 32.1506 12.7854 32.9331C13.571 33.7157 14.5708 34.2479 15.6586 34.4626C16.7464 34.6773 17.8735 34.5649 18.8975 34.1396C19.9215 33.7143 20.7965 32.9951 21.4121 32.0729C22.0277 31.1507 22.3562 30.0667 22.3562 28.9579C22.3556 28.2194 22.2094 27.4882 21.9258 26.8063C21.6423 26.1244 21.227 25.5051 20.7038 24.9839C20.1805 24.4627 19.5596 24.0498 18.8766 23.7689C18.1936 23.488 17.4618 23.3446 16.7233 23.347Z" fill="#00E224"/>
<path d="M16.7233 39.4783C15.6145 39.4826 14.5319 39.8154 13.612 40.4346C12.6922 41.0537 11.9764 41.9315 11.5551 42.9572C11.1338 43.9828 11.0258 45.1103 11.2448 46.1973C11.4637 47.2842 11.9999 48.282 12.7854 49.0645C13.571 49.847 14.5708 50.3792 15.6586 50.594C16.7464 50.8087 17.8735 50.6963 18.8975 50.271C19.9215 49.8457 20.7965 49.1265 21.4121 48.2042C22.0277 47.282 22.3562 46.1981 22.3562 45.0893C22.3556 44.3507 22.2094 43.6196 21.9258 42.9377C21.6423 42.2557 21.227 41.6364 20.7038 41.1152C20.1805 40.594 19.5596 40.1812 18.8766 39.9003C18.1936 39.6194 17.4618 39.476 16.7233 39.4783Z" fill="#00E224"/>
<path d="M25.1396 27.3796H33.9068" stroke="#515F76" stroke-width="1.05205" stroke-miterlimit="10" stroke-linecap="round"/>
<path d="M25.1396 30.8867H36.3616" stroke="#515F76" stroke-width="1.05205" stroke-miterlimit="10" stroke-linecap="round"/>
<path d="M25.1396 43.1606H33.9068" stroke="#515F76" stroke-width="1.05205" stroke-miterlimit="10" stroke-linecap="round"/>
<path d="M25.1396 46.6672H37.0629" stroke="#515F76" stroke-width="1.05205" stroke-miterlimit="10" stroke-linecap="round"/>
<path d="M14.6191 28.9576L16.3726 30.711L18.8274 27.9055" stroke="#515F76" stroke-width="1.05205" stroke-linecap="round" stroke-linejoin="round"/>
<path d="M14.6191 45.0894L16.3726 46.8428L18.8274 44.0374" stroke="#515F76" stroke-width="1.05205" stroke-linecap="round" stroke-linejoin="round"/>
<path d="M53.918 19.2876H52.1646V49.9725H53.918V19.2876Z" fill="#EEB8A9"/>
<path d="M53.918 15.3425H52.1646V19.2877H53.918V15.3425Z" fill="#EEB8A9"/>
<path d="M53.7206 19.4893H47.0576" stroke="#515F76" stroke-width="1.05205" stroke-miterlimit="10"/>
<path d="M52.3179 10.082H50.5645C50.969 10.1001 51.3534 10.2634 51.6473 10.542C51.9412 10.8206 52.1248 11.1958 52.1645 11.5987V15.3423H53.9179V11.5987C53.8782 11.1958 53.6946 10.8206 53.4007 10.542C53.1069 10.2634 52.7224 10.1001 52.3179 10.082Z" fill="#EEB8A9"/>
<path d="M53.7204 49.9988V50.2881L50.6957 55.6711C50.6651 55.7249 50.6208 55.7696 50.5673 55.8007C50.5137 55.8317 50.453 55.8481 50.3911 55.8481C50.3292 55.8481 50.2684 55.8317 50.2149 55.8007C50.1614 55.7696 50.1171 55.7249 50.0864 55.6711L47.0618 50.2925V11.5988C47.0618 11.2268 47.2096 10.87 47.4726 10.6069C47.7357 10.3438 48.0925 10.196 48.4645 10.196H52.322C52.6941 10.196 53.0509 10.3438 53.3139 10.6069C53.577 10.87 53.7248 11.2268 53.7248 11.5988V49.9988H53.7204Z" stroke="#515F76" stroke-width="1.05205" stroke-miterlimit="10"/>
<path d="M47.0576 15.2812H53.7206" stroke="#515F76" stroke-width="1.05205" stroke-miterlimit="10"/>
<path d="M53.7206 49.9988H47.0576" stroke="#515F76" stroke-width="1.05205" stroke-miterlimit="10"/>
<path d="M41.2712 22.7945C41.3034 22.6962 41.3034 22.5903 41.2712 22.492V22.3605H29.874C29.6811 22.3561 29.3699 22.3123 29.3699 22.1194V23.8728C29.3699 24.0657 29.6811 24.1095 29.874 24.1095H41.2712V24.241" fill="#C3C7CD"/>
<path d="M41.2711 22.1193H29.8739C29.7809 22.1193 29.6917 22.0823 29.6259 22.0166C29.5601 21.9508 29.5232 21.8616 29.5232 21.7686V10.3713" stroke="#515F76" stroke-width="1.05205" stroke-miterlimit="10"/>
<path d="M29.5233 10.3714L29.4488 10.2969C29.3831 10.2328 29.2951 10.1967 29.2033 10.196H9.53429C8.97624 10.196 8.44105 10.4177 8.04646 10.8123C7.65186 11.2069 7.43018 11.7421 7.43018 12.3002V53.681C7.43018 54.239 7.65186 54.7742 8.04646 55.1688C8.44105 55.5634 8.97624 55.7851 9.53429 55.7851H39.3425C39.9006 55.7851 40.4357 55.5634 40.8303 55.1688C41.2249 54.7742 41.4466 54.239 41.4466 53.681V22.4393C41.446 22.3475 41.4099 22.2596 41.3458 22.1939L41.2713 22.1193L29.5233 10.3714Z" stroke="#515F76" stroke-width="1.05205" stroke-miterlimit="10"/>
<path d="M54.1897 3.64697L55.5924 5.04971" stroke="#B8B9BA" stroke-width="0.70137" stroke-miterlimit="10" stroke-linecap="round"/>
<path d="M55.5924 3.64697L54.1897 5.04971" stroke="#B8B9BA" stroke-width="0.70137" stroke-miterlimit="10" stroke-linecap="round"/>
<path d="M61.3479 7.68458C61.8321 7.68458 62.2246 7.29206 62.2246 6.80786C62.2246 6.32367 61.8321 5.93115 61.3479 5.93115C60.8637 5.93115 60.4712 6.32367 60.4712 6.80786C60.4712 7.29206 60.8637 7.68458 61.3479 7.68458Z" stroke="#B8B9BA" stroke-width="0.70137" stroke-miterlimit="10" stroke-linecap="round"/>
<path d="M58.104 12.0065C58.4913 12.0065 58.8053 11.6925 58.8053 11.3051C58.8053 10.9178 58.4913 10.6038 58.104 10.6038C57.7166 10.6038 57.4026 10.9178 57.4026 11.3051C57.4026 11.6925 57.7166 12.0065 58.104 12.0065Z" fill="#B8B9BA"/>
<path d="M58.3015 55.6711V58.3013" stroke="#B8B9BA" stroke-width="0.876712" stroke-miterlimit="10" stroke-linecap="round"/>
<path d="M59.6165 56.9863H56.9863" stroke="#B8B9BA" stroke-width="0.876712" stroke-miterlimit="10" stroke-linecap="round"/>
<path d="M3.13425 7.1099L4.15562 6.57511C4.1613 6.57174 4.16782 6.57005 4.17443 6.57022C4.18103 6.5704 4.18745 6.57243 4.19295 6.5761C4.19845 6.57976 4.2028 6.58491 4.2055 6.59093C4.2082 6.59696 4.20915 6.60363 4.20822 6.61018L4.01096 7.74552L4.88768 8.60031L3.67781 8.76689L3.13425 9.86278L2.59507 8.76689L1.45535 8.60031C1.44987 8.59728 1.4453 8.59283 1.44212 8.58744C1.43893 8.58204 1.43726 8.57589 1.43726 8.56963C1.43726 8.56336 1.43893 8.55721 1.44212 8.55182C1.4453 8.54642 1.44987 8.54198 1.45535 8.53894L2.27946 7.73237L2.05151 6.54004L3.13425 7.1099Z" fill="#ED9180"/>
<path d="M7.25459 5.04971C7.64195 5.04971 7.95596 4.7357 7.95596 4.34834C7.95596 3.96099 7.64195 3.64697 7.25459 3.64697C6.86724 3.64697 6.55322 3.96099 6.55322 4.34834C6.55322 4.7357 6.86724 5.04971 7.25459 5.04971Z" fill="#B8B9BA"/>
<path d="M53.7207 60.7035C54.108 60.7035 54.422 60.3895 54.422 60.0022C54.422 59.6148 54.108 59.3008 53.7207 59.3008C53.3333 59.3008 53.0193 59.6148 53.0193 60.0022C53.0193 60.3895 53.3333 60.7035 53.7207 60.7035Z" fill="#B8B9BA"/>
<path d="M3.30957 13.7029C3.79377 13.7029 4.18629 13.3104 4.18629 12.8262C4.18629 12.342 3.79377 11.9495 3.30957 11.9495C2.82538 11.9495 2.43286 12.342 2.43286 12.8262C2.43286 13.3104 2.82538 13.7029 3.30957 13.7029Z" stroke="#B8B9BA" stroke-width="0.70137" stroke-miterlimit="10" stroke-linecap="round"/>
</svg>
