<svg width="892" height="332" viewBox="0 0 892 332" fill="none" xmlns="http://www.w3.org/2000/svg">
<g filter="url(#filter0_b_741_429)">
<path d="M397.32 148.28V189.8C397.32 198.2 395.2 205.4 390.96 211.4C386.8 217.4 381.6 221.92 375.36 224.96C369.2 227.92 363.2 229.4 357.36 229.4C349.68 229.4 342.76 227.84 336.6 224.72C330.52 221.52 325.76 217.16 322.32 211.64C318.96 206.04 317.28 199.76 317.28 192.8V143.96L304.08 140.48L307.92 132.68H350.4V139.4L339 148.28V188.48C339 197.04 341.2 203.72 345.6 208.52C350 213.24 356.64 215.6 365.52 215.6C368.88 215.6 372.2 214.6 375.48 212.6C378.76 210.52 381.48 207.52 383.64 203.6C385.8 199.68 386.88 195.04 386.88 189.68V145.88L372.96 140.48L376.8 132.68H408.72V139.4L397.32 148.28ZM455.933 228.2C452.653 228.2 449.693 227.36 447.053 225.68V244.88L465.293 249.68L461.453 257.48H415.973V250.76L426.652 241.76V184.04L415.973 177.32V170.6L440.933 160.04L445.613 174.08L460.613 162.08C463.173 161.44 466.093 161.12 469.373 161.12C474.253 161.12 478.653 162.52 482.573 165.32C486.573 168.04 489.653 171.8 491.813 176.6C494.053 181.4 495.173 186.72 495.173 192.56C495.173 198.88 493.133 204.8 489.053 210.32C484.973 215.76 479.853 220.12 473.693 223.4C467.613 226.6 461.733 228.2 456.053 228.2H455.933ZM461.693 177.8C459.053 177.8 456.533 178.12 454.133 178.76C451.813 179.4 449.413 180.56 446.933 182.24V201.2C446.933 204.96 448.293 208.12 451.013 210.68C453.813 213.16 457.773 214.4 462.893 214.4C466.333 214.4 468.933 213.04 470.693 210.32C472.533 207.6 473.453 203.6 473.453 198.32C473.453 192.32 472.453 187.4 470.453 183.56C468.453 179.72 465.573 177.8 461.813 177.8H461.693ZM565.944 173.96C567.304 176.52 567.984 179.24 567.984 182.12C567.984 187 565.904 191.72 561.744 196.28C557.664 200.76 552.584 204.16 546.504 206.48C544.424 208.88 543.384 211.28 543.384 213.68C543.384 214.8 544.264 215.92 546.024 217.04C547.784 218.08 550.544 219.44 554.304 221.12C559.824 223.52 564.064 225.72 567.024 227.72C569.984 229.8 571.464 232.2 571.464 234.92C571.464 237.48 569.864 240.64 566.664 244.4C563.464 248.24 559.464 251.56 554.664 254.36C549.944 257.24 545.344 258.68 540.864 258.68C535.984 258.68 530.184 257.92 523.464 256.4C516.744 254.88 511.144 253.36 506.664 251.84V230.36H514.224C518.144 235.64 522.104 239.64 526.104 242.36C530.184 245.16 534.784 246.56 539.904 246.56C542.544 246.56 544.744 245.96 546.504 244.76C548.344 243.64 549.264 242.44 549.264 241.16C549.264 239.32 548.184 237.68 546.024 236.24C543.944 234.88 540.704 233.2 536.304 231.2C531.584 229.12 528.024 227.28 525.624 225.68C523.224 224 522.024 222.08 522.024 219.92C522.024 218 523.464 216.04 526.344 214.04C529.304 212.04 532.824 210.28 536.904 208.76C535.304 208.92 534.104 209 533.304 209C528.424 209 523.944 208.04 519.864 206.12C515.864 204.2 512.704 201.64 510.384 198.44C508.064 195.16 506.904 191.68 506.904 188C506.904 183.44 508.584 179.08 511.944 174.92C515.304 170.76 519.664 167.44 525.024 164.96C530.384 162.4 535.864 161.12 541.464 161.12C547.864 161.12 553.504 162.72 558.384 165.92H578.184L578.304 173.96H565.944ZM540.384 195.32C542.944 195.32 544.904 194.72 546.264 193.52C547.704 192.24 548.424 190.36 548.424 187.88C548.424 183.96 547.144 180.88 544.584 178.64C542.104 176.32 538.784 175.16 534.624 175.16C529.344 175.16 526.704 177.52 526.704 182.24C526.704 186.08 527.944 189.24 530.424 191.72C532.984 194.12 536.304 195.32 540.384 195.32ZM623.622 178.16C620.742 178.16 617.862 179.44 614.982 182V214.4L633.222 219.2L629.382 227H583.902V220.28L594.582 211.28V184.04L583.902 177.32V170.6L608.862 160.04L613.422 173.36L624.342 162.08C626.022 161.44 627.982 161.12 630.222 161.12C634.382 161.12 637.942 162.08 640.902 164C643.942 165.92 646.062 168.56 647.262 171.92L635.742 186.32H628.182C628.102 183.44 627.702 181.4 626.982 180.2C626.262 178.92 625.142 178.28 623.622 178.28V178.16ZM719.47 227H692.11V216.56L678.55 227.24C676.95 227.88 674.95 228.2 672.55 228.2C664.87 228.2 659.31 226.32 655.87 222.56C652.51 218.8 650.83 214.28 650.83 209C650.83 205.88 651.79 202.84 653.71 199.88C655.63 196.84 658.39 194.04 661.99 191.48H692.11V189.44C692.11 185.04 690.91 181.8 688.51 179.72C686.11 177.64 682.91 176.6 678.91 176.6C673.31 176.6 665.99 178.8 656.95 183.2L653.35 176.36L670.03 162.92C674.11 161.72 678.87 161.12 684.31 161.12C693.27 161.12 700.19 163.16 705.07 167.24C710.03 171.32 712.51 177.24 712.51 185V215L723.31 219.2L719.47 227ZM678.67 212.12C682.75 212.12 687.23 210.44 692.11 207.08V199.4H672.79C672.15 200.36 671.67 201.28 671.35 202.16C671.11 202.96 670.99 203.88 670.99 204.92C670.99 206.92 671.67 208.6 673.03 209.96C674.47 211.32 676.35 212 678.67 212V212.12ZM806.372 227H779.132V218.12L767.612 227.24C765.052 227.88 762.092 228.2 758.732 228.2C753.452 228.2 748.692 226.84 744.452 224.12C740.292 221.32 737.012 217.52 734.612 212.72C732.292 207.92 731.132 202.6 731.132 196.76C731.132 190.44 733.172 184.56 737.252 179.12C741.332 173.6 746.412 169.24 752.492 166.04C758.652 162.76 764.572 161.12 770.252 161.12C773.452 161.12 776.412 161.92 779.132 163.52V145.64L768.452 138.56V131.84L791.972 122.24H799.532V215.6L810.332 219.2L806.372 227ZM766.052 212.12C770.772 212.12 775.132 210.96 779.132 208.64V185.72C778.652 182.6 777.052 180.04 774.332 178.04C771.612 176.04 767.932 175.04 763.292 175.04C756.252 175.04 752.732 180.4 752.732 191.12C752.732 197.2 753.852 202.24 756.092 206.24C758.412 210.16 761.732 212.12 766.052 212.12ZM857.908 161.12C866.308 161.12 872.788 164.32 877.348 170.72C881.988 177.12 884.228 186 884.068 197.36H840.868C841.668 202.24 843.388 206.16 846.028 209.12C848.668 212 852.108 213.44 856.348 213.44C861.948 213.44 869.988 210.64 880.468 205.04L884.068 211.88L865.828 226.4C861.108 227.6 855.628 228.2 849.388 228.2C843.548 228.2 838.268 226.84 833.548 224.12C828.908 221.32 825.268 217.52 822.628 212.72C820.068 207.92 818.788 202.6 818.788 196.76C818.788 190.44 820.828 184.56 824.908 179.12C828.988 173.6 834.068 169.24 840.148 166.04C846.308 162.76 852.228 161.12 857.908 161.12ZM851.308 175.04C847.788 175.04 845.148 176.24 843.388 178.64C841.628 180.96 840.668 184.56 840.508 189.44H863.428C862.788 184.48 861.588 180.84 859.828 178.52C858.148 176.2 855.268 175.04 851.188 175.04H851.308Z" fill="url(#paint0_linear_741_429)"/>
<path d="M397.32 148.28L396.091 146.702L395.32 147.303V148.28H397.32ZM390.96 211.4L389.327 210.246L389.322 210.253L389.316 210.26L390.96 211.4ZM375.36 224.96L376.226 226.763L376.236 226.758L375.36 224.96ZM336.6 224.72L335.669 226.49L335.682 226.497L335.696 226.504L336.6 224.72ZM322.32 211.64L320.605 212.669L320.614 212.683L320.623 212.698L322.32 211.64ZM317.28 143.96H319.28V142.419L317.79 142.026L317.28 143.96ZM304.08 140.48L302.286 139.597L301.206 141.791L303.57 142.414L304.08 140.48ZM307.92 132.68V130.68H306.675L306.126 131.797L307.92 132.68ZM350.4 132.68H352.4V130.68H350.4V132.68ZM350.4 139.4L351.629 140.978L352.4 140.377V139.4H350.4ZM339 148.28L337.771 146.702L337 147.303V148.28H339ZM345.6 208.52L344.126 209.871L344.131 209.878L344.137 209.884L345.6 208.52ZM375.48 212.6L376.521 214.308L376.536 214.298L376.551 214.289L375.48 212.6ZM383.64 203.6L385.392 204.565L383.64 203.6ZM386.88 145.88H388.88V144.511L387.603 144.015L386.88 145.88ZM372.96 140.48L371.166 139.597L370.201 141.555L372.237 142.345L372.96 140.48ZM376.8 132.68V130.68H375.555L375.006 131.797L376.8 132.68ZM408.72 132.68H410.72V130.68H408.72V132.68ZM408.72 139.4L409.949 140.978L410.72 140.377V139.4H408.72ZM395.32 148.28V189.8H399.32V148.28H395.32ZM395.32 189.8C395.32 197.848 393.295 204.63 389.327 210.246L392.593 212.554C397.105 206.17 399.32 198.552 399.32 189.8H395.32ZM389.316 210.26C385.341 215.994 380.4 220.28 374.484 223.162L376.236 226.758C382.8 223.56 388.259 218.806 392.604 212.54L389.316 210.26ZM374.494 223.157C368.558 226.009 362.853 227.4 357.36 227.4V231.4C363.547 231.4 369.842 229.831 376.226 226.763L374.494 223.157ZM357.36 227.4C349.958 227.4 343.353 225.899 337.504 222.936L335.696 226.504C342.167 229.781 349.402 231.4 357.36 231.4V227.4ZM337.531 222.95C331.747 219.906 327.259 215.784 324.017 210.582L320.623 212.698C324.261 218.536 329.293 223.134 335.669 226.49L337.531 222.95ZM324.035 210.611C320.874 205.342 319.28 199.422 319.28 192.8H315.28C315.28 200.098 317.046 206.738 320.605 212.669L324.035 210.611ZM319.28 192.8V143.96H315.28V192.8H319.28ZM317.79 142.026L304.59 138.546L303.57 142.414L316.77 145.894L317.79 142.026ZM305.874 141.363L309.714 133.563L306.126 131.797L302.286 139.597L305.874 141.363ZM307.92 134.68H350.4V130.68H307.92V134.68ZM348.4 132.68V139.4H352.4V132.68H348.4ZM349.171 137.822L337.771 146.702L340.229 149.858L351.629 140.978L349.171 137.822ZM337 148.28V188.48H341V148.28H337ZM337 188.48C337 197.379 339.292 204.599 344.126 209.871L347.074 207.169C343.108 202.841 341 196.701 341 188.48H337ZM344.137 209.884C349.041 215.144 356.301 217.6 365.52 217.6V213.6C356.979 213.6 350.959 211.336 347.063 207.156L344.137 209.884ZM365.52 217.6C369.298 217.6 372.973 216.471 376.521 214.308L374.439 210.892C371.427 212.729 368.462 213.6 365.52 213.6V217.6ZM376.551 214.289C380.156 212.003 383.094 208.735 385.392 204.565L381.888 202.635C379.866 206.305 377.364 209.037 374.409 210.911L376.551 214.289ZM385.392 204.565C387.744 200.296 388.88 195.311 388.88 189.68H384.88C384.88 194.769 383.856 199.064 381.888 202.635L385.392 204.565ZM388.88 189.68V145.88H384.88V189.68H388.88ZM387.603 144.015L373.683 138.615L372.237 142.345L386.157 147.745L387.603 144.015ZM374.754 141.363L378.594 133.563L375.006 131.797L371.166 139.597L374.754 141.363ZM376.8 134.68H408.72V130.68H376.8V134.68ZM406.72 132.68V139.4H410.72V132.68H406.72ZM407.491 137.822L396.091 146.702L398.549 149.858L409.949 140.978L407.491 137.822ZM447.053 225.68L448.126 223.993L445.053 222.037V225.68H447.053ZM447.053 244.88H445.053V246.422L446.544 246.814L447.053 244.88ZM465.292 249.68L467.087 250.563L468.167 248.368L465.801 247.746L465.292 249.68ZM461.452 257.48V259.48H462.697L463.247 258.363L461.452 257.48ZM415.973 257.48H413.973V259.48H415.973V257.48ZM415.973 250.76L414.684 249.231L413.973 249.83V250.76H415.973ZM426.652 241.76L427.941 243.289L428.652 242.69V241.76H426.652ZM426.652 184.04H428.652V182.935L427.718 182.347L426.652 184.04ZM415.973 177.32H413.973V178.425L414.907 179.013L415.973 177.32ZM415.973 170.6L415.193 168.758L413.973 169.275V170.6H415.973ZM440.932 160.04L442.83 159.408L442.146 157.355L440.153 158.198L440.932 160.04ZM445.613 174.08L443.715 174.712L444.622 177.434L446.862 175.642L445.613 174.08ZM460.613 162.08L460.127 160.14L459.704 160.246L459.363 160.518L460.613 162.08ZM482.573 165.32L481.41 166.947L481.429 166.961L481.448 166.974L482.573 165.32ZM491.812 176.6L489.989 177.421L489.994 177.433L490 177.446L491.812 176.6ZM489.053 210.32L490.653 211.52L490.661 211.509L489.053 210.32ZM473.693 223.4L474.624 225.17L474.632 225.165L473.693 223.4ZM454.133 178.76L453.617 176.828L453.609 176.83L453.601 176.832L454.133 178.76ZM446.933 182.24L445.811 180.584L444.933 181.179V182.24H446.933ZM451.012 210.68L449.642 212.136L449.664 212.157L449.686 212.177L451.012 210.68ZM470.693 210.32L469.036 209.199L469.024 209.216L469.013 209.233L470.693 210.32ZM470.452 183.56L468.679 184.484H468.679L470.452 183.56ZM455.932 226.2C453.014 226.2 450.429 225.458 448.126 223.993L445.979 227.367C448.956 229.262 452.291 230.2 455.932 230.2V226.2ZM445.053 225.68V244.88H449.053V225.68H445.053ZM446.544 246.814L464.784 251.614L465.801 247.746L447.561 242.946L446.544 246.814ZM463.498 248.797L459.658 256.597L463.247 258.363L467.087 250.563L463.498 248.797ZM461.452 255.48H415.973V259.48H461.452V255.48ZM417.973 257.48V250.76H413.973V257.48H417.973ZM417.261 252.289L427.941 243.289L425.364 240.231L414.684 249.231L417.261 252.289ZM428.652 241.76V184.04H424.652V241.76H428.652ZM427.718 182.347L417.038 175.627L414.907 179.013L425.587 185.733L427.718 182.347ZM417.973 177.32V170.6H413.973V177.32H417.973ZM416.752 172.442L441.712 161.882L440.153 158.198L415.193 168.758L416.752 172.442ZM439.035 160.672L443.715 174.712L447.51 173.448L442.83 159.408L439.035 160.672ZM446.862 175.642L461.862 163.642L459.363 160.518L444.363 172.518L446.862 175.642ZM461.098 164.02C463.466 163.428 466.218 163.12 469.372 163.12V159.12C465.967 159.12 462.879 159.452 460.127 160.14L461.098 164.02ZM469.372 163.12C473.841 163.12 477.834 164.393 481.41 166.947L483.735 163.693C479.471 160.647 474.664 159.12 469.372 159.12V163.12ZM481.448 166.974C485.116 169.468 487.966 172.927 489.989 177.421L493.636 175.779C491.339 170.673 488.029 166.612 483.697 163.666L481.448 166.974ZM490 177.446C492.104 181.955 493.173 186.982 493.173 192.56H497.173C497.173 186.458 496.001 180.845 493.625 175.754L490 177.446ZM493.173 192.56C493.173 198.415 491.293 203.924 487.444 209.131L490.661 211.509C494.972 205.676 497.173 199.345 497.173 192.56H493.173ZM487.452 209.12C483.553 214.319 478.661 218.489 472.753 221.635L474.632 225.165C481.044 221.751 486.392 217.201 490.652 211.52L487.452 209.12ZM472.761 221.63C466.909 224.71 461.347 226.2 456.053 226.2V230.2C462.118 230.2 468.316 228.49 474.624 225.17L472.761 221.63ZM456.053 226.2H455.932V230.2H456.053V226.2ZM461.693 175.8C458.889 175.8 456.195 176.14 453.617 176.828L454.648 180.692C456.87 180.1 459.216 179.8 461.693 179.8V175.8ZM453.601 176.832C451.026 177.542 448.429 178.811 445.811 180.584L448.054 183.896C450.396 182.309 452.599 181.258 454.664 180.688L453.601 176.832ZM444.933 182.24V201.2H448.933V182.24H444.933ZM444.933 201.2C444.933 205.507 446.517 209.196 449.642 212.136L452.383 209.224C450.068 207.044 448.933 204.413 448.933 201.2H444.933ZM449.686 212.177C452.968 215.084 457.465 216.4 462.893 216.4V212.4C458.08 212.4 454.657 211.236 452.339 209.183L449.686 212.177ZM462.893 216.4C466.961 216.4 470.217 214.737 472.372 211.406L469.013 209.233C467.648 211.343 465.704 212.4 462.893 212.4V216.4ZM472.349 211.441C474.511 208.244 475.452 203.778 475.452 198.32H471.452C471.452 203.422 470.554 206.956 469.036 209.199L472.349 211.441ZM475.452 198.32C475.452 192.116 474.421 186.85 472.226 182.636L468.679 184.484C470.484 187.95 471.452 192.524 471.452 198.32H475.452ZM472.226 182.636C471.109 180.491 469.684 178.764 467.902 177.576C466.105 176.378 464.052 175.8 461.812 175.8V179.8C463.333 179.8 464.6 180.182 465.683 180.904C466.781 181.636 467.796 182.789 468.679 184.484L472.226 182.636ZM461.812 175.8H461.693V179.8H461.812V175.8ZM565.944 173.96V171.96H562.617L564.178 174.898L565.944 173.96ZM561.744 196.28L560.267 194.932L560.266 194.933L561.744 196.28ZM546.504 206.48L545.791 204.611L545.322 204.791L544.993 205.17L546.504 206.48ZM546.024 217.04L544.951 218.727L544.978 218.745L545.007 218.762L546.024 217.04ZM554.304 221.12L553.488 222.946L553.498 222.95L553.507 222.954L554.304 221.12ZM567.024 227.72L568.174 226.084L568.159 226.073L568.144 226.063L567.024 227.72ZM566.664 244.4L565.141 243.104L565.135 243.112L565.128 243.12L566.664 244.4ZM554.664 254.36L553.657 252.632L553.64 252.642L553.623 252.653L554.664 254.36ZM523.464 256.4L523.023 258.351L523.464 256.4ZM506.664 251.84H504.664V253.273L506.022 253.734L506.664 251.84ZM506.664 230.36V228.36H504.664V230.36H506.664ZM514.224 230.36L515.83 229.168L515.23 228.36H514.224V230.36ZM526.104 242.36L527.236 240.711L527.229 240.706L526.104 242.36ZM546.504 244.76L545.464 243.052L545.42 243.078L545.378 243.108L546.504 244.76ZM546.024 236.24L547.134 234.576L547.126 234.571L547.119 234.566L546.024 236.24ZM536.304 231.2L537.132 229.379L537.121 229.374L537.111 229.37L536.304 231.2ZM525.624 225.68L524.477 227.318L524.496 227.331L524.515 227.344L525.624 225.68ZM526.344 214.04L525.225 212.383L525.214 212.39L525.204 212.397L526.344 214.04ZM536.904 208.76L537.603 210.634L536.705 206.77L536.904 208.76ZM519.864 206.12L518.999 207.923L519.006 207.926L519.013 207.93L519.864 206.12ZM510.384 198.44L508.752 199.595L508.758 199.604L508.765 199.614L510.384 198.44ZM511.944 174.92L513.5 176.177L511.944 174.92ZM525.024 164.96L525.864 166.775L525.875 166.77L525.886 166.765L525.024 164.96ZM558.384 165.92L557.288 167.592L557.787 167.92H558.384V165.92ZM578.184 165.92L580.184 165.89L580.155 163.92H578.184V165.92ZM578.304 173.96V175.96H580.334L580.304 173.93L578.304 173.96ZM546.264 193.52L547.588 195.02L547.593 195.015L546.264 193.52ZM544.584 178.64L543.218 180.101L543.242 180.123L543.267 180.145L544.584 178.64ZM530.424 191.72L529.01 193.134L529.033 193.157L529.056 193.179L530.424 191.72ZM564.178 174.898C565.386 177.171 565.984 179.569 565.984 182.12H569.984C569.984 178.911 569.223 175.869 567.711 173.022L564.178 174.898ZM565.984 182.12C565.984 186.379 564.183 190.639 560.267 194.932L563.222 197.628C567.626 192.801 569.984 187.621 569.984 182.12H565.984ZM560.266 194.933C556.412 199.165 551.601 202.395 545.791 204.611L547.217 208.349C553.568 205.925 558.917 202.355 563.223 197.627L560.266 194.933ZM544.993 205.17C542.701 207.815 541.384 210.662 541.384 213.68H545.384C545.384 211.898 546.148 209.945 548.016 207.79L544.993 205.17ZM541.384 213.68C541.384 215.906 543.095 217.547 544.951 218.727L547.098 215.353C545.433 214.293 545.384 213.694 545.384 213.68H541.384ZM545.007 218.762C546.869 219.862 549.714 221.259 553.488 222.946L555.12 219.294C551.375 217.621 548.7 216.298 547.042 215.318L545.007 218.762ZM553.507 222.954C558.979 225.334 563.092 227.477 565.905 229.377L568.144 226.063C565.037 223.963 560.669 221.706 555.102 219.286L553.507 222.954ZM565.874 229.356C568.495 231.198 569.464 233.056 569.464 234.92H573.464C573.464 231.344 571.474 228.402 568.174 226.084L565.874 229.356ZM569.464 234.92C569.464 236.728 568.281 239.415 565.141 243.104L568.187 245.696C571.448 241.865 573.464 238.232 573.464 234.92H569.464ZM565.128 243.12C562.093 246.762 558.278 249.937 553.657 252.632L555.672 256.088C560.651 253.183 564.836 249.718 568.201 245.68L565.128 243.12ZM553.623 252.653C549.143 255.386 544.9 256.68 540.864 256.68V260.68C545.789 260.68 550.746 259.094 555.706 256.067L553.623 252.653ZM540.864 256.68C536.18 256.68 530.535 255.949 523.906 254.449L523.023 258.351C529.834 259.891 535.789 260.68 540.864 260.68V256.68ZM523.906 254.449C517.226 252.938 511.699 251.436 507.307 249.946L506.022 253.734C510.59 255.284 516.263 256.822 523.023 258.351L523.906 254.449ZM508.664 251.84V230.36H504.664V251.84H508.664ZM506.664 232.36H514.224V228.36H506.664V232.36ZM512.619 231.552C516.627 236.952 520.741 241.132 524.98 244.014L527.229 240.706C523.467 238.148 519.661 234.328 515.83 229.168L512.619 231.552ZM524.973 244.009C529.398 247.046 534.395 248.56 539.904 248.56V244.56C535.174 244.56 530.971 243.274 527.236 240.711L524.973 244.009ZM539.904 248.56C542.849 248.56 545.467 247.888 547.631 246.412L545.378 243.108C544.022 244.032 542.239 244.56 539.904 244.56V248.56ZM547.544 246.468C549.564 245.239 551.264 243.516 551.264 241.16H547.264C547.264 241.364 547.125 242.041 545.464 243.052L547.544 246.468ZM551.264 241.16C551.264 238.4 549.602 236.221 547.134 234.576L544.915 237.904C546.767 239.139 547.264 240.24 547.264 241.16H551.264ZM547.119 234.566C544.908 233.12 541.555 231.39 537.132 229.379L535.477 233.021C539.853 235.01 542.981 236.64 544.93 237.914L547.119 234.566ZM537.111 229.37C532.428 227.306 528.991 225.521 526.734 224.016L524.515 227.344C527.058 229.039 530.741 230.934 535.498 233.03L537.111 229.37ZM526.771 224.042C524.698 222.59 524.024 221.209 524.024 219.92H520.024C520.024 222.951 521.751 225.41 524.477 227.318L526.771 224.042ZM524.024 219.92C524.024 219.044 524.715 217.606 527.485 215.683L525.204 212.397C522.213 214.474 520.024 216.956 520.024 219.92H524.024ZM527.464 215.697C530.268 213.803 533.64 212.11 537.603 210.634L536.206 206.886C532.009 208.45 528.341 210.277 525.225 212.383L527.464 215.697ZM536.705 206.77C535.12 206.928 534.001 207 533.304 207V211C534.208 211 535.489 210.911 537.103 210.75L536.705 206.77ZM533.304 207C528.694 207 524.508 206.095 520.716 204.31L519.013 207.93C523.381 209.985 528.155 211 533.304 211V207ZM520.73 204.317C516.992 202.523 514.106 200.165 512.004 197.266L508.765 199.614C511.303 203.115 514.737 205.877 518.999 207.923L520.73 204.317ZM512.017 197.285C509.913 194.31 508.904 191.228 508.904 188H504.904C504.904 192.132 506.216 196.01 508.752 199.595L512.017 197.285ZM508.904 188C508.904 183.974 510.376 180.045 513.5 176.177L510.388 173.663C506.793 178.115 504.904 182.906 504.904 188H508.904ZM513.5 176.177C516.648 172.279 520.753 169.14 525.864 166.775L524.185 163.145C518.576 165.74 513.961 169.241 510.388 173.663L513.5 176.177ZM525.886 166.765C530.994 164.325 536.181 163.12 541.464 163.12V159.12C535.548 159.12 529.775 160.475 524.162 163.155L525.886 166.765ZM541.464 163.12C547.514 163.12 552.765 164.627 557.288 167.592L559.481 164.248C554.244 160.813 548.215 159.12 541.464 159.12V163.12ZM558.384 167.92H578.184V163.92H558.384V167.92ZM576.185 165.95L576.305 173.99L580.304 173.93L580.184 165.89L576.185 165.95ZM578.304 171.96H565.944V175.96H578.304V171.96ZM540.384 197.32C543.232 197.32 545.736 196.653 547.588 195.02L544.941 192.02C544.072 192.787 542.656 193.32 540.384 193.32V197.32ZM547.593 195.015C549.575 193.253 550.424 190.756 550.424 187.88H546.424C546.424 189.964 545.833 191.227 544.936 192.025L547.593 195.015ZM550.424 187.88C550.424 183.481 548.964 179.814 545.901 177.135L543.267 180.145C545.325 181.946 546.424 184.439 546.424 187.88H550.424ZM545.951 177.179C543.021 174.439 539.172 173.16 534.624 173.16V177.16C538.397 177.16 541.188 178.201 543.218 180.101L545.951 177.179ZM534.624 173.16C531.728 173.16 529.182 173.802 527.351 175.439C525.478 177.114 524.704 179.51 524.704 182.24H528.704C528.704 180.25 529.251 179.106 530.017 178.421C530.827 177.698 532.241 177.16 534.624 177.16V173.16ZM524.704 182.24C524.704 186.555 526.118 190.242 529.01 193.134L531.839 190.306C529.771 188.238 528.704 185.605 528.704 182.24H524.704ZM529.056 193.179C532.047 195.983 535.885 197.32 540.384 197.32V193.32C536.724 193.32 533.922 192.257 531.792 190.261L529.056 193.179ZM623.622 178.16H625.622V176.16H623.622V178.16ZM614.982 182L613.653 180.505L612.982 181.102V182H614.982ZM614.982 214.4H612.982V215.942L614.473 216.334L614.982 214.4ZM633.222 219.2L635.017 220.083L636.097 217.888L633.731 217.266L633.222 219.2ZM629.382 227V229H630.627L631.177 227.883L629.382 227ZM583.902 227H581.902V229H583.902V227ZM583.902 220.28L582.613 218.751L581.902 219.35V220.28H583.902ZM594.582 211.28L595.871 212.809L596.582 212.21V211.28H594.582ZM594.582 184.04H596.582V182.935L595.647 182.347L594.582 184.04ZM583.902 177.32H581.902V178.425L582.837 179.013L583.902 177.32ZM583.902 170.6L583.123 168.758L581.902 169.275V170.6H583.902ZM608.862 160.04L610.754 159.392L610.059 157.362L608.083 158.198L608.862 160.04ZM613.422 173.36L611.53 174.008L612.588 177.097L614.859 174.751L613.422 173.36ZM624.342 162.08L623.63 160.211L623.215 160.369L622.905 160.689L624.342 162.08ZM640.902 164L639.814 165.678L639.824 165.685L639.834 165.691L640.902 164ZM647.262 171.92L648.824 173.169L649.521 172.298L649.146 171.247L647.262 171.92ZM635.742 186.32V188.32H636.703L637.304 187.569L635.742 186.32ZM628.182 186.32L626.183 186.376L626.237 188.32H628.182V186.32ZM626.982 180.2L625.239 181.181L625.253 181.205L625.267 181.229L626.982 180.2ZM623.622 178.28H621.622V180.28H623.622V178.28ZM623.622 176.16C620.107 176.16 616.774 177.731 613.653 180.505L616.311 183.495C618.95 181.149 621.377 180.16 623.622 180.16V176.16ZM612.982 182V214.4H616.982V182H612.982ZM614.473 216.334L632.713 221.134L633.731 217.266L615.491 212.466L614.473 216.334ZM631.428 218.317L627.588 226.117L631.177 227.883L635.017 220.083L631.428 218.317ZM629.382 225H583.902V229H629.382V225ZM585.902 227V220.28H581.902V227H585.902ZM585.191 221.809L595.871 212.809L593.293 209.751L582.613 218.751L585.191 221.809ZM596.582 211.28V184.04H592.582V211.28H596.582ZM595.647 182.347L584.967 175.627L582.837 179.013L593.517 185.733L595.647 182.347ZM585.902 177.32V170.6H581.902V177.32H585.902ZM584.681 172.442L609.641 161.882L608.083 158.198L583.123 168.758L584.681 172.442ZM606.97 160.688L611.53 174.008L615.314 172.712L610.754 159.392L606.97 160.688ZM614.859 174.751L625.779 163.471L622.905 160.689L611.985 171.969L614.859 174.751ZM625.054 163.949C626.459 163.414 628.168 163.12 630.222 163.12V159.12C627.797 159.12 625.586 159.466 623.63 160.211L625.054 163.949ZM630.222 163.12C634.066 163.12 637.232 164.003 639.814 165.678L641.991 162.322C638.652 160.157 634.698 159.12 630.222 159.12V163.12ZM639.834 165.691C642.499 167.374 644.33 169.657 645.379 172.593L649.146 171.247C647.794 167.463 645.385 164.466 641.97 162.309L639.834 165.691ZM645.7 170.671L634.18 185.071L637.304 187.569L648.824 173.169L645.7 170.671ZM635.742 184.32H628.182V188.32H635.742V184.32ZM630.181 186.264C630.1 183.333 629.7 180.842 628.697 179.171L625.267 181.229C625.704 181.958 626.104 183.547 626.183 186.376L630.181 186.264ZM628.725 179.219C627.636 177.283 625.833 176.28 623.622 176.28V180.28C624.451 180.28 624.888 180.557 625.239 181.181L628.725 179.219ZM625.622 178.28V178.16H621.622V178.28H625.622ZM719.47 227V229H720.715L721.265 227.883L719.47 227ZM692.11 227H690.11V229H692.11V227ZM692.11 216.56H694.11V212.439L690.873 214.989L692.11 216.56ZM678.55 227.24L679.293 229.097L679.561 228.99L679.788 228.811L678.55 227.24ZM655.87 222.56L654.379 223.893L654.387 223.901L654.395 223.91L655.87 222.56ZM653.71 199.88L655.388 200.968L655.395 200.958L655.401 200.948L653.71 199.88ZM661.99 191.48V189.48H661.352L660.831 189.85L661.99 191.48ZM692.11 191.48V193.48H694.11V191.48H692.11ZM656.95 183.2L655.18 184.131L656.083 185.846L657.826 184.998L656.95 183.2ZM653.35 176.36L652.095 174.803L650.814 175.835L651.58 177.291L653.35 176.36ZM670.03 162.92L669.466 161.001L669.085 161.113L668.775 161.363L670.03 162.92ZM705.07 167.24L703.787 168.774L703.794 168.779L703.8 168.785L705.07 167.24ZM712.51 215H710.51V216.368L711.785 216.864L712.51 215ZM723.31 219.2L725.105 220.083L726.068 218.127L724.035 217.336L723.31 219.2ZM678.67 212.12H676.67V214.12H678.67V212.12ZM692.11 207.08L693.245 208.727L694.11 208.131V207.08H692.11ZM692.11 199.4H694.11V197.4H692.11V199.4ZM672.79 199.4V197.4H671.72L671.126 198.291L672.79 199.4ZM671.35 202.16L669.471 201.477L669.451 201.53L669.435 201.585L671.35 202.16ZM673.03 209.96L671.616 211.374L671.636 211.394L671.657 211.414L673.03 209.96ZM678.67 212H680.67V210H678.67V212ZM719.47 225H692.11V229H719.47V225ZM694.11 227V216.56H690.11V227H694.11ZM690.873 214.989L677.313 225.669L679.788 228.811L693.348 218.131L690.873 214.989ZM677.808 225.383C676.517 225.899 674.789 226.2 672.55 226.2V230.2C675.112 230.2 677.384 229.861 679.293 229.097L677.808 225.383ZM672.55 226.2C665.147 226.2 660.25 224.384 657.346 221.21L654.395 223.91C658.37 228.256 664.594 230.2 672.55 230.2V226.2ZM657.362 221.227C654.346 217.852 652.83 213.814 652.83 209H648.83C648.83 214.746 650.675 219.748 654.379 223.893L657.362 221.227ZM652.83 209C652.83 206.315 653.65 203.648 655.388 200.968L652.032 198.792C649.931 202.032 648.83 205.445 648.83 209H652.83ZM655.401 200.948C657.154 198.172 659.714 195.552 663.149 193.11L660.831 189.85C657.066 192.528 654.106 195.508 652.019 198.812L655.401 200.948ZM661.99 193.48H692.11V189.48H661.99V193.48ZM694.11 191.48V189.44H690.11V191.48H694.11ZM694.11 189.44C694.11 184.693 692.808 180.798 689.82 178.209L687.2 181.231C689.012 182.802 690.11 185.387 690.11 189.44H694.11ZM689.82 178.209C686.97 175.738 683.263 174.6 678.91 174.6V178.6C682.558 178.6 685.251 179.542 687.2 181.231L689.82 178.209ZM678.91 174.6C672.853 174.6 665.204 176.958 656.075 181.402L657.826 184.998C666.777 180.642 673.767 178.6 678.91 178.6V174.6ZM658.72 182.269L655.12 175.428L651.58 177.291L655.18 184.131L658.72 182.269ZM654.605 177.917L671.285 164.477L668.775 161.363L652.095 174.803L654.605 177.917ZM670.595 164.839C674.449 163.705 679.011 163.12 684.31 163.12V159.12C678.73 159.12 673.772 159.735 669.466 161.001L670.595 164.839ZM684.31 163.12C692.99 163.12 699.39 165.098 703.787 168.774L706.353 165.706C700.991 161.222 693.55 159.12 684.31 159.12V163.12ZM703.8 168.785C708.201 172.405 710.51 177.701 710.51 185H714.51C714.51 176.779 711.859 170.235 706.341 165.695L703.8 168.785ZM710.51 185V215H714.51V185H710.51ZM711.785 216.864L722.585 221.064L724.035 217.336L713.235 213.136L711.785 216.864ZM721.516 218.317L717.676 226.117L721.265 227.883L725.105 220.083L721.516 218.317ZM678.67 214.12C683.301 214.12 688.175 212.218 693.245 208.727L690.976 205.433C686.286 208.662 682.2 210.12 678.67 210.12V214.12ZM694.11 207.08V199.4H690.11V207.08H694.11ZM692.11 197.4H672.79V201.4H692.11V197.4ZM671.126 198.291C670.417 199.354 669.856 200.417 669.471 201.477L673.23 202.843C673.484 202.143 673.883 201.366 674.454 200.509L671.126 198.291ZM669.435 201.585C669.127 202.611 668.99 203.731 668.99 204.92H672.99C672.99 204.029 673.094 203.309 673.266 202.735L669.435 201.585ZM668.99 204.92C668.99 207.427 669.865 209.623 671.616 211.374L674.445 208.546C673.476 207.577 672.99 206.413 672.99 204.92H668.99ZM671.657 211.414C673.531 213.184 675.933 214 678.67 214V210C676.767 210 675.409 209.456 674.404 208.506L671.657 211.414ZM676.67 212V212.12H680.67V212H676.67ZM806.372 227V229H807.599L808.155 227.905L806.372 227ZM779.132 227H777.132V229H779.132V227ZM779.132 218.12H781.132V213.986L777.89 216.552L779.132 218.12ZM767.612 227.24L768.097 229.18L768.515 229.076L768.853 228.808L767.612 227.24ZM744.452 224.12L743.335 225.779L743.353 225.791L743.372 225.803L744.452 224.12ZM734.612 212.72L732.811 213.59L732.817 213.602L732.823 213.614L734.612 212.72ZM737.252 179.12L738.852 180.32L738.86 180.309L737.252 179.12ZM752.492 166.04L753.423 167.81L753.432 167.805L752.492 166.04ZM779.132 163.52L778.118 165.244L781.132 167.017V163.52H779.132ZM779.132 145.64H781.132V144.566L780.237 143.973L779.132 145.64ZM768.452 138.56H766.452V139.634L767.347 140.227L768.452 138.56ZM768.452 131.84L767.696 129.988L766.452 130.496V131.84H768.452ZM791.972 122.24V120.24H791.579L791.216 120.388L791.972 122.24ZM799.532 122.24H801.532V120.24H799.532V122.24ZM799.532 215.6H797.532V217.042L798.899 217.497L799.532 215.6ZM810.332 219.2L812.115 220.105L813.166 218.036L810.964 217.303L810.332 219.2ZM779.132 208.64L780.135 210.37L781.132 209.792V208.64H779.132ZM779.132 185.72H781.132V185.567L781.109 185.416L779.132 185.72ZM756.092 206.24L754.347 207.217L754.359 207.238L754.371 207.259L756.092 206.24ZM806.372 225H779.132V229H806.372V225ZM781.132 227V218.12H777.132V227H781.132ZM777.89 216.552L766.37 225.672L768.853 228.808L780.373 219.688L777.89 216.552ZM767.127 225.3C764.762 225.891 761.971 226.2 758.732 226.2V230.2C762.213 230.2 765.342 229.869 768.097 229.18L767.127 225.3ZM758.732 226.2C753.815 226.2 749.434 224.94 745.532 222.437L743.372 225.803C747.95 228.74 753.088 230.2 758.732 230.2V226.2ZM745.569 222.461C741.715 219.867 738.658 216.339 736.401 211.826L732.823 213.614C735.366 218.701 738.869 222.773 743.335 225.779L745.569 222.461ZM736.413 211.85C734.236 207.346 733.132 202.328 733.132 196.76H729.132C729.132 202.872 730.348 208.494 732.811 213.59L736.413 211.85ZM733.132 196.76C733.132 190.906 735.011 185.442 738.852 180.32L735.652 177.92C731.333 183.678 729.132 189.974 729.132 196.76H733.132ZM738.86 180.309C742.761 175.031 747.61 170.87 753.423 167.81L751.56 164.27C745.214 167.61 739.903 172.169 735.644 177.931L738.86 180.309ZM753.432 167.805C759.368 164.645 764.966 163.12 770.252 163.12V159.12C764.177 159.12 757.936 160.875 751.552 164.275L753.432 167.805ZM770.252 163.12C773.101 163.12 775.71 163.827 778.118 165.244L780.146 161.796C777.114 160.013 773.803 159.12 770.252 159.12V163.12ZM781.132 163.52V145.64H777.132V163.52H781.132ZM780.237 143.973L769.557 136.893L767.347 140.227L778.027 147.307L780.237 143.973ZM770.452 138.56V131.84H766.452V138.56H770.452ZM769.208 133.692L792.728 124.092L791.216 120.388L767.696 129.988L769.208 133.692ZM791.972 124.24H799.532V120.24H791.972V124.24ZM797.532 122.24V215.6H801.532V122.24H797.532ZM798.899 217.497L809.699 221.097L810.964 217.303L800.164 213.703L798.899 217.497ZM808.549 218.295L804.589 226.095L808.155 227.905L812.115 220.105L808.549 218.295ZM766.052 214.12C771.117 214.12 775.824 212.871 780.135 210.37L778.128 206.91C774.44 209.049 770.427 210.12 766.052 210.12V214.12ZM781.132 208.64V185.72H777.132V208.64H781.132ZM781.109 185.416C780.542 181.734 778.63 178.718 775.517 176.429L773.147 179.651C775.473 181.362 776.762 183.466 777.155 186.024L781.109 185.416ZM775.517 176.429C772.346 174.097 768.202 173.04 763.292 173.04V177.04C767.662 177.04 770.878 177.983 773.147 179.651L775.517 176.429ZM763.292 173.04C759.176 173.04 755.871 174.657 753.7 177.962C751.626 181.121 750.732 185.605 750.732 191.12H754.732C754.732 185.915 755.598 182.359 757.044 180.158C758.393 178.103 760.367 177.04 763.292 177.04V173.04ZM750.732 191.12C750.732 197.434 751.894 202.837 754.347 207.217L757.837 205.263C755.81 201.643 754.732 196.966 754.732 191.12H750.732ZM754.371 207.259C757.027 211.746 760.979 214.12 766.052 214.12V210.12C762.484 210.12 759.797 208.574 757.813 205.221L754.371 207.259ZM877.348 170.72L875.719 171.881L875.724 171.887L875.729 171.894L877.348 170.72ZM884.068 197.36V199.36H886.04L886.068 197.388L884.068 197.36ZM840.868 197.36V195.36H838.514L838.894 197.684L840.868 197.36ZM846.028 209.12L844.536 210.451L844.545 210.461L844.554 210.471L846.028 209.12ZM880.468 205.04L882.238 204.109L881.301 202.328L879.526 203.276L880.468 205.04ZM884.068 211.88L885.314 213.445L886.609 212.414L885.838 210.949L884.068 211.88ZM865.828 226.4L866.321 228.338L866.737 228.232L867.074 227.965L865.828 226.4ZM833.548 224.12L832.515 225.832L832.532 225.843L832.549 225.853L833.548 224.12ZM822.628 212.72L820.863 213.661L820.87 213.673L820.876 213.684L822.628 212.72ZM824.908 179.12L826.508 180.32L826.516 180.309L824.908 179.12ZM840.148 166.04L841.08 167.81L841.088 167.805L840.148 166.04ZM843.388 178.64L844.982 179.849L844.991 179.836L845.001 179.823L843.388 178.64ZM840.508 189.44L838.509 189.374L838.441 191.44H840.508V189.44ZM863.428 189.44V191.44H865.703L865.412 189.184L863.428 189.44ZM859.828 178.52L858.208 179.693L858.221 179.711L858.235 179.729L859.828 178.52ZM857.908 163.12C865.714 163.12 871.564 166.049 875.719 171.881L878.977 169.559C874.012 162.591 866.903 159.12 857.908 159.12V163.12ZM875.729 171.894C880.026 177.822 882.225 186.221 882.068 197.332L886.068 197.388C886.231 185.779 883.95 176.418 878.967 169.546L875.729 171.894ZM884.068 195.36H840.868V199.36H884.068V195.36ZM838.894 197.684C839.741 202.846 841.587 207.145 844.536 210.451L847.521 207.789C845.189 205.175 843.595 201.634 842.842 197.036L838.894 197.684ZM844.554 210.471C847.607 213.803 851.601 215.44 856.348 215.44V211.44C852.615 211.44 849.729 210.197 847.502 207.769L844.554 210.471ZM856.348 215.44C862.479 215.44 870.897 212.422 881.411 206.804L879.526 203.276C869.079 208.858 861.417 211.44 856.348 211.44V215.44ZM878.698 205.971L882.298 212.811L885.838 210.949L882.238 204.109L878.698 205.971ZM882.823 210.315L864.583 224.835L867.074 227.965L885.314 213.445L882.823 210.315ZM865.335 224.462C860.814 225.611 855.506 226.2 849.388 226.2V230.2C855.75 230.2 861.402 229.589 866.321 228.338L865.335 224.462ZM849.388 226.2C843.873 226.2 838.941 224.92 834.547 222.387L832.549 225.853C837.595 228.76 843.224 230.2 849.388 230.2V226.2ZM834.581 222.408C830.246 219.792 826.853 216.251 824.381 211.756L820.876 213.684C823.683 218.789 827.57 222.848 832.515 225.832L834.581 222.408ZM824.393 211.779C821.999 207.29 820.788 202.297 820.788 196.76H816.788C816.788 202.903 818.138 208.55 820.863 213.661L824.393 211.779ZM820.788 196.76C820.788 190.906 822.667 185.442 826.508 180.32L823.308 177.92C818.989 183.678 816.788 189.974 816.788 196.76H820.788ZM826.516 180.309C830.417 175.031 835.266 170.87 841.08 167.81L839.217 164.27C832.87 167.61 827.559 172.169 823.3 177.931L826.516 180.309ZM841.088 167.805C847.024 164.645 852.623 163.12 857.908 163.12V159.12C851.834 159.12 845.592 160.875 839.208 164.275L841.088 167.805ZM851.308 173.04C847.283 173.04 843.984 174.446 841.775 177.457L845.001 179.823C846.312 178.034 848.293 177.04 851.308 177.04V173.04ZM841.795 177.431C839.666 180.237 838.674 184.333 838.509 189.374L842.507 189.506C842.662 184.787 843.59 181.683 844.982 179.849L841.795 177.431ZM840.508 191.44H863.428V187.44H840.508V191.44ZM865.412 189.184C864.755 184.095 863.494 180.043 861.422 177.311L858.235 179.729C859.682 181.637 860.821 184.865 861.445 189.696L865.412 189.184ZM861.448 177.347C859.249 174.311 855.62 173.04 851.188 173.04V177.04C854.917 177.04 857.047 178.089 858.208 179.693L861.448 177.347ZM851.188 177.04H851.308V173.04H851.188V177.04Z" fill="white"/>
</g>
<g filter="url(#filter1_d_741_429)">
<path d="M161 78.5C162.833 77.6667 167 75.9 169 75.5L177.5 74L186.5 75.5L190.5 74H198C199.6 74 202.667 75 204 75.5L214.5 80.5C217 79.8333 222.3 78.5 223.5 78.5C224.7 78.5 232.333 79.8333 236 80.5L253.5 89.5C256.333 90.1667 262.6 91.6 265 92C268 92.5 272 96 273.5 96C274.7 96 281 101.667 284 104.5L292.5 115.5L295.5 119.5L302.5 123.5L308 127.5L311.5 132.5V144L315.5 150.5L321.5 154.5L325 160L327.5 165.5L329 171.5L333 180L335 190V195.5L333 207L335 211.5V219.5L333 231L331 237.5L327.5 239.5L325 244.5L319 251L315.5 254L308 259H302.5H298.5L295.5 257V263.5L292.5 270.5L287 279L280.5 283.5L275 286L268.5 288L260 290H253.5H246.5H242H237L230.5 288L233 304.5V310L228.5 313.5L224 310C221.167 307 215.3 300.7 214.5 299.5C213.5 298 205 280.5 204 279C203.2 277.8 197.667 270.167 195 266.5L184 254H175.5C172.833 255 167 257 165 257H158C155.5 257.333 149.7 257.8 146.5 257C143.3 256.2 138.833 254.667 137 254L128.5 249L120.5 244.5L116 241.5L111.5 237.5L108 231V225.5L105.5 222V216.5H97C94.1667 215.833 88.1 214.4 86.5 214C84.9 213.6 80.8333 211.167 79 210L69 205L62 199.5L56 193.5L51.5 184H49L44 179V173.5L46.5 167.5L51.5 161L49 153L54 144.5L59 137L64 131L69 124.5L75.5 118.5L79 114L83 108.5L90.5 106L94.5 100L101 96H111.5L124 86L142.5 78.5H161Z" fill="#E6ADB3" stroke="black"/>
<path d="M115 96H112L124.5 85.5L142 78.5H161L169 75L178.5 74L186.5 76L192 74L202.5 75L215 80.5L224 78.5L236.5 80.5L252 88.5L268 92.5L274.5 96.5L281.5 101.5L288 109L286.5 129.5H277C269.167 125.667 262 109 258 109C254 109 243 110.333 238 111C236 114.5 232 121.9 232 123.5C232 125.5 236 134.5 238 137C240 139.5 247.5 145 250 145.5C252.5 146 258.5 152 263 154C266.6 155.6 266.167 166.667 265.5 172L254 179C250.667 180.5 243.3 183.8 240.5 185C237 186.5 221.5 190.5 220.5 190.5C219.7 190.5 209.167 191.5 204 192C197.333 191.667 183.6 190.9 182 190.5C180.4 190.1 170 186.667 165 185L145 166.5L155.5 157L162 142L152.5 126V113.5L135 109L115 96Z" fill="#FF79CD"/>
<path d="M250 145.5C252.5 146 258.5 152 263 154C266.6 155.6 266.167 166.667 265.5 172L254 179C250.667 180.5 243.3 183.8 240.5 185C237 186.5 221.5 190.5 220.5 190.5C219.7 190.5 209.167 191.5 204 192C197.333 191.667 183.6 190.9 182 190.5C180.4 190.1 170 186.667 165 185L145 166.5L155.5 157L162 142L152.5 126V113.5L135 109L115 96H112L124.5 85.5L142 78.5H161M250 145.5C247.5 145 240 139.5 238 137M250 145.5V154L252 160C250.667 162.167 247.7 166.5 246.5 166.5C245.3 166.5 240.333 170.167 238 172L224 175.5M238 137C236 134.5 232 125.5 232 123.5C232 121.9 236 114.5 238 111C243 110.333 254 109 258 109C262 109 269.167 125.667 277 129.5H286.5L288 109L281.5 101.5L274.5 96.5L268 92.5L252 88.5L236.5 80.5L224 78.5L215 80.5M238 137L224 134L208.5 126L201 113.5L186.5 106L176.5 109C175.167 111.167 172.5 115.8 172.5 117C172.5 118.5 173.5 123.5 175 123.5C176.2 123.5 181.833 125.167 184.5 126L192 129.5L196.5 134L184.5 140.5V142L178.5 154L175 158.5L165 162C166.333 162.5 169 164.1 169 166.5C169 169.5 181 172.5 184.5 173.5C188 174.5 201 176 202.5 175.5C204 175 212 174.5 213.5 172C214.7 170 223.333 164.5 227.5 162V158.5C228.833 157 230.4 154 226 154C220.5 154 218.5 151 213.5 151C208.5 151 204 148 201 151M215 80.5L202.5 75L192 74L186.5 76L178.5 74L169 75L161 78.5M215 80.5L224 88.5L238 94.5L236.5 98.5C232.333 101.333 224 107.4 224 109C224 110.6 221.667 112.667 220.5 113.5H206L190.5 106L188 101.5M161 78.5L165 80.5L175 84H188L202.5 85.5L208.5 88.5V94.5L206 98.5L198 101.5H188M175 98.5L186.5 101.5H188M175 98.5L166.5 96H159.5M175 98.5L188 101.5M147 98.5L158 96H159.5M147 98.5L148.5 101.5M147 98.5L159.5 96M201 151C198.6 153.4 197 155 196.5 155.5L201 151Z" stroke="white" stroke-width="0.5"/>
<path d="M287 129.5L288.5 109.5L295.5 119.5L301.75 123.5L308 127.5L311.5 132.5V144L315 151L321.5 155L326.5 163.5L329 171.5L333 179.5L334.5 190.5V196.5L333 207L334.5 212V219.5L333 230.5L331 237.5L327.5 239.5L325 245L320 250L313.5 255.5L308 259H298.5L295 256.5L293.5 252L287.5 248L286 244V236L278.5 229.5C277.5 230.5 273.5 233 271.5 233C269.5 233 263 233.5 262 233C261 232.5 255.5 232.5 255.5 232C255.5 231.6 249.167 226.833 246 224.5C245 223.5 242.4 221.2 240 220C237 218.5 234.5 220 232.5 220C230.5 220 226.5 218.5 225 218C223.8 217.6 222.167 215.5 221.5 214.5L218.5 211L217 205C216.5 203.333 215.5 199.8 215.5 199V194.5L220 191.5L225 190L232.5 188L238 186L246 182.5L250.5 180.5L255.5 178.5L261 175L265.5 172L266.5 170V159.5L263 154L255.5 149L250.5 146L245 142.5L238 137L232.5 126V122.5L238 111L258.5 109.5L266.5 118L277 129.5H287Z" fill="#7785F5"/>
<path d="M263 154L255.5 149L250.5 146L245 142.5L238 137L232.5 126V122.5L238 111L258.5 109.5L266.5 118L277 129.5H287L288.5 109.5L295.5 119.5L301.75 123.5M263 154L269 151L271 142.5C270.167 140.333 268.1 135.9 266.5 135.5C264.9 135.1 255.167 131.333 250.5 129.5L245 120.5M263 154L266.5 159.5V170L265.5 172L261 175L255.5 178.5L250.5 180.5L246 182.5L238 186L232.5 188L225 190L220 191.5L215.5 194.5C215.5 195.667 215.5 198.2 215.5 199C215.5 199.8 216.5 203.333 217 205L218.5 211L221.5 214.5C222.167 215.5 223.8 217.6 225 218C226.5 218.5 230.5 220 232.5 220C234.5 220 237 218.5 240 220C242.4 221.2 245 223.5 246 224.5C249.167 226.833 255.5 231.6 255.5 232C255.5 232.5 261 232.5 262 233C263 233.5 269.5 233 271.5 233C273.5 233 277.5 230.5 278.5 229.5M278.5 229.5C279.3 228.7 282.167 225.833 283.5 224.5L291 222L298.5 218C298.5 216.333 298.5 212.8 298.5 212C298.5 211 296.5 205 295 205C293.8 205 291.833 202.667 291 201.5C289.667 201.5 286.3 201.5 283.5 201.5C280 201.5 273.5 203 272.5 204C271.5 205 264 206.5 263 208C262.2 209.2 260.333 210.5 259.5 211H252.5L248 206.5C245.667 204.5 241.2 200.2 242 199C242.8 197.8 248 193.5 250.5 191.5M278.5 229.5L286 236V244L287.5 248L293.5 252L295 256.5L298.5 259H308L313.5 255.5L320 250L325 245L327.5 239.5L331 237.5L333 230.5L334.5 219.5V212L333 207L334.5 196.5V190.5L333 179.5L329 171.5L326.5 163.5L321.5 155L315 151M315 151L309 163.5L298.5 166.5C296.167 168.167 292.2 172.2 295 175M315 151L311.5 144V132.5L308 127.5L301.75 123.5M295 175C298.5 178.5 307.5 184 310 187M295 175L310 187M310 187C312.5 190 317.5 194 318 196.5M318 196.5C318.5 199 318 205 318 208C318 210.4 318 218.333 318 222M318 196.5V222M318 222L312.5 236L303.5 244M301.75 123.5L297 132.5L293 135.5L287 141C286.5 142.667 285.5 146.3 285.5 147.5C285.5 148.7 287.5 152.333 288.5 154C287.5 155.333 285.5 158.3 285.5 159.5C285.5 161 284 164.5 283 165.5C282 166.5 277 168 277 171.5C277 175 275.5 174.5 275 177C274.5 179.5 275 180.5 275 182.5C275 184.5 275 186 275 187C275 187.8 279 190.333 281 191.5H291" stroke="white" stroke-width="0.5"/>
<path d="M134.5 108.5L114.5 96H111.5H101L95 100L91 106L82 108.5L76.5 118L71 122.5L64 131L56 142L48.5 153L51.5 162.5L46.5 167.5L44 172V181L48.5 185H51.5L57.5 196L64 201.5L73 205.75L79.5 210L84 212.5L89.5 215L95 216L105.5 218V221L108 226L114.5 221C118.333 221.167 126 221.4 126 221C126 220.6 130 213.5 132 210L134.5 196L129.5 185L119 181H105.5L98 172L111.5 166.5C115.5 168.333 124 172 126 172C128 172 138.833 168.333 144 166.5L155 156L161.5 142L152 126.5V113L134.5 108.5Z" fill="#FFDF6B"/>
<path d="M161.5 142L152 126.5V113L134.5 108.5L114.5 96H111.5H101L95 100L91 106L82 108.5L76.5 118L71 122.5L64 131M161.5 142L155 156L144 166.5C138.833 168.333 128 172 126 172C124 172 115.5 168.333 111.5 166.5L98 172L105.5 181H119L129.5 185L134.5 196L132 210C130 213.5 126 220.6 126 221C126 221.4 118.333 221.167 114.5 221L108 226L105.5 221V218L95 216M161.5 142L149 143.5L129.5 152H119L116 142L126 129.5L121 122.5L108.5 119.5L93 122.5M95 216L104 213.188L113 210.375M95 216L113 210.375M95 216L89.5 215L84 212.5L79.5 210L73 205.75M111.5 201.5L113 210.375M73 205.75V196M73 205.75L64 201.5L57.5 196L51.5 185H48.5L44 181V172L46.5 167.5L51.5 162.5L48.5 153L56 142L64 131M73 196C75.6667 194.167 81.6 190.5 84 190.5C86.4 190.5 96.3333 190.5 101 190.5L120 196M73 196L67 193V185L73 172V162.5M64 131L71 138.5L84 142L95 138.5L101 142L95 156L84 162.5" stroke="white" stroke-width="0.5"/>
<rect x="44.5" y="96.5" width="116.5" height="129" stroke="white"/>
<path d="M184 254H176L167 257H157H150H144.5L137.5 254.5L131 250.5L124.5 247L117 242.5L112 238L108 231V226L114.5 221H126L132 210L134.5 196L129.5 185L119 181H106L98 172L111.5 166.5L125.5 172L144.5 166.5L152.5 174L164.5 185L173.25 187.75L182 190.5L200 192H204L210 191.5L220.5 190.5L215.5 194.5V199L218.5 211L223.5 217.5L231 220L232 222V224V227C231.833 227.333 231.4 228.1 231 228.5C230.6 228.9 227.5 230 226 230.5L219.5 233.5C216.333 233.5 209.8 233.4 209 233C208.2 232.6 203.667 229.5 201.5 228L188.5 217.5L182 210L178 202.5L169 199H158L152.5 202.5L150 212.5L154.5 221C158 221.667 165.2 222.9 166 222.5C167 222 176.5 222.5 178 222.5C179.2 222.5 182.5 224.833 184 226L188.5 233L195 240.5V247L190 254H184Z" fill="#FDAF75"/>
<path d="M117 242.5L124.5 247L131 250.5L137.5 254.5L144.5 257H150H157H167L176 254H184H190L195 247V240.5L188.5 233L184 226C182.5 224.833 179.2 222.5 178 222.5C176.5 222.5 167 222 166 222.5C165.2 222.9 158 221.667 154.5 221L150 212.5L152.5 202.5L158 199H169L178 202.5L182 210L188.5 217.5L201.5 228C203.667 229.5 208.2 232.6 209 233C209.8 233.4 216.333 233.5 219.5 233.5L226 230.5C227.5 230 230.6 228.9 231 228.5C231.4 228.1 231.833 227.333 232 227V224V222L231 220L223.5 217.5L218.5 211L215.5 199V194.5L220.5 190.5L210 191.5L204 192H200L182 190.5L173.25 187.75M117 242.5L112 238L108 231V226L114.5 221H126L132 210L134.5 196L129.5 185L119 181H106L98 172L111.5 166.5L125.5 172L144.5 166.5L152.5 174M117 242.5L121.5 241.5L124.5 240.5V235C124.5 233.5 124.8 230.5 126 230.5C127.2 230.5 132.167 229.167 134.5 228.5L146.5 227M152.5 174L153 179L150 184.5C147.333 185.5 141.9 187.3 141.5 186.5C141.1 185.7 138.333 182.5 137 181C135.167 180.5 131.3 179.4 130.5 179C129.7 178.6 124.833 177.5 122.5 177L109 175M152.5 174L164.5 185L173.25 187.75M146.5 227L158 228.5L164.5 233L175 237.5L180.5 241.5V247L171 248.5H160L146.5 242.5L140 238M146.5 227L141.5 222.5L140 217.5V210L139.559 202.5M143 196L139.5 201.5L139.559 202.5M143 196L152.5 190.5M143 196L139.559 202.5M173.25 187.75V194.5L179.5 196.5C179.667 196.5 180.4 196.5 182 196.5C183.6 196.5 189.333 198.167 192 199L199.5 200C201.333 201.167 205.4 203.7 207 204.5C208.6 205.3 210.667 207.5 211.5 208.5C211 209.833 210.3 212.8 211.5 214C213 215.5 215.5 220 215.5 221C215.5 221.8 211.833 223.333 210 224L204 221L201.5 215.5L198 210L192 204.5" stroke="white" stroke-width="0.5"/>
<path d="M233 310.5L229 313.5L223 309.5L214.5 299.5L203.5 279L199 271.5L190.5 261.5L184 254H189.5L195 247V240.5L188.5 233L184 226L179 223L172 222H165L154.5 220.5L150 212.5L152.5 202.5L158 199H169L177.5 202.5L182 210L188.5 217C192.667 220.833 201.6 228.8 204 230C206.4 231.2 208.667 232.5 209.5 233L211.218 233.09L219 233.5L222.864 231.844L229.5 229L232 227V224.5V222L231 220.5L234.5 220H237L241 220.5L246 225L253 230L255.5 233L264 233.5H270L272.75 232.5L275.5 231.5L278.5 230L286 236V240V244L287.5 248L293.5 252L295 256.5L295.5 257V263.5L293.5 268L291.5 272.5L288 277.5L284.5 280.5L278.5 284.5C276.833 285.167 273.4 286.5 273 286.5C272.917 286.5 272.631 286.572 272.208 286.693C270.593 287.157 266.981 288.34 265 289L260 290.5H249.5H236L230.5 288L231.5 295.5L233 303.5V310.5Z" fill="#F24A72"/>
<path d="M195 247L189.5 254H184L190.5 261.5L199 271.5L203.5 279L214.5 299.5L223 309.5L229 313.5L233 310.5V303.5L231.5 295.5L230.5 288M195 247V240.5L188.5 233L184 226L179 223L172 222H165L154.5 220.5L150 212.5L152.5 202.5L158 199H169L177.5 202.5L182 210L188.5 217C192.667 220.833 201.6 228.8 204 230C206.4 231.2 208.667 232.5 209.5 233M195 247L203.5 242L201.5 233L190.5 226L186.25 221.5M209.5 233L211.218 237.5M209.5 233L211.218 233.09M229.5 229L232 227M229.5 229L222.864 231.844M229.5 229L287.5 248M232 227C248.667 232 282.8 242.4 286 244M232 227V224.5M232 222L231 220.5L234.5 220H237L241 220.5L246 225M232 222V224.5M232 222L246 225M246 225L253 230M253 230L255.5 233L264 233.5M253 230L232 224.5M264 233.5H270L272.75 232.5M264 233.5L286 240M286 236L278.5 230L275.5 231.5L272.75 232.5M286 236V240M286 236L272.75 232.5M286 244L287.5 248M286 244V240M287.5 248L293.5 252M293.5 252L295 256.5L295.5 257M293.5 252C291.9 252 245.742 238.563 222.864 231.844M295.5 257V263.5M295.5 257C295.1 256.6 239.145 240.894 211.218 233.09M295.5 263.5L293.5 268M295.5 263.5C293.9 263.5 238.645 246.167 211.218 237.5M293.5 268L291.5 272.5M293.5 268L212.936 242M291.5 272.5L288 277.5M291.5 272.5L214.845 247M288 277.5L284.5 280.5M288 277.5L216.755 252M284.5 280.5L278.5 284.5M284.5 280.5L219 257.881M278.5 284.5C276.833 285.167 273.4 286.5 273 286.5C272.917 286.5 272.631 286.572 272.208 286.693M278.5 284.5L221.145 263.5M265 289L260 290.5M265 289L224.2 271.5M265 289C266.981 288.34 270.593 287.157 272.208 286.693M260 290.5H249.5M260 290.5L226.491 277.5M249.5 290.5H236L230.5 288M249.5 290.5L228.209 282M230.5 288L228.209 282M186.25 221.5L182 217L170.5 207.5H161.5L158 210L159 216L165 217H174.5L182 220L186.25 221.5ZM228.209 282L226.491 277.5M226.491 277.5L224.2 271.5M224.2 271.5L222.864 268M222.864 268L272.208 286.693M222.864 268L221.145 263.5M221.145 263.5L219 257.881M219 257.881L216.755 252M216.755 252L214.845 247M214.845 247L212.936 242M212.936 242L211.218 237.5M211.218 233.09L219 233.5L222.864 231.844" stroke="white" stroke-width="0.5"/>
<path d="M106.218 221C-112.54 221 395.62 0.552086 301 123" stroke="white" stroke-width="2"/>
<path d="M150 76.9998C154.816 -195.678 334.004 410.583 230.787 290.781" stroke="#FBFAFD" stroke-width="2"/>
<path d="M256.5 88.5001C261.225 -179.057 -25.6651 370.17 149.5 257.5" stroke="white" stroke-width="2"/>
<path d="M297 120.5C301.725 -147.057 25.0291 386.726 200.194 274.056" stroke="white" stroke-width="2"/>
<path d="M47.5 164C-179.507 -46.9236 531.122 218.186 320 248.5" stroke="white" stroke-width="2"/>
<circle cx="155" cy="288" r="4.5" fill="white" stroke="#4B18A5"/>
<circle cx="258" cy="232" r="4.5" fill="white" stroke="#4B18A5"/>
<circle cx="222" cy="99" r="4.5" fill="white" stroke="#4B18A5"/>
<circle cx="234" cy="138" r="4.5" fill="white" stroke="#4B18A5"/>
<circle cx="51" cy="206" r="4.5" fill="white" stroke="#4B18A5"/>
<circle cx="103" cy="272" r="4.5" fill="white" stroke="#4B18A5"/>
<circle cx="128" cy="139" r="4.5" fill="white" stroke="#4B18A5"/>
<circle cx="145" cy="105" r="4.5" fill="white" stroke="#4B18A5"/>
<circle cx="195" cy="35" r="4.5" fill="white" stroke="#4B18A5"/>
<circle cx="363" cy="226" r="4.5" fill="white" stroke="#4B18A5"/>
<circle cx="5" cy="96" r="4.5" fill="white" stroke="#4B18A5"/>
<circle cx="166" cy="5" r="4.5" fill="white" stroke="#4B18A5"/>
<circle cx="239" cy="17" r="4.5" fill="white" stroke="#4B18A5"/>
<circle cx="313" cy="91" r="4.5" fill="white" stroke="#4B18A5"/>
<circle cx="256" cy="305" r="4.5" fill="white" stroke="#4B18A5"/>
<circle cx="273" cy="45" r="4.5" fill="white" stroke="#4B18A5"/>
</g>
<defs>
<filter id="filter0_b_741_429" x="300.08" y="118.24" width="588.228" height="144.44" filterUnits="userSpaceOnUse" color-interpolation-filters="sRGB">
<feFlood flood-opacity="0" result="BackgroundImageFix"/>
<feGaussianBlur in="BackgroundImage" stdDeviation="2"/>
<feComposite in2="SourceAlpha" operator="in" result="effect1_backgroundBlur_741_429"/>
<feBlend mode="normal" in="SourceGraphic" in2="effect1_backgroundBlur_741_429" result="shape"/>
</filter>
<filter id="filter1_d_741_429" x="0" y="0" width="377" height="322.133" filterUnits="userSpaceOnUse" color-interpolation-filters="sRGB">
<feFlood flood-opacity="0" result="BackgroundImageFix"/>
<feColorMatrix in="SourceAlpha" type="matrix" values="0 0 0 0 0 0 0 0 0 0 0 0 0 0 0 0 0 0 127 0" result="hardAlpha"/>
<feOffset dx="5" dy="4"/>
<feGaussianBlur stdDeviation="2"/>
<feComposite in2="hardAlpha" operator="out"/>
<feColorMatrix type="matrix" values="0 0 0 0 0 0 0 0 0 0 0 0 0 0 0 0 0 0 0.25 0"/>
<feBlend mode="normal" in2="BackgroundImageFix" result="effect1_dropShadow_741_429"/>
<feBlend mode="normal" in="SourceGraphic" in2="effect1_dropShadow_741_429" result="shape"/>
</filter>
<linearGradient id="paint0_linear_741_429" x1="355.5" y1="199.5" x2="808.5" y2="227" gradientUnits="userSpaceOnUse">
<stop stop-color="white"/>
<stop offset="0.984375" stop-color="#9892FF"/>
</linearGradient>
</defs>
</svg>
