<svg xmlns="http://www.w3.org/2000/svg" width="135.062" height="28.448" viewBox="0 0 135.062 28.448"><path d="M592.009,365.178l8.266-8.565-5-10.441-11.313.03Z" transform="translate(-583.915 -336.823)" fill="#0d4170"/><path d="M583.814,325.678h26.079l7.373-8.574-26.732.076Z" transform="translate(-583.814 -317.104)" fill="#3872a9"/><path d="M683.37,336.547l-8.816-19.373-7.9,9.1,4.943,10.272Z" transform="translate(-640.02 -317.151)" fill="#1f639f"/><path d="M620.252,379.826l-7.851,8.181h27.547l6.612-8.182Z" transform="translate(-603.21 -359.652)" fill="#4e91c3"/><g transform="translate(52.167 0.047)"><path d="M756.234,327.189a9.248,9.248,0,0,0-1.886-1.035c-.7-.289-1.43-.566-2.18-.825q-.379-.114-.859-.265c-.321-.1-.651-.218-.98-.35a8.127,8.127,0,0,1-.978-.47,4.055,4.055,0,0,1-.843-.631,3.054,3.054,0,0,1-.6-.827,2.234,2.234,0,0,1-.214-1.056,2.767,2.767,0,0,1,.423-1.539,3.78,3.78,0,0,1,1.074-1.084,4.8,4.8,0,0,1,1.415-.639,5.6,5.6,0,0,1,1.445-.206,7.1,7.1,0,0,1,1.231.107,4.979,4.979,0,0,1,1.177.362,4.7,4.7,0,0,1,1.076.674,5.446,5.446,0,0,1,.946,1.037.5.5,0,0,0,.338.146h.018a.489.489,0,0,0,.306-.115.432.432,0,0,0,.161-.236.379.379,0,0,0-.047-.319,4.976,4.976,0,0,0-.925-1.148,5.435,5.435,0,0,0-1.21-.837,6.148,6.148,0,0,0-1.443-.512,7.491,7.491,0,0,0-1.625-.173,6.342,6.342,0,0,0-1.876.3,5.969,5.969,0,0,0-1.737.865,4.633,4.633,0,0,0-1.278,1.408,3.75,3.75,0,0,0-.493,1.925,3.2,3.2,0,0,0,.516,1.834,4.8,4.8,0,0,0,1.292,1.285,8.137,8.137,0,0,0,1.69.871c.6.229,1.186.422,1.727.574.641.226,1.28.464,1.9.708a8.781,8.781,0,0,1,1.646.848A4.168,4.168,0,0,1,756.6,329a2.788,2.788,0,0,1,.437,1.574,4.123,4.123,0,0,1-.432,1.922,4.261,4.261,0,0,1-1.133,1.383,4.92,4.92,0,0,1-1.574.831,5.8,5.8,0,0,1-1.757.278,6.439,6.439,0,0,1-1.621-.207,6.281,6.281,0,0,1-1.476-.583,5.164,5.164,0,0,1-1.2-.909,3.871,3.871,0,0,1-.8-1.177c-.207-.284-.439-.37-.69-.257a.524.524,0,0,0-.259.248.484.484,0,0,0,.035.435,4.629,4.629,0,0,0,.9,1.372,6.063,6.063,0,0,0,1.385,1.1,7.475,7.475,0,0,0,1.727.727,7.052,7.052,0,0,0,1.933.267,6.855,6.855,0,0,0,2.219-.367,5.955,5.955,0,0,0,1.913-1.067,5.3,5.3,0,0,0,1.342-1.709,5.033,5.033,0,0,0,.507-2.281,3.739,3.739,0,0,0-.5-1.968A4.877,4.877,0,0,0,756.234,327.189Z" transform="translate(-746.062 -317.25)" fill="#36465a"/><path d="M800.424,317.741a.494.494,0,0,0-.35.14.474.474,0,0,0-.149.359v17.413a.473.473,0,0,0,.149.358.492.492,0,0,0,.35.14.511.511,0,0,0,.364-.14.473.473,0,0,0,.149-.358V318.239a.475.475,0,0,0-.149-.359A.513.513,0,0,0,800.424,317.741Z" transform="translate(-782.607 -317.583)" fill="#36465a"/><path d="M835.344,317.741a.51.51,0,0,0-.37.148.493.493,0,0,0-.15.365v15.839L823.46,317.953a.971.971,0,0,0-.139-.106l-.066-.038a.1.1,0,0,0-.064-.025.512.512,0,0,0-.153-.029.5.5,0,0,0-.355.14.471.471,0,0,0-.151.359v17.4a.471.471,0,0,0,.151.359.5.5,0,0,0,.355.14.522.522,0,0,0,.369-.14.471.471,0,0,0,.151-.359V319.77l11.355,16.172a.416.416,0,0,0,.085.1.487.487,0,0,0,.3.109h.044a.506.506,0,0,0,.355-.14.471.471,0,0,0,.151-.359v-17.4a.505.505,0,0,0-.142-.364A.484.484,0,0,0,835.344,317.741Z" transform="translate(-797.945 -317.583)" fill="#36465a"/><path d="M882.842,322.424a8.661,8.661,0,0,1,1.319-1.7,8.15,8.15,0,0,1,1.711-1.311,8.634,8.634,0,0,1,7.5-.52,8.548,8.548,0,0,1,2.832,1.873.5.5,0,0,0,.728,0,.47.47,0,0,0,0-.7,9.8,9.8,0,0,0-3.159-2.107,9.433,9.433,0,0,0-3.584-.711,9.554,9.554,0,0,0-4.936,1.337,9.235,9.235,0,0,0-1.91,1.51,9.54,9.54,0,0,0-1.44,1.92,9.656,9.656,0,0,0-.914,2.214,9.269,9.269,0,0,0,.014,4.9,9.443,9.443,0,0,0,.951,2.236,9.342,9.342,0,0,0,1.478,1.9,9.24,9.24,0,0,0,1.916,1.46,9.848,9.848,0,0,0,2.274.942,9.5,9.5,0,0,0,2.538.338,10.046,10.046,0,0,0,3.583-.662,9.026,9.026,0,0,0,3.16-2.071.508.508,0,0,0,.15-.357.439.439,0,0,0-.15-.359.479.479,0,0,0-.349-.141.532.532,0,0,0-.378.169,8.033,8.033,0,0,1-2.819,1.831,9.11,9.11,0,0,1-3.2.577,8.389,8.389,0,0,1-2.312-.314,8.726,8.726,0,0,1-2.037-.87,8.368,8.368,0,0,1-3.827-4.995,8.148,8.148,0,0,1-.29-2.173,8.3,8.3,0,0,1,.3-2.223A8.169,8.169,0,0,1,882.842,322.424Z" transform="translate(-837.389 -317.251)" fill="#36465a"/><path d="M963.339,324.2a9.52,9.52,0,0,0-.966-2.236,9.294,9.294,0,0,0-1.493-1.891,9.582,9.582,0,0,0-6.736-2.732,9.5,9.5,0,0,0-3.723.733,9.642,9.642,0,0,0-3.021,2,9.347,9.347,0,0,0-2.026,2.969,9.382,9.382,0,0,0,0,7.3,9.41,9.41,0,0,0,2.026,2.984,9.535,9.535,0,0,0,6.744,2.74,9.431,9.431,0,0,0,2.531-.338,10.034,10.034,0,0,0,2.274-.942,9.228,9.228,0,0,0,1.931-1.467,9.721,9.721,0,0,0,1.493-1.9,9.343,9.343,0,0,0,.966-2.236,9.2,9.2,0,0,0,0-4.984Zm-.7,2.488a8.1,8.1,0,0,1-.667,3.263,8.451,8.451,0,0,1-1.82,2.658,8.607,8.607,0,0,1-2.7,1.789,8.679,8.679,0,0,1-6.619,0,8.633,8.633,0,0,1-2.7-1.789,8.348,8.348,0,0,1-1.812-2.658,8.368,8.368,0,0,1,0-6.512,8.271,8.271,0,0,1,1.812-2.651,8.7,8.7,0,0,1,2.7-1.782,8.678,8.678,0,0,1,6.619,0,8.678,8.678,0,0,1,2.7,1.782,8.364,8.364,0,0,1,1.82,2.651A8.062,8.062,0,0,1,962.641,326.688Z" transform="translate(-880.789 -317.311)" fill="#36465a"/><path d="M954.717,385.831a.271.271,0,0,0,.2-.083.281.281,0,0,0,.078-.2.272.272,0,0,0-.081-.2.276.276,0,0,0-.2-.079h-2.986a.308.308,0,0,0-.2.068.259.259,0,0,0-.1.21v5.945a.313.313,0,0,0,.066.195.265.265,0,0,0,.2.1h3.019a.271.271,0,0,0,.2-.084.288.288,0,0,0,.078-.2.266.266,0,0,0-.08-.193.276.276,0,0,0-.2-.079H952V388.8h2a.291.291,0,0,0,.2-.072.26.26,0,0,0,.087-.2.272.272,0,0,0-.085-.2.287.287,0,0,0-.2-.076h-2v-2.422Zm-.6,2.587Z" transform="translate(-885.403 -363.393)" fill="#36465a"/><path d="M972.025,388.415a1.771,1.771,0,0,0,.384-.568,1.814,1.814,0,0,0,.138-.714,1.833,1.833,0,0,0-.151-.746,1.8,1.8,0,0,0-.421-.591,1.938,1.938,0,0,0-.627-.387,2.127,2.127,0,0,0-.768-.138h-1.674a.274.274,0,0,0-.194.077.267.267,0,0,0-.086.2v5.965a.266.266,0,0,0,.084.2.3.3,0,0,0,.395,0,.268.268,0,0,0,.085-.2V388.98h1.1l1.718,2.671a.3.3,0,0,0,.149.124.279.279,0,0,0,.1.019.257.257,0,0,0,.1-.02.265.265,0,0,0,.168-.163.288.288,0,0,0-.027-.247l-1.567-2.411a2.107,2.107,0,0,0,.517-.149A1.916,1.916,0,0,0,972.025,388.415Zm-.042-1.292a1.245,1.245,0,0,1-.1.5,1.3,1.3,0,0,1-.286.415,1.35,1.35,0,0,1-.441.284,1.489,1.489,0,0,1-.566.1h-1.4v-2.6h1.385a1.574,1.574,0,0,1,.57.1,1.347,1.347,0,0,1,.445.274,1.249,1.249,0,0,1,.29.412A1.262,1.262,0,0,1,971.983,387.123Z" transform="translate(-897.065 -363.393)" fill="#36465a"/><path d="M990.539,385.8a1.951,1.951,0,0,0-.627-.387,2.143,2.143,0,0,0-.768-.138H987.47a.281.281,0,0,0-.2.077.268.268,0,0,0-.085.2v5.965a.269.269,0,0,0,.085.2.291.291,0,0,0,.393,0,.267.267,0,0,0,.086-.2V388.98h1.39a2.161,2.161,0,0,0,.767-.135,1.927,1.927,0,0,0,.628-.382,1.767,1.767,0,0,0,.42-.586,1.8,1.8,0,0,0,.152-.743,1.821,1.821,0,0,0-.152-.746A1.8,1.8,0,0,0,990.539,385.8Zm.008,1.327a1.241,1.241,0,0,1-.1.5,1.3,1.3,0,0,1-.286.415,1.348,1.348,0,0,1-.44.284,1.5,1.5,0,0,1-.566.1h-1.4v-2.6h1.384a1.574,1.574,0,0,1,.57.1,1.349,1.349,0,0,1,.445.274,1.249,1.249,0,0,1,.394.923Z" transform="translate(-909.661 -363.393)" fill="#36465a"/></g></svg>