<svg width="377" height="377" viewBox="0 0 377 377" fill="none" xmlns="http://www.w3.org/2000/svg">
<path d="M316.449 296.23L298.632 327.939C298.451 328.256 298.19 328.519 297.875 328.702C297.56 328.885 297.202 328.982 296.837 328.982C296.473 328.982 296.115 328.885 295.8 328.702C295.484 328.519 295.223 328.256 295.043 327.939L277.226 296.256V294.552H316.475V296.256L316.449 296.23Z" fill="white"/>
<path d="M316.448 90.0161H277.199V114.805H316.448V90.0161Z" fill="#ED9180"/>
<path d="M316.448 68.3238V90.0142H277.199V68.3238C277.199 66.1323 278.069 64.0306 279.619 62.481C281.169 60.9314 283.27 60.0608 285.462 60.0608H308.185C310.377 60.0608 312.478 60.9314 314.028 62.481C315.577 64.0306 316.448 66.1323 316.448 68.3238V68.3238Z" fill="#ED9180"/>
<path d="M316.448 114.804H277.199V294.525H316.448V114.804Z" fill="#C64229"/>
<path d="M243.114 130.296H175.977C175.429 130.296 174.904 130.079 174.516 129.691C174.129 129.304 173.911 128.778 173.911 128.23V61.0935L243.114 130.296Z" fill="white"/>
<path d="M244.146 132.181V316.214C244.146 319.501 242.84 322.654 240.516 324.978C238.191 327.303 235.039 328.609 231.752 328.609H56.1626C52.8754 328.609 49.7228 327.303 47.3983 324.978C45.0739 322.654 43.7681 319.501 43.7681 316.214V72.4553C43.7681 69.1681 45.0739 66.0155 47.3983 63.6911C49.7228 61.3666 52.8754 60.0608 56.1626 60.0608H172.051C172.592 60.0644 173.11 60.2773 173.497 60.6547L173.936 61.0937V128.231C173.936 128.779 174.154 129.304 174.541 129.691C174.929 130.079 175.454 130.296 176.002 130.296H243.139L243.578 130.735C243.946 131.127 244.149 131.644 244.146 132.181V132.181ZM126.527 170.579C126.527 165.063 124.892 159.671 121.827 155.085C118.763 150.499 114.408 146.924 109.312 144.814C104.216 142.703 98.6087 142.151 93.199 143.227C87.7893 144.303 82.8202 146.959 78.9201 150.859C75.0199 154.759 72.3639 159.728 71.2878 165.138C70.2118 170.548 70.764 176.155 72.8748 181.251C74.9855 186.347 78.56 190.702 83.1461 193.766C87.7322 196.831 93.124 198.466 98.6396 198.466C106.036 198.466 113.129 195.528 118.359 190.298C123.589 185.068 126.527 177.975 126.527 170.579ZM126.527 265.603C126.527 260.088 124.892 254.696 121.827 250.11C118.763 245.524 114.408 241.949 109.312 239.838C104.216 237.728 98.6087 237.175 93.199 238.251C87.7893 239.327 82.8202 241.984 78.9201 245.884C75.0199 249.784 72.3639 254.753 71.2878 260.163C70.2118 265.572 70.764 271.18 72.8748 276.275C74.9855 281.371 78.56 285.727 83.1461 288.791C87.7322 291.855 93.124 293.491 98.6396 293.491C106.036 293.491 113.129 290.553 118.359 285.323C123.589 280.093 126.527 273 126.527 265.603Z" fill="white"/>
<path d="M98.5118 137.527C91.9803 137.553 85.6028 139.513 80.1844 143.16C74.766 146.807 70.5498 151.978 68.0679 158.02C65.5861 164.062 64.9499 170.703 66.2398 177.106C67.5297 183.509 70.6877 189.386 75.3152 193.996C79.9427 198.605 85.8322 201.741 92.2401 203.005C98.6481 204.27 105.287 203.608 111.319 201.103C117.351 198.598 122.505 194.361 126.132 188.929C129.758 183.496 131.693 177.111 131.693 170.579C131.69 166.229 130.828 161.922 129.158 157.905C127.488 153.888 125.041 150.24 121.959 147.17C118.877 144.1 115.219 141.668 111.196 140.013C107.172 138.358 102.862 137.514 98.5118 137.527Z" fill="#00E224"/>
<path d="M98.5118 232.551C91.9803 232.577 85.6028 234.537 80.1844 238.184C74.766 241.831 70.5498 247.002 68.0679 253.044C65.5861 259.086 64.9499 265.727 66.2398 272.13C67.5297 278.533 70.6877 284.41 75.3152 289.02C79.9427 293.629 85.8322 296.764 92.2401 298.029C98.6481 299.294 105.287 298.632 111.319 296.127C117.351 293.621 122.505 289.385 126.132 283.952C129.758 278.52 131.693 272.135 131.693 265.603C131.69 261.253 130.828 256.946 129.158 252.929C127.488 248.912 125.041 245.264 121.959 242.194C118.877 239.124 115.219 236.692 111.196 235.037C107.172 233.382 102.862 232.538 98.5118 232.551Z" fill="#00E224"/>
<path d="M148.087 161.284H199.731" stroke="#515F76" stroke-width="6.19726" stroke-miterlimit="10" stroke-linecap="round"/>
<path d="M148.087 181.942H214.191" stroke="#515F76" stroke-width="6.19726" stroke-miterlimit="10" stroke-linecap="round"/>
<path d="M148.087 254.242H199.731" stroke="#515F76" stroke-width="6.19726" stroke-miterlimit="10" stroke-linecap="round"/>
<path d="M148.087 274.899H218.323" stroke="#515F76" stroke-width="6.19726" stroke-miterlimit="10" stroke-linecap="round"/>
<path d="M86.1157 170.578L96.4445 180.907L110.905 164.381" stroke="#515F76" stroke-width="6.19726" stroke-linecap="round" stroke-linejoin="round"/>
<path d="M86.1157 265.605L96.4445 275.934L110.905 259.408" stroke="#515F76" stroke-width="6.19726" stroke-linecap="round" stroke-linejoin="round"/>
<path d="M317.611 113.616H307.282V294.37H317.611V113.616Z" fill="#EEB8A9"/>
<path d="M317.611 90.377H307.282V113.617H317.611V90.377Z" fill="#EEB8A9"/>
<path d="M316.448 114.804H277.199" stroke="#515F76" stroke-width="6.19726" stroke-miterlimit="10"/>
<path d="M308.184 59.3896H297.855C300.238 59.4962 302.503 60.4582 304.234 62.0992C305.965 63.7402 307.047 65.9502 307.28 68.324V90.376H317.609V68.324C317.376 65.9502 316.294 63.7402 314.563 62.0992C312.832 60.4582 310.567 59.4962 308.184 59.3896V59.3896Z" fill="#EEB8A9"/>
<path d="M316.449 294.524V296.228L298.632 327.937C298.451 328.254 298.19 328.517 297.875 328.7C297.56 328.884 297.202 328.98 296.837 328.98C296.473 328.98 296.115 328.884 295.8 328.7C295.484 328.517 295.223 328.254 295.043 327.937L277.226 296.254V68.3238C277.226 66.1323 278.096 64.0306 279.646 62.481C281.195 60.9314 283.297 60.0608 285.489 60.0608H308.212C310.403 60.0608 312.505 60.9314 314.055 62.481C315.604 64.0306 316.475 66.1323 316.475 68.3238V294.524H316.449Z" stroke="#515F76" stroke-width="6.19726" stroke-miterlimit="10"/>
<path d="M277.199 90.0161H316.448" stroke="#515F76" stroke-width="6.19726" stroke-miterlimit="10"/>
<path d="M316.448 294.524H277.199" stroke="#515F76" stroke-width="6.19726" stroke-miterlimit="10"/>
<path d="M243.112 134.273C243.301 133.695 243.301 133.071 243.112 132.492V131.717H175.975C174.839 131.691 173.005 131.433 173.005 130.297V140.626C173.005 141.762 174.839 142.02 175.975 142.02H243.112V142.795" fill="#C3C7CD"/>
<path d="M243.114 130.296H175.977C175.429 130.296 174.904 130.079 174.516 129.691C174.129 129.304 173.911 128.778 173.911 128.23V61.0935" stroke="#515F76" stroke-width="6.19726" stroke-miterlimit="10"/>
<path d="M173.911 61.0937L173.472 60.6547C173.084 60.2773 172.566 60.0644 172.026 60.0608H56.1626C52.8754 60.0608 49.7228 61.3666 47.3983 63.6911C45.0739 66.0155 43.7681 69.1681 43.7681 72.4553V316.214C43.7681 319.501 45.0739 322.654 47.3983 324.978C49.7228 327.303 52.8754 328.609 56.1626 328.609H231.752C235.039 328.609 238.191 327.303 240.516 324.978C242.84 322.654 244.146 319.501 244.146 316.214V132.181C244.143 131.641 243.93 131.123 243.552 130.735L243.113 130.296L173.911 61.0937Z" stroke="#515F76" stroke-width="6.19726" stroke-miterlimit="10"/>
<path d="M319.209 21.4832L327.472 29.7462" stroke="#B8B9BA" stroke-width="4.13151" stroke-miterlimit="10" stroke-linecap="round"/>
<path d="M327.472 21.4832L319.209 29.7462" stroke="#B8B9BA" stroke-width="4.13151" stroke-miterlimit="10" stroke-linecap="round"/>
<path d="M361.378 45.2668C364.23 45.2668 366.542 42.9546 366.542 40.1024C366.542 37.2502 364.23 34.938 361.378 34.938C358.526 34.938 356.213 37.2502 356.213 40.1024C356.213 42.9546 358.526 45.2668 361.378 45.2668Z" stroke="#B8B9BA" stroke-width="4.13151" stroke-miterlimit="10" stroke-linecap="round"/>
<path d="M342.266 70.7257C344.548 70.7257 346.398 68.8759 346.398 66.5942C346.398 64.3124 344.548 62.4626 342.266 62.4626C339.985 62.4626 338.135 64.3124 338.135 66.5942C338.135 68.8759 339.985 70.7257 342.266 70.7257Z" fill="#B8B9BA"/>
<path d="M343.431 327.938V343.431" stroke="#B8B9BA" stroke-width="5.16438" stroke-miterlimit="10" stroke-linecap="round"/>
<path d="M351.178 335.686H335.685" stroke="#B8B9BA" stroke-width="5.16438" stroke-miterlimit="10" stroke-linecap="round"/>
<path d="M18.4622 41.8815L24.4787 38.7312C24.5122 38.7114 24.5506 38.7014 24.5895 38.7024C24.6284 38.7035 24.6662 38.7155 24.6986 38.7371C24.731 38.7587 24.7566 38.789 24.7725 38.8245C24.7884 38.86 24.794 38.8993 24.7886 38.9378L23.6266 45.6257L28.7909 50.661L21.6641 51.6422L18.4622 58.0977L15.2861 51.6422L8.57239 50.661C8.5401 50.6431 8.51319 50.6169 8.49445 50.5851C8.4757 50.5533 8.46582 50.5171 8.46582 50.4802C8.46582 50.4433 8.4757 50.4071 8.49445 50.3753C8.51319 50.3435 8.5401 50.3173 8.57239 50.2995L13.4269 45.5482L12.0842 38.5247L18.4622 41.8815Z" fill="#ED9180"/>
<path d="M42.7331 29.7462C45.0148 29.7462 46.8646 27.8964 46.8646 25.6147C46.8646 23.3329 45.0148 21.4832 42.7331 21.4832C40.4513 21.4832 38.6016 23.3329 38.6016 25.6147C38.6016 27.8964 40.4513 29.7462 42.7331 29.7462Z" fill="#B8B9BA"/>
<path d="M316.449 357.582C318.731 357.582 320.581 355.732 320.581 353.45C320.581 351.169 318.731 349.319 316.449 349.319C314.168 349.319 312.318 351.169 312.318 353.45C312.318 355.732 314.168 357.582 316.449 357.582Z" fill="#B8B9BA"/>
<path d="M19.4969 80.7184C22.3491 80.7184 24.6613 78.4062 24.6613 75.554C24.6613 72.7018 22.3491 70.3896 19.4969 70.3896C16.6447 70.3896 14.3325 72.7018 14.3325 75.554C14.3325 78.4062 16.6447 80.7184 19.4969 80.7184Z" stroke="#B8B9BA" stroke-width="4.13151" stroke-miterlimit="10" stroke-linecap="round"/>
</svg>
