<svg width="72" height="72" viewBox="0 0 72 72" fill="none" xmlns="http://www.w3.org/2000/svg">
<path d="M60.4358 56.5745L57.033 62.6303C56.9986 62.6908 56.9487 62.7411 56.8885 62.7761C56.8283 62.8111 56.7599 62.8295 56.6903 62.8295C56.6207 62.8295 56.5523 62.8111 56.4921 62.7761C56.4319 62.7411 56.382 62.6908 56.3476 62.6303L52.9448 56.5794V56.2539H60.4407V56.5794L60.4358 56.5745Z" fill="white"/>
<path d="M60.4353 17.1914H52.9395V21.9257H60.4353V17.1914Z" fill="#ED9180"/>
<path d="M60.4353 13.0485V17.191H52.9395V13.0485C52.9395 12.63 53.1057 12.2286 53.4017 11.9327C53.6976 11.6367 54.099 11.4705 54.5175 11.4705H58.8573C59.2758 11.4705 59.6772 11.6367 59.9731 11.9327C60.2691 12.2286 60.4353 12.63 60.4353 13.0485V13.0485Z" fill="#ED9180"/>
<path d="M60.4353 21.9255H52.9395V56.2488H60.4353V21.9255Z" fill="#C64229"/>
<path d="M46.4303 24.8842H33.6084C33.5038 24.8842 33.4034 24.8426 33.3294 24.7686C33.2554 24.6946 33.2139 24.5943 33.2139 24.4896V11.6677L46.4303 24.8842Z" fill="white"/>
<path d="M46.6274 25.2442V60.391C46.6274 61.0188 46.378 61.6209 45.9341 62.0648C45.4901 62.5087 44.8881 62.7581 44.2603 62.7581H10.726C10.0982 62.7581 9.49612 62.5087 9.0522 62.0648C8.60828 61.6209 8.35889 61.0188 8.35889 60.391V13.8376C8.35889 13.2098 8.60828 12.6077 9.0522 12.1638C9.49612 11.7199 10.0982 11.4705 10.726 11.4705H32.8586C32.9619 11.4712 33.0608 11.5118 33.1348 11.5839L33.2186 11.6677V24.4896C33.2186 24.5943 33.2602 24.6946 33.3342 24.7686C33.4082 24.8426 33.5085 24.8842 33.6131 24.8842H46.4351L46.5189 24.968C46.5892 25.0427 46.628 25.1416 46.6274 25.2442V25.2442ZM24.1644 32.5773C24.1644 31.5239 23.852 30.4942 23.2668 29.6183C22.6815 28.7425 21.8497 28.0598 20.8765 27.6567C19.9033 27.2536 18.8324 27.1481 17.7993 27.3536C16.7661 27.5591 15.8171 28.0664 15.0723 28.8112C14.3274 29.5561 13.8202 30.5051 13.6146 31.5383C13.4091 32.5714 13.5146 33.6423 13.9177 34.6155C14.3208 35.5887 15.0035 36.4205 15.8794 37.0057C16.7552 37.591 17.7849 37.9033 18.8383 37.9033C20.2509 37.9033 21.6056 37.3422 22.6044 36.3434C23.6032 35.3446 24.1644 33.9899 24.1644 32.5773ZM24.1644 50.7253C24.1644 49.6719 23.852 48.6421 23.2668 47.7663C22.6815 46.8904 21.8497 46.2078 20.8765 45.8046C19.9033 45.4015 18.8324 45.2961 17.7993 45.5016C16.7661 45.7071 15.8171 46.2143 15.0723 46.9592C14.3274 47.704 13.8202 48.653 13.6146 49.6862C13.4091 50.7193 13.5146 51.7902 13.9177 52.7634C14.3208 53.7366 15.0035 54.5685 15.8794 55.1537C16.7552 55.7389 17.7849 56.0513 18.8383 56.0513C20.2509 56.0513 21.6056 55.4901 22.6044 54.4913C23.6032 53.4925 24.1644 52.1378 24.1644 50.7253Z" fill="white"/>
<path d="M18.8136 26.2652C17.5662 26.27 16.3482 26.6444 15.3134 27.341C14.2785 28.0375 13.4733 29.0251 12.9993 30.1789C12.5253 31.3328 12.4039 32.6012 12.6502 33.824C12.8965 35.0469 13.4997 36.1693 14.3834 37.0496C15.2672 37.93 16.392 38.5287 17.6158 38.7703C18.8396 39.0118 20.1075 38.8854 21.2595 38.4069C22.4115 37.9285 23.3959 37.1194 24.0884 36.0819C24.7809 35.0443 25.1505 33.8249 25.1505 32.5775C25.1499 31.7467 24.9854 30.9241 24.6664 30.1569C24.3474 29.3898 23.8802 28.6931 23.2915 28.1067C22.7029 27.5204 22.0044 27.0559 21.236 26.7399C20.4676 26.4239 19.6444 26.2626 18.8136 26.2652Z" fill="#00E224"/>
<path d="M18.8136 44.4131C17.5662 44.418 16.3482 44.7923 15.3134 45.4889C14.2785 46.1855 13.4733 47.173 12.9993 48.3269C12.5253 49.4807 12.4039 50.7491 12.6502 51.972C12.8965 53.1948 13.4997 54.3173 14.3834 55.1976C15.2672 56.0779 16.392 56.6767 17.6158 56.9182C18.8396 57.1598 20.1075 57.0334 21.2595 56.5549C22.4115 56.0764 23.3959 55.2673 24.0884 54.2298C24.7809 53.1923 25.1505 51.9729 25.1505 50.7254C25.1499 49.8946 24.9854 49.0721 24.6664 48.3049C24.3474 47.5377 23.8802 46.841 23.2915 46.2547C22.7029 45.6683 22.0044 45.2038 21.236 44.8878C20.4676 44.5718 19.6444 44.4105 18.8136 44.4131Z" fill="#00E224"/>
<path d="M28.2817 30.802H38.1448" stroke="#515F76" stroke-width="1.18356" stroke-miterlimit="10" stroke-linecap="round"/>
<path d="M28.2817 34.7476H40.9064" stroke="#515F76" stroke-width="1.18356" stroke-miterlimit="10" stroke-linecap="round"/>
<path d="M28.2817 48.5554H38.1448" stroke="#515F76" stroke-width="1.18356" stroke-miterlimit="10" stroke-linecap="round"/>
<path d="M28.2817 52.5007H41.6954" stroke="#515F76" stroke-width="1.18356" stroke-miterlimit="10" stroke-linecap="round"/>
<path d="M16.4463 32.5771L18.4189 34.5497L21.1805 31.3936" stroke="#515F76" stroke-width="1.18356" stroke-linecap="round" stroke-linejoin="round"/>
<path d="M16.4463 50.7256L18.4189 52.6982L21.1805 49.542" stroke="#515F76" stroke-width="1.18356" stroke-linecap="round" stroke-linejoin="round"/>
<path d="M60.6577 21.6985H58.6851V56.219H60.6577V21.6985Z" fill="#EEB8A9"/>
<path d="M60.6577 17.2603H58.6851V21.6986H60.6577V17.2603Z" fill="#EEB8A9"/>
<path d="M60.4353 21.9255H52.9395" stroke="#515F76" stroke-width="1.18356" stroke-miterlimit="10"/>
<path d="M58.8574 11.3423H56.8848C57.3399 11.3626 57.7724 11.5464 58.103 11.8598C58.4336 12.1732 58.6401 12.5952 58.6848 13.0486V17.2601H60.6574V13.0486C60.6127 12.5952 60.4062 12.1732 60.0756 11.8598C59.745 11.5464 59.3125 11.3626 58.8574 11.3423V11.3423Z" fill="#EEB8A9"/>
<path d="M60.4358 56.2485V56.574L57.033 62.6299C56.9986 62.6904 56.9487 62.7407 56.8885 62.7756C56.8283 62.8106 56.7599 62.829 56.6903 62.829C56.6207 62.829 56.5523 62.8106 56.4921 62.7756C56.4319 62.7407 56.382 62.6904 56.3476 62.6299L52.9448 56.5789V13.0485C52.9448 12.63 53.1111 12.2286 53.407 11.9327C53.703 11.6367 54.1044 11.4705 54.5229 11.4705H58.8626C59.2812 11.4705 59.6826 11.6367 59.9785 11.9327C60.2745 12.2286 60.4407 12.63 60.4407 13.0485V56.2485H60.4358Z" stroke="#515F76" stroke-width="1.18356" stroke-miterlimit="10"/>
<path d="M52.9395 17.1914H60.4353" stroke="#515F76" stroke-width="1.18356" stroke-miterlimit="10"/>
<path d="M60.4353 56.2485H52.9395" stroke="#515F76" stroke-width="1.18356" stroke-miterlimit="10"/>
<path d="M46.4296 25.6437C46.4657 25.5332 46.4657 25.414 46.4296 25.3035V25.1555H33.6077C33.3907 25.1506 33.0405 25.1013 33.0405 24.8843V26.8569C33.0405 27.0739 33.3907 27.1232 33.6077 27.1232H46.4296V27.2711" fill="#C3C7CD"/>
<path d="M46.4303 24.8842H33.6084C33.5038 24.8842 33.4034 24.8426 33.3294 24.7686C33.2554 24.6946 33.2139 24.5943 33.2139 24.4896V11.6677" stroke="#515F76" stroke-width="1.18356" stroke-miterlimit="10"/>
<path d="M33.2137 11.6677L33.1298 11.5839C33.0559 11.5118 32.9569 11.4712 32.8537 11.4705H10.726C10.0982 11.4705 9.49612 11.7199 9.0522 12.1638C8.60828 12.6077 8.35889 13.2098 8.35889 13.8376V60.391C8.35889 61.0188 8.60828 61.6209 9.0522 62.0648C9.49612 62.5087 10.0982 62.7581 10.726 62.7581H44.2603C44.8881 62.7581 45.4901 62.5087 45.9341 62.0648C46.378 61.6209 46.6274 61.0188 46.6274 60.391V25.2442C46.6267 25.1409 46.586 25.0419 46.514 24.968L46.4301 24.8842L33.2137 11.6677Z" stroke="#515F76" stroke-width="1.18356" stroke-miterlimit="10"/>
<path d="M60.9629 4.10278L62.541 5.68087" stroke="#B8B9BA" stroke-width="0.789041" stroke-miterlimit="10" stroke-linecap="round"/>
<path d="M62.541 4.10278L60.9629 5.68087" stroke="#B8B9BA" stroke-width="0.789041" stroke-miterlimit="10" stroke-linecap="round"/>
<path d="M69.0166 8.64521C69.5613 8.64521 70.0029 8.20363 70.0029 7.65891C70.0029 7.11419 69.5613 6.67261 69.0166 6.67261C68.4719 6.67261 68.0303 7.11419 68.0303 7.65891C68.0303 8.20363 68.4719 8.64521 69.0166 8.64521Z" stroke="#B8B9BA" stroke-width="0.789041" stroke-miterlimit="10" stroke-linecap="round"/>
<path d="M65.3662 13.5073C65.802 13.5073 66.1552 13.154 66.1552 12.7182C66.1552 12.2825 65.802 11.9292 65.3662 11.9292C64.9304 11.9292 64.5771 12.2825 64.5771 12.7182C64.5771 13.154 64.9304 13.5073 65.3662 13.5073Z" fill="#B8B9BA"/>
<path d="M65.5889 62.6299V65.5888" stroke="#B8B9BA" stroke-width="0.986301" stroke-miterlimit="10" stroke-linecap="round"/>
<path d="M67.0683 64.1099H64.1094" stroke="#B8B9BA" stroke-width="0.986301" stroke-miterlimit="10" stroke-linecap="round"/>
<path d="M3.52582 7.99852L4.67486 7.39687C4.68125 7.39308 4.68859 7.39118 4.69602 7.39138C4.70345 7.39157 4.71067 7.39387 4.71686 7.39799C4.72304 7.40211 4.72794 7.4079 4.73098 7.41468C4.73401 7.42146 4.73508 7.42897 4.73404 7.43633L4.51212 8.71359L5.49842 9.67523L4.13733 9.86263L3.52582 11.0955L2.91924 9.86263L1.63705 9.67523C1.63089 9.67182 1.62575 9.66682 1.62217 9.66075C1.61859 9.65468 1.6167 9.64776 1.6167 9.64071C1.6167 9.63366 1.61859 9.62674 1.62217 9.62067C1.62575 9.6146 1.63089 9.6096 1.63705 9.60619L2.56417 8.69879L2.30774 7.35742L3.52582 7.99852Z" fill="#ED9180"/>
<path d="M8.1616 5.68087C8.59737 5.68087 8.95064 5.3276 8.95064 4.89182C8.95064 4.45605 8.59737 4.10278 8.1616 4.10278C7.72582 4.10278 7.37256 4.45605 7.37256 4.89182C7.37256 5.3276 7.72582 5.68087 8.1616 5.68087Z" fill="#B8B9BA"/>
<path d="M60.436 68.2915C60.8718 68.2915 61.2251 67.9382 61.2251 67.5024C61.2251 67.0666 60.8718 66.7134 60.436 66.7134C60.0002 66.7134 59.647 67.0666 59.647 67.5024C59.647 67.9382 60.0002 68.2915 60.436 68.2915Z" fill="#B8B9BA"/>
<path d="M3.72361 15.4157C4.26833 15.4157 4.70991 14.9741 4.70991 14.4294C4.70991 13.8847 4.26833 13.4431 3.72361 13.4431C3.17889 13.4431 2.7373 13.8847 2.7373 14.4294C2.7373 14.9741 3.17889 15.4157 3.72361 15.4157Z" stroke="#B8B9BA" stroke-width="0.789041" stroke-miterlimit="10" stroke-linecap="round"/>
</svg>
